<svg width="115" height="137" viewBox="0 0 115 137" fill="none" xmlns="http://www.w3.org/2000/svg">
<path fill-rule="evenodd" clip-rule="evenodd" d="M8.17117 116.079C8.17117 122.83 13.6441 128.303 20.3953 128.303H73.1302C79.8814 128.303 85.3543 122.83 85.3543 116.079V105.783C85.3543 103.526 87.1835 101.697 89.4399 101.697C91.6963 101.697 93.5255 103.526 93.5255 105.783V116.079C93.5255 127.343 84.3942 136.475 73.1302 136.475H20.3953C9.13132 136.475 0 127.343 0 116.079V20.3953C0 9.13132 9.13132 0 20.3953 0H73.1302C84.3942 0 93.5255 9.13132 93.5255 20.3953V28.8552C93.5255 31.1116 91.6963 32.9408 89.4399 32.9408C87.1835 32.9408 85.3543 31.1116 85.3543 28.8552V20.3953C85.3543 13.6441 79.8814 8.17117 73.1302 8.17117H20.3953C13.6441 8.17117 8.17117 13.6441 8.17117 20.3953V116.079ZM41.3262 113.122C41.3262 116.125 43.7602 118.559 46.7628 118.559C49.7654 118.559 52.1994 116.125 52.1994 113.122C52.1994 110.12 49.7654 107.686 46.7628 107.686C43.7602 107.686 41.3262 110.12 41.3262 113.122ZM37.2406 23.4186C37.2406 25.675 39.0698 27.5042 41.3262 27.5042H52.1994C54.4558 27.5042 56.2849 25.675 56.2849 23.4186C56.2849 21.1622 54.4558 19.333 52.1994 19.333H41.3262C39.0698 19.333 37.2406 21.1622 37.2406 23.4186ZM70.6299 91.4715C69.9604 93.8267 67.5215 95.4533 65.0533 95.4533C61.4002 95.4533 59.0296 91.9935 60.0204 88.5072L72.3685 45.0692C73.038 42.7141 75.2051 41.0875 77.6733 41.0875C81.3264 41.0875 83.9688 44.5473 82.9777 48.0335L70.6299 91.4715ZM49.8935 88.0205C51.3432 86.2915 51.1168 83.7145 49.3877 82.2648L35.937 70.9874C34.4349 69.7036 34.4349 67.3808 35.937 66.097L49.3877 54.8196C51.1168 53.3699 51.3432 50.793 49.8935 49.0639C48.4438 47.3348 45.8669 47.1083 44.1378 48.558L30.6752 59.8455L30.6554 59.8621C25.3005 64.4099 25.3005 72.6745 30.6554 77.2223L30.6752 77.239L44.1378 88.5264C45.8669 89.9761 48.4438 89.7496 49.8935 88.0205ZM97.8046 88.4998C96.0902 89.9669 93.5112 89.7663 92.0441 88.0519C90.5771 86.3375 90.7776 83.7584 92.492 82.2914L105.683 71.004L105.694 70.9941C107.207 69.7095 107.207 67.3749 105.694 66.0903L105.683 66.0804L92.492 54.793C90.7776 53.326 90.5771 50.7469 92.0441 49.0325C93.5112 47.3181 96.0902 47.1176 97.8046 48.5846L110.984 59.8621L110.99 59.8674C116.337 64.4145 116.337 72.6697 110.99 77.2168L97.8046 88.4998Z" fill="#0061FF"/>
</svg>
