<svg width="115" height="115" viewBox="0 0 115 115" fill="none" xmlns="http://www.w3.org/2000/svg">
<path d="M95.8333 74.6491C95.0307 74.6491 94.2609 74.3303 93.6934 73.7627C93.1259 73.1952 92.807 72.4254 92.807 71.6228V57.5C92.807 56.6974 93.1259 55.9276 93.6934 55.3601C94.2609 54.7925 95.0307 54.4737 95.8333 54.4737C96.636 54.4737 97.4057 54.7925 97.9733 55.3601C98.5408 55.9276 98.8596 56.6974 98.8596 57.5V71.6228C98.8596 72.4254 98.5408 73.1952 97.9733 73.7627C97.4057 74.3303 96.636 74.6491 95.8333 74.6491ZM19.1667 34.2982C18.364 34.2982 17.5943 33.9794 17.0267 33.4119C16.4592 32.8443 16.1404 32.0746 16.1404 31.2719V3.02632C16.1404 2.22369 16.4592 1.45393 17.0267 0.886387C17.5943 0.318843 18.364 0 19.1667 0H95.8333C96.636 0 97.4057 0.318843 97.9733 0.886387C98.5408 1.45393 98.8596 2.22369 98.8596 3.02632V21.1842C98.8596 21.9868 98.5408 22.7566 97.9733 23.3241C97.4057 23.8917 96.636 24.2105 95.8333 24.2105C95.0307 24.2105 94.2609 23.8917 93.6934 23.3241C93.1259 22.7566 92.807 21.9868 92.807 21.1842V6.05263H22.193V31.2719C22.193 32.0746 21.8741 32.8443 21.3066 33.4119C20.7391 33.9794 19.9693 34.2982 19.1667 34.2982ZM43.3772 102.895H19.1667C18.364 102.895 17.5943 102.576 17.0267 102.008C16.4592 101.441 16.1404 100.671 16.1404 99.8684V79.693C16.1404 78.8904 16.4592 78.1206 17.0267 77.553C17.5943 76.9855 18.364 76.6667 19.1667 76.6667C19.9693 76.6667 20.7391 76.9855 21.3066 77.553C21.8741 78.1206 22.193 78.8904 22.193 79.693V96.8421H43.3772C44.1798 96.8421 44.9496 97.1609 45.5171 97.7285C46.0847 98.296 46.4035 99.0658 46.4035 99.8684C46.4035 100.671 46.0847 101.441 45.5171 102.008C44.9496 102.576 44.1798 102.895 43.3772 102.895Z" fill="#0061FF"/>
<path d="M33.5418 13.7072L29.8383 17.4107C29.0504 18.1986 29.0504 19.476 29.8383 20.2639L33.5418 23.9674C34.3297 24.7553 35.6071 24.7553 36.395 23.9674L40.0985 20.2639C40.8864 19.476 40.8864 18.1986 40.0985 17.4107L36.395 13.7072C35.6071 12.9193 34.3297 12.9193 33.5418 13.7072Z" fill="#0061FF"/>
<path d="M111.974 60.5263H55.4825C54.6798 60.5263 53.9101 60.2075 53.3425 59.6399C52.775 59.0724 52.4561 58.3026 52.4561 57.5V21.1842C52.4561 20.3816 52.775 19.6118 53.3425 19.0443C53.9101 18.4767 54.6798 18.1579 55.4825 18.1579H111.974C112.776 18.1579 113.546 18.4767 114.114 19.0443C114.681 19.6118 115 20.3816 115 21.1842V57.5C115 58.3026 114.681 59.0724 114.114 59.6399C113.546 60.2075 112.776 60.5263 111.974 60.5263ZM58.5088 54.4737H108.947V24.2105H58.5088V54.4737Z" fill="#0061FF"/>
<path d="M66.4806 27.8332L62.7771 31.5367C61.9892 32.3246 61.9892 33.602 62.7771 34.3899L66.4806 38.0934C67.2685 38.8813 68.5459 38.8813 69.3338 38.0934L73.0373 34.3899C73.8252 33.602 73.8252 32.3246 73.0373 31.5367L69.3338 27.8332C68.5459 27.0453 67.2685 27.0453 66.4806 27.8332Z" fill="#0061FF"/>
<path d="M101.886 36.3158H79.693C78.8904 36.3158 78.1206 35.9969 77.553 35.4294C76.9855 34.8619 76.6667 34.0921 76.6667 33.2895C76.6667 32.4868 76.9855 31.7171 77.553 31.1495C78.1206 30.582 78.8904 30.2632 79.693 30.2632H101.886C102.689 30.2632 103.458 30.582 104.026 31.1495C104.593 31.7171 104.912 32.4868 104.912 33.2895C104.912 34.0921 104.593 34.8619 104.026 35.4294C103.458 35.9969 102.689 36.3158 101.886 36.3158ZM101.886 48.4211H65.5702C64.7675 48.4211 63.9978 48.1022 63.4302 47.5347C62.8627 46.9671 62.5439 46.1974 62.5439 45.3947C62.5439 44.5921 62.8627 43.8224 63.4302 43.2548C63.9978 42.6873 64.7675 42.3684 65.5702 42.3684H101.886C102.689 42.3684 103.458 42.6873 104.026 43.2548C104.593 43.8224 104.912 44.5921 104.912 45.3947C104.912 46.1974 104.593 46.9671 104.026 47.5347C103.458 48.1022 102.689 48.4211 101.886 48.4211ZM19.1667 66.5789C8.59877 66.5789 0 57.9802 0 47.4123C0 36.8444 8.59877 28.2456 19.1667 28.2456C29.7346 28.2456 38.3333 36.8444 38.3333 47.4123C38.3333 57.9802 29.7346 66.5789 19.1667 66.5789ZM19.1667 34.2982C11.9358 34.2982 6.05263 40.1814 6.05263 47.4123C6.05263 54.6432 11.9358 60.5263 19.1667 60.5263C26.3975 60.5263 32.2807 54.6432 32.2807 47.4123C32.2807 40.1814 26.3975 34.2982 19.1667 34.2982Z" fill="#0061FF"/>
<path d="M17.7326 42.2802L14.0291 45.9837C13.2412 46.7716 13.2412 48.0491 14.0291 48.837L17.7326 52.5405C18.5205 53.3284 19.7979 53.3284 20.5858 52.5405L24.2893 48.837C25.0772 48.0491 25.0772 46.7716 24.2893 45.9837L20.5858 42.2802C19.7979 41.4923 18.5205 41.4923 17.7326 42.2802Z" fill="#0061FF"/>
<path d="M29.2544 86.7544C28.8751 86.7544 28.4938 86.6838 28.1306 86.5385L19.1667 82.9533L10.2027 86.5385C9.74352 86.7227 9.24614 86.7914 8.7542 86.7386C8.26227 86.6858 7.7908 86.5131 7.38113 86.2357C6.97147 85.9583 6.63612 85.5846 6.4045 85.1474C6.17288 84.7102 6.05206 84.2228 6.05263 83.7281V60.0018C6.05263 59.1991 6.37147 58.4294 6.93902 57.8618C7.50656 57.2943 8.27632 56.9754 9.07895 56.9754C9.88158 56.9754 10.6513 57.2943 11.2189 57.8618C11.7864 58.4294 12.1053 59.1991 12.1053 60.0018V79.2592L18.0429 76.8825C18.7641 76.593 19.5692 76.593 20.2904 76.8825L26.2281 79.2592V60.0018C26.2281 59.1991 26.5469 58.4294 27.1145 57.8618C27.682 57.2943 28.4518 56.9754 29.2544 56.9754C30.057 56.9754 30.8268 57.2943 31.3943 57.8618C31.9619 58.4294 32.2807 59.1991 32.2807 60.0018V83.7281C32.2802 84.5305 31.9612 85.3 31.3937 85.8674C30.8263 86.4348 30.0568 86.7538 29.2544 86.7544ZM111.974 115H55.4825C54.6798 115 53.9101 114.681 53.3425 114.114C52.775 113.546 52.4561 112.776 52.4561 111.974V71.6228C52.4561 70.8202 52.775 70.0504 53.3425 69.4829C53.9101 68.9153 54.6798 68.5965 55.4825 68.5965H111.974C112.776 68.5965 113.546 68.9153 114.114 69.4829C114.681 70.0504 115 70.8202 115 71.6228V111.974C115 112.776 114.681 113.546 114.114 114.114C113.546 114.681 112.776 115 111.974 115ZM58.5088 108.947H108.947V74.6491H58.5088V108.947Z" fill="#0061FF"/>
<path d="M82.2814 80.9463L78.5779 84.6498C77.79 85.4377 77.79 86.7152 78.5779 87.5031L82.2814 91.2066C83.0693 91.9945 84.3467 91.9945 85.1346 91.2066L88.8381 87.5031C89.626 86.7152 89.626 85.4377 88.8381 84.6498L85.1346 80.9463C84.3467 80.1584 83.0693 80.1584 82.2814 80.9463Z" fill="#0061FF"/>
<path d="M99.8684 102.895H67.5877C66.7303 102.895 65.9132 102.532 65.3382 101.892L54.3405 89.6717C54.0746 89.3763 53.8696 89.0314 53.737 88.6568C53.6044 88.2821 53.5469 87.885 53.5678 87.4881C53.5887 87.0912 53.6875 86.7023 53.8587 86.3436C54.0299 85.9849 54.2701 85.6635 54.5655 85.3976C54.8609 85.1317 55.2058 84.9266 55.5805 84.794C55.9551 84.6615 56.3523 84.604 56.7492 84.6249C57.146 84.6457 57.5349 84.7446 57.8936 84.9158C58.2523 85.087 58.5738 85.3271 58.8397 85.6225L68.9354 96.8421H98.5207L109.375 84.7812C109.641 84.4858 109.962 84.2457 110.321 84.0745C110.68 83.9033 111.069 83.8044 111.466 83.7835C111.862 83.7626 112.26 83.8201 112.634 83.9527C113.009 84.0853 113.354 84.2904 113.649 84.5563C113.945 84.8221 114.185 85.1436 114.356 85.5023C114.527 85.861 114.626 86.2499 114.647 86.6468C114.668 87.0437 114.61 87.4408 114.478 87.8154C114.345 88.1901 114.14 88.535 113.874 88.8304L102.118 101.892C101.543 102.53 100.726 102.895 99.8684 102.895Z" fill="#0061FF"/>
</svg>
