<svg width="121" height="121" viewBox="0 0 121 121" fill="none" xmlns="http://www.w3.org/2000/svg">
<path d="M96.5866 118H107.252C113.188 118 118 113.188 118 107.252V13.7484C118 7.81234 113.188 3 107.252 3H13.7484C7.81234 3 3 7.81234 3 13.7484V107.252C3 113.188 7.81234 118 13.7484 118H24.4134H96.5866Z" stroke="#0061FF" stroke-width="5.72616" stroke-miterlimit="10" stroke-linecap="round" stroke-linejoin="round"/>
<path d="M3 31.6307H118" stroke="#0061FF" stroke-width="5.72616" stroke-miterlimit="10" stroke-linecap="round" stroke-linejoin="round"/>
<path d="M45.946 17.3153H103.685" stroke="#0061FF" stroke-width="5.72616" stroke-miterlimit="10" stroke-linecap="round" stroke-linejoin="round"/>
<path d="M20.8942 17.3153C20.8942 19.2918 19.2919 20.8942 17.3154 20.8942C15.3389 20.8942 13.7366 19.2918 13.7366 17.3153C13.7366 15.3389 15.3389 13.7365 17.3154 13.7365C19.2919 13.7365 20.8942 15.3389 20.8942 17.3153Z" fill="#0061FF"/>
<path d="M35.2096 17.3153C35.2096 19.2918 33.6072 20.8942 31.6307 20.8942C29.6542 20.8942 28.0519 19.2918 28.0519 17.3153C28.0519 15.3389 29.6542 13.7365 31.6307 13.7365C33.6072 13.7365 35.2096 15.3389 35.2096 17.3153Z" fill="#0061FF"/>
<path d="M91.723 69.6916L85.4433 89.3648H43.2953L35.7946 58.3918H83.4683C89.3361 58.3918 93.5074 64.1017 91.723 69.6916Z" stroke="#0061FF" stroke-width="5.72616" stroke-miterlimit="10" stroke-linecap="round" stroke-linejoin="round"/>
<path d="M55.4729 96.527C55.4729 100.48 52.2685 103.685 48.3153 103.685C44.3621 103.685 41.1576 100.48 41.1576 96.527C41.1576 92.5738 44.3621 89.3693 48.3153 89.3693C52.2685 89.3693 55.4729 92.5738 55.4729 96.527Z" stroke="#0061FF" stroke-width="5.72616" stroke-miterlimit="10" stroke-linecap="round" stroke-linejoin="round"/>
<path d="M89.1141 96.527C89.1141 100.48 85.9096 103.685 81.9564 103.685C78.0032 103.685 74.7987 100.48 74.7987 96.527C74.7987 92.5738 78.0032 89.3693 81.9564 89.3693C85.9096 89.3693 89.1141 92.5738 89.1141 96.527Z" stroke="#0061FF" stroke-width="5.72616" stroke-miterlimit="10" stroke-linecap="round" stroke-linejoin="round"/>
<path d="M38.2206 68.4068L32.8475 45.9461" stroke="#0061FF" stroke-width="5.72616" stroke-miterlimit="10" stroke-linecap="round" stroke-linejoin="round"/>
<path d="M32.8475 45.946H19.3171" stroke="#0061FF" stroke-width="5.72616" stroke-miterlimit="10" stroke-linecap="round" stroke-linejoin="round"/>
</svg>
