<svg width="117" height="103" viewBox="0 0 117 103" fill="none" xmlns="http://www.w3.org/2000/svg">
<path d="M75.1935 59L75.1971 59C75.5532 58.9975 75.904 58.9145 76.2236 58.7574C76.5431 58.6003 76.823 58.373 77.0424 58.0926C77.2618 57.8121 77.415 57.4857 77.4906 57.1378C77.5661 56.7898 77.5621 56.4293 77.4789 56.0831L77.4778 56.0787L76.3533 51.5806H78.9032C80.1995 51.5806 81.2581 50.5221 81.2581 49.2258V34.3871C81.2581 33.0908 80.1995 32.0323 78.9032 32.0323H56.6452C55.3489 32.0323 54.2903 33.0908 54.2903 34.3871V49.2258C54.2903 50.5221 55.3489 51.5806 56.6452 51.5806H65.0949L73.7276 58.4795C74.1585 58.8369 74.681 59 75.1935 59ZM67.3815 47.3885L67.3815 47.3884L67.3763 47.3844C66.9618 47.0619 66.4473 46.871 65.9193 46.871H59V36.7419H76.5484V46.871H73.3387C72.6123 46.871 71.9295 47.1994 71.4814 47.7655C71.0339 48.3307 70.8672 49.0845 71.0552 49.7953L71.2188 50.4554L67.3815 47.3885ZM43.4758 36.0588L43.4769 36.0576L55.7765 23.7581H78.9218C82.2584 23.7581 84.9863 21.0302 84.9863 17.6935V6.56452C84.9863 3.22789 82.2584 0.5 78.9218 0.5H78.9032H34.3871C31.0505 0.5 28.3226 3.22789 28.3226 6.56452V17.6935C28.3226 21.0302 31.0505 23.7581 34.3871 23.7581H39.4516V34.3871C39.4516 35.3246 40.0128 36.1985 40.9122 36.5563C41.3396 36.7364 41.8109 36.7857 42.2665 36.6979C42.7241 36.6097 43.1451 36.3872 43.4758 36.0588ZM53.1295 19.7233L53.1294 19.7232L53.1198 19.7327L44.1613 28.6913V21.3847C44.1613 20.0884 43.1028 19.0298 41.8064 19.0298H34.3871C33.6431 19.0298 33.0323 18.419 33.0323 17.675V6.54597C33.0323 5.80195 33.6431 5.19113 34.3871 5.19113H78.9032C79.6472 5.19113 80.2581 5.80195 80.2581 6.54597V17.675V17.6935C80.2581 18.4376 79.6472 19.0484 78.9032 19.0484H54.7903C54.1506 19.0484 53.5665 19.3093 53.1295 19.7233ZM11.629 41.8065C11.629 49.2423 17.6771 55.2903 25.1129 55.2903C32.5487 55.2903 38.5968 49.2423 38.5968 41.8065C38.5968 34.3706 32.5487 28.3226 25.1129 28.3226C17.6771 28.3226 11.629 34.3706 11.629 41.8065ZM33.8871 41.8065C33.8871 46.6497 29.9561 50.5806 25.1129 50.5806C20.2697 50.5806 16.3387 46.6497 16.3387 41.8065C16.3387 36.9632 20.2697 33.0323 25.1129 33.0323C29.9561 33.0323 33.8871 36.9632 33.8871 41.8065ZM93.7419 66.4194C100.158 66.4194 105.371 61.206 105.371 54.7903C105.371 48.3747 100.158 43.1613 93.7419 43.1613C87.3263 43.1613 82.1129 48.3747 82.1129 54.7903C82.1129 61.206 87.3263 66.4194 93.7419 66.4194ZM93.7419 47.871C97.565 47.871 100.661 50.9673 100.661 54.7903C100.661 58.6134 97.565 61.7097 93.7419 61.7097C89.9189 61.7097 86.8226 58.6134 86.8226 54.7903C86.8226 50.9673 89.9189 47.871 93.7419 47.871Z" fill="#0061FF" stroke="#0061FF"/>
<path d="M62.2017 70.0605L62.2015 70.0607L42.3065 85.5468V85.8226H74.6936V84.4677C74.6936 74.9916 82.411 67.2742 91.8871 67.2742H95.5968C105.073 67.2742 112.79 74.9916 112.79 84.4677V85.8226H114.145C115.441 85.8226 116.5 86.8811 116.5 88.1774V99.3064C116.5 100.603 115.441 101.661 114.145 101.661H2.85484C1.55854 101.661 0.5 100.603 0.5 99.3064V88.1774C0.5 86.8811 1.55854 85.8226 2.85484 85.8226H7.91935V69.629C7.91935 62.1932 13.9674 56.1451 21.4032 56.1451H28.8226C36.1453 56.1451 42.1222 62.0106 42.3023 69.2907L54.9064 60.2828C54.9066 60.2827 54.9068 60.2825 54.907 60.2824C56.0803 59.4385 57.5159 59.0401 58.9563 59.1586C60.3966 59.277 61.7477 59.9046 62.7673 60.9287L62.2017 70.0605ZM62.2017 70.0605C63.5742 68.9908 64.444 67.3748 64.5451 65.6142C64.646 63.8591 64.0002 62.1619 62.7677 60.9291L62.2017 70.0605ZM37.6339 96.9516V84.8283L28.0455 78.4482L37.6339 96.9516ZM37.6339 96.9516H12.629V69.629C12.629 64.7858 16.56 60.8548 21.4032 60.8548H28.8226C33.2576 60.8548 36.9119 64.1494 37.4978 68.4286L35.7922 67.2015C34.4781 66.255 32.8697 65.8077 31.2556 65.9398C29.6416 66.0718 28.1274 66.7746 26.9847 67.9219C25.5262 69.3807 24.8033 71.3842 25.0239 73.4294C25.2432 75.4632 26.3214 77.3051 28.0448 78.4477L37.6339 96.9516ZM99.7342 76.4753L98.7093 72.3911C104.084 73.7848 108.081 78.6654 108.081 84.4677V85.8226H79.4032V84.4677C79.4032 78.6621 83.3863 73.7656 88.7754 72.388L87.748 76.4815L87.7464 76.4887C87.5612 77.2758 87.7671 78.1242 88.3618 78.7189L92.0714 82.4285C92.5441 82.9012 93.1387 83.1129 93.7419 83.1129C94.3566 83.1129 94.9425 82.8752 95.4032 82.4375L95.4034 82.4376L95.4124 82.4285L99.1221 78.7189C99.7083 78.1327 99.947 77.284 99.735 76.4786C99.7347 76.4775 99.7345 76.4764 99.7342 76.4753ZM30.3076 71.281L30.3095 71.279C30.6648 70.9198 31.137 70.6997 31.6406 70.6584C32.1441 70.6171 32.6458 70.7574 33.0549 71.054L33.058 71.0562L39.1416 75.3964C39.1417 75.3964 39.1418 75.3965 39.1419 75.3965C39.9649 75.9843 41.0515 75.9842 41.8745 75.3964L41.8745 75.3963L57.6573 64.1203C57.6575 64.1201 57.6578 64.1199 57.658 64.1198C58.2257 63.7188 58.9695 63.7808 59.4399 64.2646L59.4399 64.2647L59.4448 64.2697C59.7358 64.5606 59.8831 64.9403 59.8559 65.3482C59.8284 65.7619 59.6387 66.1131 59.3241 66.3596C59.3238 66.3598 59.3236 66.3601 59.3233 66.3603L40.4114 81.0695L30.6394 74.5549L30.5135 74.471H30.5072C30.0438 74.1058 29.7464 73.5728 29.6913 72.9945C29.6312 72.3635 29.8569 71.7316 30.3076 71.281ZM7.91935 96.9516H5.20968V90.5322H7.91935V96.9516ZM92.6447 76.3198L93.7246 71.9839H93.7593L94.8392 76.3198L93.7419 77.4171L92.6447 76.3198ZM111.79 96.9516H42.3065V90.5322H111.79V96.9516Z" fill="#0061FF" stroke="#0061FF"/>
</svg>
