<svg width="115" height="108" viewBox="0 0 115 108" fill="none" xmlns="http://www.w3.org/2000/svg">
<path d="M17.9688 21.5625C18.9219 21.5625 19.836 21.1839 20.5099 20.5099C21.1839 19.836 21.5625 18.9219 21.5625 17.9688C21.5625 17.0156 21.1839 16.1015 20.5099 15.4276C19.836 14.7536 18.9219 14.375 17.9688 14.375C17.0156 14.375 16.1015 14.7536 15.4276 15.4276C14.7536 16.1015 14.375 17.0156 14.375 17.9688C14.375 18.9219 14.7536 19.836 15.4276 20.5099C16.1015 21.1839 17.0156 21.5625 17.9688 21.5625ZM32.3438 17.9688C32.3438 18.9219 31.9651 19.836 31.2912 20.5099C30.6172 21.1839 29.7031 21.5625 28.75 21.5625C27.7969 21.5625 26.8828 21.1839 26.2088 20.5099C25.5349 19.836 25.1562 18.9219 25.1562 17.9688C25.1562 17.0156 25.5349 16.1015 26.2088 15.4276C26.8828 14.7536 27.7969 14.375 28.75 14.375C29.7031 14.375 30.6172 14.7536 31.2912 15.4276C31.9651 16.1015 32.3438 17.0156 32.3438 17.9688ZM39.5312 21.5625C40.4844 21.5625 41.3985 21.1839 42.0724 20.5099C42.7464 19.836 43.125 18.9219 43.125 17.9688C43.125 17.0156 42.7464 16.1015 42.0724 15.4276C41.3985 14.7536 40.4844 14.375 39.5312 14.375C38.5781 14.375 37.664 14.7536 36.9901 15.4276C36.3161 16.1015 35.9375 17.0156 35.9375 17.9688C35.9375 18.9219 36.3161 19.836 36.9901 20.5099C37.664 21.1839 38.5781 21.5625 39.5312 21.5625ZM25.1562 46.7188C26.1094 46.7188 27.0235 47.0974 27.6974 47.7713C28.3714 48.4453 28.75 49.3594 28.75 50.3125V71.875C28.75 73.2908 29.0289 74.6928 29.5707 76.0008C30.1125 77.3088 30.9066 78.4974 31.9078 79.4985C32.9089 80.4996 34.0974 81.2938 35.4054 81.8356C36.7135 82.3774 38.1154 82.6562 39.5312 82.6562C40.9471 82.6562 42.349 82.3774 43.6571 81.8356C44.9651 81.2938 46.1536 80.4996 47.1547 79.4985C48.1559 78.4974 48.95 77.3088 49.4918 76.0008C50.0336 74.6928 50.3125 73.2908 50.3125 71.875V50.3125C50.3125 49.3594 50.6911 48.4453 51.3651 47.7713C52.039 47.0974 52.9531 46.7188 53.9062 46.7188C54.8594 46.7188 55.7735 47.0974 56.4474 47.7713C57.1214 48.4453 57.5 49.3594 57.5 50.3125V71.875C57.5 76.6406 55.6069 81.211 52.2371 84.5808C48.8673 87.9506 44.2969 89.8438 39.5312 89.8438C34.7656 89.8438 30.1952 87.9506 26.8254 84.5808C23.4556 81.211 21.5625 76.6406 21.5625 71.875V50.3125C21.5625 49.3594 21.9411 48.4453 22.6151 47.7713C23.289 47.0974 24.2031 46.7188 25.1562 46.7188ZM71.3647 48.4653C70.8639 47.6707 70.072 47.1037 69.1584 46.8857C68.2448 46.6677 67.2822 46.816 66.4766 47.2989C65.671 47.7818 65.0865 48.5608 64.8481 49.4693C64.6098 50.3778 64.7366 51.3435 65.2014 52.1597L74.8686 68.2812L65.2014 84.4028C64.711 85.2201 64.5654 86.1987 64.7966 87.1234C65.0277 88.0481 65.6168 88.8431 66.4341 89.3334C67.2514 89.8238 68.23 89.9694 69.1547 89.7383C70.0793 89.5071 70.8743 88.9181 71.3647 88.1008L79.0625 75.2675L86.7639 88.0972C87.0067 88.5019 87.3269 88.8548 87.7061 89.1357C88.0853 89.4167 88.5161 89.6202 88.9739 89.7347C89.4318 89.8491 89.9077 89.8723 90.3745 89.8028C90.8413 89.7334 91.2898 89.5727 91.6945 89.3298C92.0992 89.087 92.4521 88.7669 92.7331 88.3877C93.014 88.0085 93.2176 87.5777 93.332 87.1198C93.4465 86.662 93.4696 86.1861 93.4002 85.7193C93.3307 85.2525 93.17 84.8039 92.9272 84.3992L83.2528 68.2812L92.9272 52.1597C93.1824 51.7547 93.3541 51.3028 93.4323 50.8306C93.5104 50.3583 93.4935 49.8752 93.3824 49.4096C93.2713 48.944 93.0682 48.5052 92.7853 48.1192C92.5023 47.7331 92.145 47.4074 91.7344 47.1613C91.3238 46.9152 90.8682 46.7536 90.3943 46.686C89.9205 46.6184 89.4378 46.6461 88.9748 46.7676C88.5118 46.8891 88.0777 47.1018 87.6981 47.3934C87.3184 47.6849 87.0008 48.0493 86.7639 48.4653L79.0625 61.2914L71.3647 48.4653Z" fill="#0061FF"/>
<path fill-rule="evenodd" clip-rule="evenodd" d="M0 10.7812C0 7.92188 1.13588 5.17963 3.15775 3.15775C5.17963 1.13588 7.92188 0 10.7812 0H104.219C107.078 0 109.82 1.13588 111.842 3.15775C113.864 5.17963 115 7.92188 115 10.7812V97.0312C115 99.8906 113.864 102.633 111.842 104.655C109.82 106.677 107.078 107.812 104.219 107.812H10.7812C7.92188 107.812 5.17963 106.677 3.15775 104.655C1.13588 102.633 0 99.8906 0 97.0312L0 10.7812ZM107.812 10.7812V28.75H7.1875V10.7812C7.1875 9.82813 7.56613 8.91404 8.24008 8.24008C8.91404 7.56613 9.82813 7.1875 10.7812 7.1875H104.219C105.172 7.1875 106.086 7.56613 106.76 8.24008C107.434 8.91404 107.812 9.82813 107.812 10.7812ZM107.812 35.9375H7.1875V97.0312C7.1875 97.9844 7.56613 98.8985 8.24008 99.5724C8.91404 100.246 9.82813 100.625 10.7812 100.625H104.219C105.172 100.625 106.086 100.246 106.76 99.5724C107.434 98.8985 107.812 97.9844 107.812 97.0312V35.9375Z" fill="#0061FF"/>
</svg>
