<svg width="115" height="112" viewBox="0 0 115 112" fill="none" xmlns="http://www.w3.org/2000/svg">
<path d="M104.893 0H10.1074C4.53419 0 0 4.43322 0 9.88235V102.118C0 107.567 4.53419 112 10.1074 112H104.893C110.466 112 115 107.567 115 102.118V9.88235C115 4.43322 110.466 0 104.893 0ZM10.1074 6.58824H104.893C106.75 6.58824 108.262 8.06598 108.262 9.88235V26.3529H6.73828V9.88235C6.73828 8.06598 8.24968 6.58824 10.1074 6.58824ZM104.893 105.412H10.1074C8.24968 105.412 6.73828 103.934 6.73828 102.118V32.9412H108.262V102.118C108.262 103.934 106.75 105.412 104.893 105.412Z" fill="#0061FF"/>
<path d="M67.6701 47.4153C65.9599 46.6987 63.9791 47.4733 63.2462 49.1454L43.0313 95.263C42.2982 96.9351 43.0906 98.8719 44.8008 99.5884C46.5117 100.305 48.492 99.53 49.2247 97.8584L69.4396 51.7407C70.1727 50.0684 69.3803 48.1319 67.6701 47.4153ZM38.6515 58.2675C37.4889 56.8468 35.3683 56.6167 33.916 57.7531L17.0703 70.9296C15.386 72.2466 15.3848 74.7561 17.0703 76.0741L33.916 89.2506C35.369 90.3873 37.4895 90.1567 38.6515 88.7363C39.8138 87.3156 39.5784 85.2425 38.1252 84.1063L24.5682 73.5019L38.1252 62.8977C39.5784 61.7612 39.8138 59.6883 38.6515 58.2675ZM95.4006 70.9296L78.5549 57.7531C77.1019 56.6164 74.9816 56.8468 73.8194 58.2675C72.6571 59.6881 72.8925 61.7612 74.3457 62.8974L87.9027 73.5019L74.3457 84.1061C72.8925 85.2425 72.6571 87.3154 73.8194 88.7361C74.9834 90.1582 77.1039 90.3858 78.5549 89.2504L95.4006 76.0739C97.0849 74.7569 97.086 72.2477 95.4006 70.9296Z" fill="#0061FF"/>
<path d="M17.0703 19.7647C18.931 19.7647 20.4395 18.2899 20.4395 16.4706C20.4395 14.6513 18.931 13.1765 17.0703 13.1765C15.2096 13.1765 13.7012 14.6513 13.7012 16.4706C13.7012 18.2899 15.2096 19.7647 17.0703 19.7647Z" fill="#0061FF"/>
<path d="M30.5469 19.7647C32.4076 19.7647 33.916 18.2899 33.916 16.4706C33.916 14.6513 32.4076 13.1765 30.5469 13.1765C28.6861 13.1765 27.1777 14.6513 27.1777 16.4706C27.1777 18.2899 28.6861 19.7647 30.5469 19.7647Z" fill="#0061FF"/>
<path d="M44.0234 19.7647C45.8842 19.7647 47.3926 18.2899 47.3926 16.4706C47.3926 14.6513 45.8842 13.1765 44.0234 13.1765C42.1627 13.1765 40.6543 14.6513 40.6543 16.4706C40.6543 18.2899 42.1627 19.7647 44.0234 19.7647Z" fill="#0061FF"/>
<path d="M77.7148 19.7647H97.9297C99.7903 19.7647 101.299 18.2898 101.299 16.4706C101.299 14.6514 99.7903 13.1765 97.9297 13.1765H77.7148C75.8542 13.1765 74.3457 14.6514 74.3457 16.4706C74.3457 18.2898 75.8542 19.7647 77.7148 19.7647Z" fill="#0061FF"/>
</svg>
