<svg width="399" height="340" viewBox="0 0 399 340" fill="none" xmlns="http://www.w3.org/2000/svg">
<path d="M219.014 87.6313L185.708 80.2128C184.112 77.7082 183.218 76.3021 181.629 73.7902L189.003 40.6815C191.508 39.0851 192.914 38.1916 195.426 36.6025L228.732 44.021C230.329 46.5255 231.222 47.9316 232.812 50.4435L225.437 83.5522C222.932 85.1487 221.526 86.0421 219.014 87.6313Z" fill="#4385F5"/>
<path d="M228.01 48.9058L193.992 41.3269L186.413 75.3445L220.431 82.9234L228.01 48.9058Z" fill="#91BAFF"/>
<path d="M228.732 44.021L228.021 48.891L232.811 50.4362L228.732 44.021Z" fill="#215BBC"/>
<path d="M195.426 36.6025L193.998 41.3187L189.004 40.6815L195.426 36.6025Z" fill="#215BBC"/>
<path d="M185.708 80.2128L186.418 75.3355L181.629 73.7902L185.708 80.2128Z" fill="#215BBC"/>
<path d="M219.016 87.6313L220.444 82.9151L225.438 83.5522L219.016 87.6313Z" fill="#215BBC"/>
<path d="M234.127 127.807L235.431 121.963C250.326 125.28 264.856 117.137 267.822 103.816C270.993 89.5866 263.34 77.4592 249.22 74.3102L250.524 68.4662C267.807 72.3182 277.54 87.7265 273.666 105.112C269.982 121.655 252.245 131.835 234.127 127.8V127.807Z" fill="#91BAFF"/>
<path d="M246.635 60.4032C242.893 59.5684 239.172 60.9525 236.836 63.6767L241.699 64.7606C244.225 65.3245 245.822 67.8291 245.258 70.3629C244.694 72.8895 242.19 74.486 239.656 73.9221L234.793 72.8382C235.745 76.2948 238.528 79.1289 242.27 79.9638C247.675 81.1648 253.028 77.7668 254.229 72.3622C255.43 66.9576 252.032 61.6042 246.627 60.4032H246.635Z" fill="#33D48D"/>
<path d="M251.33 71.9374C251.498 71.1831 251.022 70.4362 250.268 70.2677C249.514 70.0993 248.767 70.5753 248.598 71.3296C248.43 72.0839 248.906 72.8309 249.66 72.9993C250.415 73.1678 251.161 72.6917 251.33 71.9374Z" fill="white"/>
<path d="M242.994 118.805L237.283 117.533L233.842 132.98L239.553 134.252L242.994 118.805Z" fill="#4385F5"/>
<path d="M241.623 111.508L235.912 110.236L229.504 138.999L235.215 140.272L241.623 111.508Z" fill="#91BAFF"/>
<path d="M154.628 110.941C142.244 108.093 133.119 99.1362 130.813 87.5654C129.223 79.5903 131.486 69.7624 136.884 61.282C142.523 52.4135 150.651 46.3498 159.19 44.6434L160.362 50.5167C153.42 51.9008 146.704 56.9979 141.937 64.497C137.352 71.7104 135.39 79.8979 136.686 86.401C138.524 95.6284 145.921 102.798 155.976 105.112L154.635 110.949L154.628 110.941Z" fill="#91BAFF"/>
<path d="M161.8 35.0119C165.767 33.6594 169.98 34.7158 172.834 37.4012L167.681 39.1557C165.003 40.0735 163.567 42.9845 164.484 45.6619C165.402 48.3394 168.313 49.7761 170.991 48.8583L176.144 47.1038C175.525 50.9741 172.838 54.3869 168.871 55.7394C163.144 57.691 156.924 54.6381 154.972 48.911C153.02 43.1839 156.073 36.9635 161.8 35.0119Z" fill="#33D48D"/>
<path d="M176.178 36.028L170.689 38.2184L169.838 44.0646L174.476 47.7205L179.965 45.5301L180.816 39.6839L176.178 36.028ZM176.425 44.623C174.909 45.2311 173.194 44.4897 172.586 42.9737C171.978 41.4578 172.72 39.7349 174.235 39.134C175.751 38.526 177.467 39.2674 178.075 40.7833C178.683 42.2993 177.94 44.0222 176.425 44.623Z" fill="#4385F5"/>
<path d="M160.265 47.7036C160.434 46.9493 159.958 46.2023 159.204 46.0339C158.449 45.8654 157.702 46.3415 157.534 47.0958C157.365 47.8501 157.841 48.597 158.596 48.7655C159.35 48.9339 160.097 48.4579 160.265 47.7036Z" fill="white"/>
<path d="M147.429 113.702L153.141 114.975L156.582 99.5276L150.871 98.2551L147.429 113.702Z" fill="#4385F5"/>
<path d="M148.804 120.996L154.516 122.268L160.924 93.5047L155.213 92.2323L148.804 120.996Z" fill="#91BAFF"/>
<path d="M212.269 173.98L155.169 161.26C152.437 156.961 150.907 154.552 148.168 150.253L160.808 93.4899C165.107 90.7584 167.516 89.2278 171.815 86.4889L228.915 99.2095C231.646 103.508 233.177 105.918 235.916 110.216L223.276 166.979C218.977 169.711 216.568 171.242 212.269 173.98Z" fill="#33D48D"/>
<path d="M227.69 107.589L169.369 94.5951L156.376 152.916L214.697 165.91L227.69 107.589Z" fill="#77FFC3"/>
<path d="M228.922 99.2168L227.699 107.573L235.923 110.224L228.922 99.2168Z" fill="#33D48D"/>
<path d="M171.821 86.4962L169.383 94.5811L160.814 93.4973L171.821 86.4962Z" fill="#33D48D"/>
<path d="M155.169 161.267L156.392 152.904L148.168 150.253L155.169 161.267Z" fill="#33D48D"/>
<path d="M212.268 173.98L214.714 165.896L223.282 166.987L212.268 173.98Z" fill="#33D48D"/>
<path d="M178.361 100.491L172.363 106.877L174.89 115.262L183.414 117.261L189.412 110.875L186.885 102.49L178.361 100.491ZM184.081 111.879C182.426 113.644 179.65 113.732 177.892 112.069C176.127 110.414 176.04 107.639 177.702 105.881C179.364 104.123 182.133 104.028 183.89 105.691C185.648 107.353 185.743 110.121 184.081 111.879Z" fill="#33D48D"/>
<path d="M199.283 108.62L195.453 112.699L197.072 118.052L202.52 119.334L206.35 115.255L204.732 109.901L199.283 108.62ZM202.938 115.892C201.883 117.02 200.111 117.071 198.983 116.016C197.855 114.962 197.804 113.19 198.858 112.062C199.913 110.934 201.685 110.883 202.813 111.937C203.941 112.992 203.992 114.764 202.938 115.892Z" fill="#33D48D"/>
<path d="M212.986 112.274L209.156 116.353L210.775 121.707L216.223 122.988L220.053 118.909L218.435 113.556L212.986 112.274ZM216.641 119.546C215.586 120.674 213.814 120.725 212.686 119.671C211.558 118.616 211.507 116.844 212.562 115.716C213.616 114.588 215.388 114.537 216.516 115.592C217.644 116.646 217.695 118.419 216.641 119.546Z" fill="#33D48D"/>
<path d="M194.635 86.3459L208.316 89.394L209.052 86.0916L195.371 83.0435L194.635 86.3459Z" fill="#33D48D"/>
<path d="M193.727 90.444L207.408 93.4922L208.144 90.1898L194.463 87.1416L193.727 90.444Z" fill="#33D48D"/>
<path d="M218.422 72.4128L192.682 66.6781L191.073 73.8976L216.813 79.6324L218.422 72.4128Z" fill="#4385F5"/>
<path d="M216.38 73.1284L194.221 68.1915L193.096 73.238L215.255 78.1749L216.38 73.1284Z" fill="#90B9FF"/>
<path d="M195.669 68.9284L194.797 68.7341L194.048 72.0937L194.92 72.288L195.669 68.9284Z" fill="#4385F5"/>
<path d="M196.624 70.0692L195.752 69.8749L195.003 73.2345L195.876 73.4288L196.624 70.0692Z" fill="#4385F5"/>
<path d="M197.972 69.4471L197.1 69.2528L196.351 72.6123L197.223 72.8066L197.972 69.4471Z" fill="#4385F5"/>
<path d="M198.933 70.5805L198.061 70.3862L197.312 73.7458L198.184 73.9401L198.933 70.5805Z" fill="#4385F5"/>
<path d="M200.292 69.9344L199.42 69.7403L198.672 73.1L199.544 73.2941L200.292 69.9344Z" fill="#4385F5"/>
<path d="M201.253 71.0751L200.381 70.881L199.633 74.2407L200.505 74.4348L201.253 71.0751Z" fill="#4385F5"/>
<path d="M202.601 70.4527L201.729 70.2586L200.981 73.6183L201.853 73.8124L202.601 70.4527Z" fill="#4385F5"/>
<path d="M203.546 71.5845L202.674 71.3903L201.926 74.7501L202.798 74.9442L203.546 71.5845Z" fill="#4385F5"/>
<path d="M204.89 70.9795L204.018 70.7852L203.269 74.1448L204.141 74.3391L204.89 70.9795Z" fill="#4385F5"/>
<path d="M205.851 72.113L204.979 71.9187L204.23 75.2783L205.102 75.4726L205.851 72.113Z" fill="#4385F5"/>
<path d="M207.185 71.4966L206.312 71.3023L205.564 74.6619L206.436 74.8562L207.185 71.4966Z" fill="#4385F5"/>
<path d="M208.146 72.6301L207.273 72.4358L206.525 75.7954L207.397 75.9897L208.146 72.6301Z" fill="#4385F5"/>
<path d="M209.507 71.9898L208.635 71.7956L207.887 75.1554L208.759 75.3495L209.507 71.9898Z" fill="#4385F5"/>
<path d="M210.468 73.1231L209.596 72.929L208.848 76.2887L209.72 76.4829L210.468 73.1231Z" fill="#4385F5"/>
<path d="M211.815 72.5008L210.943 72.3066L210.195 75.6663L211.068 75.8605L211.815 72.5008Z" fill="#4385F5"/>
<path d="M212.769 73.6414L211.896 73.4473L211.149 76.807L212.021 77.0012L212.769 73.6414Z" fill="#4385F5"/>
<path d="M214.11 73.0307L213.238 72.8364L212.49 76.1959L213.362 76.3902L214.11 73.0307Z" fill="#4385F5"/>
<path d="M214.232 74.8521L215.14 75.0572L215.023 75.9213C215.133 75.8408 215.213 75.7236 215.243 75.5771L215.426 74.7496C215.499 74.4274 215.294 74.1051 214.972 74.0319L214.818 73.9953C214.496 73.9221 214.173 74.1271 214.1 74.4493L213.917 75.2769C213.888 75.4233 213.91 75.5625 213.976 75.6796L214.232 74.8521Z" fill="#4385F5"/>
<path d="M215.016 75.2183L214.262 75.0498L213.236 78.4845L214.474 78.7628L215.009 75.2183H215.016ZM213.602 78.1476L213.815 77.6423L214.32 77.7521L214.298 78.3014L213.61 78.1476H213.602Z" fill="#4385F5"/>
<path d="M207.282 61.3186L201.643 66.9136L210.006 68.7811L207.282 61.3186Z" fill="#4385F5"/>
<path d="M201.679 51.829L196.686 55.0031L197.514 56.3072L202.508 53.1331L201.679 51.829Z" fill="white"/>
<path d="M197.367 51.9739L200.541 56.9678L201.845 56.1389L198.671 51.145L197.367 51.9739Z" fill="white"/>
<path d="M198.545 58.7701C195.946 58.1916 194.305 55.6064 194.884 53.0067C195.462 50.4069 198.047 48.7665 200.647 49.345C203.247 49.9236 204.887 52.5087 204.309 55.1085C203.73 57.7082 201.145 59.3487 198.545 58.7701ZM200.537 49.8357C198.208 49.3157 195.894 50.7877 195.374 53.1165C194.854 55.4453 196.326 57.7595 198.655 58.2795C200.984 58.7994 203.298 57.3274 203.818 54.9986C204.338 52.6698 202.866 50.3556 200.537 49.8357Z" fill="white"/>
<path d="M198.253 60.0883C194.928 59.3487 192.827 56.0385 193.566 52.7137C194.306 49.389 197.616 47.2872 200.941 48.0268C204.266 48.7665 206.367 52.0766 205.628 55.4014C204.888 58.7262 201.578 60.828 198.253 60.0883ZM200.831 48.5102C197.777 47.8291 194.731 49.7624 194.049 52.8163C193.368 55.8701 195.302 58.9166 198.356 59.5903C201.409 60.2714 204.456 58.338 205.13 55.2842C205.811 52.2304 203.877 49.1839 200.824 48.5102H200.831Z" fill="white"/>
<path d="M219.402 55.778L214.408 58.9521L215.237 60.2562L220.231 57.0821L219.402 55.778Z" fill="white"/>
<path d="M215.09 55.9187L218.264 60.9126L219.568 60.0837L216.394 55.0898L215.09 55.9187Z" fill="white"/>
<path d="M216.266 62.7174C213.666 62.1388 212.026 59.5537 212.604 56.9539C213.183 54.3542 215.768 52.7137 218.368 53.2923C220.968 53.8708 222.608 56.456 222.029 59.0557C221.451 61.6555 218.866 63.2959 216.266 62.7174ZM218.258 53.7829C215.929 53.263 213.615 54.735 213.095 57.0638C212.575 59.3926 214.047 61.7068 216.376 62.2267C218.705 62.7467 221.019 61.2747 221.539 58.9459C222.059 56.6171 220.587 54.3029 218.258 53.7829Z" fill="white"/>
<path d="M215.974 64.0356C212.649 63.2959 210.547 59.9858 211.287 56.661C212.027 53.3362 215.337 51.2344 218.661 51.9741C221.986 52.7137 224.095 56.0239 223.348 59.3487C222.609 62.6735 219.299 64.7752 215.974 64.0356ZM218.552 52.4574C215.498 51.7764 212.451 53.7097 211.778 56.7635C211.096 59.8174 213.03 62.8639 216.084 63.5376C219.137 64.2187 222.184 62.2853 222.865 59.2315C223.546 56.1777 221.613 53.1312 218.559 52.4574H218.552Z" fill="white"/>
<path d="M233.784 63.6581L231.297 63.1039L229.322 71.9675L231.81 72.5217L233.784 63.6581Z" fill="#4385F5"/>
<path d="M233.386 59.5623L230.898 59.0081L227.223 75.5058L229.71 76.06L233.386 59.5623Z" fill="#91BAFF"/>
<path d="M180.63 61.0949L183.117 61.6491L185.092 52.7855L182.604 52.2313L180.63 61.0949Z" fill="#4385F5"/>
<path d="M181.026 65.1896L183.514 65.7438L187.189 49.2461L184.702 48.6919L181.026 65.1896Z" fill="#91BAFF"/>
<path d="M212.811 37.9719L211.866 37.7595C213.243 37.5691 214.861 36.7929 215.301 36.1118C215.557 35.7163 215.623 35.3062 215.506 34.8815C214.319 34.984 213.06 34.9327 211.829 34.7204C211.632 34.6837 211.419 34.6398 211.251 34.508C211.038 34.3396 211.046 34.1565 211.068 34.0686C211.141 33.7757 211.566 33.5633 211.925 33.4901C213.47 33.1751 214.612 33.307 215.33 33.8855C215.52 34.0393 215.674 34.2297 215.791 34.4421C215.791 34.4421 215.806 34.4421 215.813 34.4421C216.758 34.3322 217.446 34.1272 217.908 33.8196C218.45 33.4608 218.662 32.9188 218.45 32.4428C218.428 32.3916 218.398 32.3476 218.369 32.2964C217.014 32.7504 215.205 32.831 212.965 32.5307C212.796 32.5087 212.606 32.4868 212.408 32.4721C211.405 32.3696 210.372 32.2671 210.211 31.7032C210.204 31.4176 210.306 31.2125 210.504 31.0441C211.287 30.385 213.484 30.4289 214.729 30.5168C215.454 30.568 216.297 30.6559 217.08 30.9342C217.673 31.1466 218.171 31.4468 218.508 31.7984C218.618 31.7544 218.721 31.7105 218.823 31.6592C219.636 31.2564 220.178 30.568 220.273 29.8137C220.302 29.6014 220.295 29.3451 220.215 29.0668C219.534 29.3084 218.765 29.3963 218.084 29.4476C215.872 29.6233 213.587 29.4988 211.309 29.0741C210.145 28.8544 209.479 28.4882 209.296 27.9756C209.098 27.419 209.581 26.9064 210.577 26.5988C212.437 26.0422 214.642 25.9763 216.773 26.4304C218.135 26.716 219.197 27.1847 219.878 27.8072C220.112 28.0195 220.302 28.2612 220.442 28.5102C221.108 28.166 221.54 27.5948 221.635 26.9064C221.745 26.1008 221.379 25.2879 220.632 24.6728C219.68 23.8892 218.164 23.3766 216.487 23.274L216.209 23.2594L216.275 23.0177C216.641 21.6922 216.677 20.2202 216.721 18.7922C216.751 17.6424 216.787 16.5585 216.97 15.5845L217.41 15.6724C217.227 16.6245 217.197 17.6937 217.168 18.8215C217.131 20.1836 217.088 21.597 216.773 22.9005C218.45 23.0543 219.951 23.5889 220.925 24.3945C221.774 25.0902 222.199 26.0569 222.082 26.9869C221.972 27.8145 221.445 28.5102 220.617 28.9057C220.727 29.2206 220.757 29.5501 220.713 29.887C220.603 30.7585 219.98 31.5567 219.05 32.0254C218.962 32.0693 218.867 32.1133 218.779 32.1499C218.809 32.2011 218.838 32.2597 218.867 32.311C219.16 32.9628 218.889 33.6878 218.186 34.1565C217.673 34.5007 216.941 34.7277 215.945 34.8449C216.077 35.3575 215.989 35.8701 215.689 36.3388C215.176 37.1224 214.1 37.7376 212.803 37.9792L212.811 37.9719ZM214.239 33.8123C213.55 33.6585 212.723 33.7537 212.056 33.8855C211.727 33.9514 211.514 34.1199 211.514 34.1784C211.624 34.2736 211.771 34.3029 211.903 34.3249C213.045 34.5153 214.224 34.5739 215.337 34.486C215.264 34.3688 215.169 34.2663 215.059 34.1784C214.832 33.9954 214.554 33.8782 214.246 33.8123H214.239ZM216.304 31.1246C215.769 31.0074 215.22 30.9562 214.729 30.9196C212.767 30.7804 211.317 30.9415 210.833 31.3443C210.724 31.4395 210.665 31.5494 210.665 31.6665C210.738 31.8862 211.851 32.0034 212.452 32.062C212.657 32.084 212.855 32.1059 213.023 32.1279C215.118 32.4062 216.817 32.3476 218.084 31.9522C217.805 31.6958 217.41 31.4688 216.948 31.3077C216.736 31.2345 216.524 31.1759 216.304 31.1246ZM216.817 26.8551C216.78 26.8478 216.743 26.8405 216.699 26.8332C214.642 26.3938 212.525 26.4523 210.746 26.9869C210.548 27.0455 209.552 27.3751 209.728 27.8657C209.845 28.2099 210.438 28.4955 211.383 28.6713C213.624 29.0887 215.857 29.2132 218.032 29.0375C218.684 28.9862 219.416 28.8983 220.053 28.6786C219.944 28.4809 219.79 28.2832 219.577 28.0854C218.984 27.5435 218.054 27.1261 216.817 26.8478V26.8551Z" fill="#33D48D"/>
<path d="M218.502 15.9214C218.649 15.2696 218.18 14.6105 217.455 14.4494C216.73 14.2883 216.027 14.6838 215.88 15.3356C215.734 15.9873 216.203 16.6464 216.928 16.8075C217.653 16.9686 218.356 16.5732 218.502 15.9214Z" fill="#33D48D"/>
<path d="M216.728 41.9851C217.314 39.3414 215.652 36.7196 213.008 36.1338C210.364 35.5479 207.743 37.2103 207.157 39.854C206.571 42.4977 216.142 44.6288 216.728 41.9851Z" fill="#00D595"/>
<path d="M236.669 41.077C236.581 41.077 236.493 41.0257 236.442 40.9452C234.962 38.7994 235.167 35.6944 236.918 33.7097C237.98 32.516 239.525 31.813 241.129 31.6958C241.143 31.6446 241.158 31.5933 241.172 31.5494C241.868 29.345 243.706 27.1041 246.233 27.0602C247.097 27.0455 248.012 27.2945 249.038 27.8218C249.799 26.2253 251.088 25.0682 252.582 24.6947C254.289 24.2627 256.28 24.8705 257.782 26.2839C259.276 27.69 260.096 29.638 260.579 30.9781C261.341 33.0873 261.839 35.2916 262.059 37.5325C262.073 37.7009 261.956 37.8401 261.788 37.8621C261.619 37.884 261.473 37.7595 261.458 37.5911C261.246 35.4014 260.755 33.2484 260.008 31.1832C259.547 29.9016 258.77 28.0415 257.364 26.716C256.01 25.4417 254.23 24.8851 252.721 25.266C251.418 25.5955 250.239 26.6647 249.558 28.1001C252.428 29.7698 254.494 32.6552 255.123 35.9214C255.233 36.4926 255.321 37.1663 255.109 37.8108C254.86 38.5724 254.245 39.129 253.38 39.3633C252.275 39.6636 250.986 39.378 250.165 38.653C248.686 37.3421 248.364 35.2403 248.254 33.556C248.152 32.0693 248.122 30.136 248.789 28.3564C247.829 27.8584 246.994 27.6241 246.226 27.6387C244.029 27.6753 242.366 29.7405 241.744 31.6665C242.527 31.6885 243.304 31.8496 244.029 32.1645C246.387 33.1971 247.99 35.7456 247.925 38.3674C247.895 39.5391 247.507 40.4838 246.826 41.0257C245.999 41.6775 244.702 41.7141 243.662 41.1209C242.857 40.6596 242.176 39.8467 241.641 38.7189C240.704 36.7343 240.462 34.4348 240.953 32.3037C239.583 32.4501 238.265 33.0726 237.357 34.1052C235.804 35.8555 235.614 38.7116 236.925 40.601C237.02 40.7401 236.984 40.9232 236.852 41.0184C236.793 41.055 236.727 41.077 236.661 41.0697L236.669 41.077ZM241.59 32.2817C241.077 34.3322 241.297 36.5585 242.198 38.4772C242.681 39.4952 243.274 40.2128 243.977 40.6156C244.812 41.0916 245.837 41.077 246.475 40.5717C247.2 40.0005 247.331 38.9459 247.346 38.3674C247.405 35.9873 245.947 33.6658 243.809 32.7284C243.106 32.4208 242.352 32.2744 241.59 32.2744V32.2817ZM249.338 28.6713C248.745 30.319 248.774 32.1352 248.869 33.534C248.979 35.1012 249.272 37.0565 250.583 38.2209C251.257 38.8141 252.326 39.0484 253.241 38.7994C253.908 38.6164 254.376 38.2063 254.559 37.6424C254.728 37.1224 254.647 36.5439 254.559 36.0459C253.974 33.0214 251.996 30.2458 249.345 28.664L249.338 28.6713Z" fill="#91BAFF"/>
<path d="M187.275 31.1905C186.908 31.1686 186.542 31.088 186.198 30.9489C185.312 30.5973 184.602 29.8797 184.199 29.0228C184.199 29.0228 184.192 29.0228 184.184 29.0228C182.771 29.0814 181.101 28.4809 180.545 27.0236C180.369 26.5549 180.317 26.0129 180.383 25.3685C179.358 25.2367 178.472 24.7387 177.959 23.9844C177.352 23.0836 177.286 21.8094 177.791 20.645C178.289 19.5025 179.219 18.6457 179.878 18.0964C180.911 17.2396 182.046 16.5146 183.261 15.9434C183.408 15.8702 183.591 15.9361 183.657 16.0825C183.73 16.229 183.664 16.4121 183.518 16.478C182.353 17.0346 181.255 17.7303 180.266 18.5578C179.651 19.0631 178.787 19.8614 178.34 20.8793C177.915 21.8533 177.959 22.9079 178.457 23.6402C178.867 24.248 179.614 24.6581 180.471 24.768C180.859 22.8493 182.06 21.1283 183.752 20.125C184.045 19.9492 184.433 19.7515 184.865 19.7369C185.378 19.7222 185.854 19.9785 186.183 20.4399C186.594 21.0258 186.703 21.846 186.447 22.4904C185.993 23.6182 184.865 24.2334 183.928 24.6435C183.137 24.995 182.09 25.3905 180.984 25.3978C180.918 25.9617 180.962 26.4231 181.108 26.8039C181.526 27.9097 182.851 28.4077 183.972 28.415C183.855 28.0049 183.803 27.5801 183.833 27.1481C183.935 25.5809 185.07 24.1309 186.586 23.6255C187.282 23.3985 187.926 23.4278 188.388 23.7207C188.966 24.0796 189.267 24.8339 189.127 25.5955C189.025 26.1594 188.703 26.7233 188.161 27.2726C187.267 28.166 186.081 28.7665 184.836 28.9569C185.188 29.6014 185.744 30.1286 186.41 30.3923C187.648 30.8829 189.215 30.4362 189.977 29.3743C190.072 29.2425 190.263 29.2059 190.394 29.3011C190.526 29.3963 190.563 29.5867 190.46 29.7185C189.743 30.7218 188.49 31.2638 187.267 31.1832L187.275 31.1905ZM187.568 24.0869C187.267 24.0649 186.974 24.1455 186.784 24.2041C185.488 24.6362 184.521 25.8665 184.433 27.1993C184.404 27.6021 184.462 28.0049 184.594 28.3857C185.773 28.2392 186.908 27.6973 187.751 26.8478C188.205 26.3938 188.476 25.9397 188.549 25.493C188.644 24.9804 188.446 24.4604 188.08 24.2334C187.926 24.1382 187.743 24.0942 187.568 24.0796V24.0869ZM184.975 20.3447C184.975 20.3447 184.924 20.3447 184.895 20.3447C184.602 20.352 184.309 20.5058 184.067 20.6523C182.573 21.5457 181.46 23.1056 181.086 24.8119C182.053 24.7753 182.976 24.4238 183.694 24.1089C184.528 23.7427 185.532 23.2081 185.898 22.2781C186.081 21.824 185.993 21.2162 185.7 20.7987C185.583 20.6376 185.349 20.374 184.975 20.352V20.3447Z" fill="#91BAFF"/>
<path d="M65.4348 205.698C64.8416 204.585 64.2338 203.501 63.6113 202.454L65.4348 205.698Z" fill="#33D48D"/>
<path d="M65.251 212.567L63.5886 202.417C60.4909 197.203 57.0709 192.787 54.1269 189.557C51.9665 192.772 52.5524 201.531 52.5524 201.531C51.3148 192.589 51.8274 189.762 51.4319 186.833C46.745 182.454 40.4177 180.711 35.2767 178.492C38.9017 188.766 39.202 191.454 39.202 191.454C37.5323 185.214 34.7274 181.179 33.0577 177.591C20.0662 172.589 14.2441 175.438 14.2441 175.438C15.101 179.89 18.2134 189.565 19.2899 193.314C24.9948 196.734 32.6183 199.788 32.6183 199.788C28.8395 199.239 23.6766 197.232 19.9856 195.643C21.6627 201.055 21.443 200.154 23.596 204.292C29.3302 208.012 40.3005 211.534 40.3005 211.534C35.7381 211.198 29.0665 208.92 25.3975 207.551C29.5206 214.522 34.3833 219.817 39.949 224.336C45.5074 225.764 51.3074 226.562 51.3074 226.562C48.7589 226.833 45.4561 226.613 42.3876 226.24C48.8761 231.11 56.2433 235.167 64.4015 239.744L72.1715 241.487L72.6476 230.231C72.2594 221.392 69.2862 212.984 65.4927 205.8L65.2583 212.567H65.251Z" fill="#4AB988"/>
<path d="M61.2389 224.05C63.0478 226.408 64.798 228.817 66.4311 231.329C68.0642 233.834 69.5582 236.463 70.708 239.268L70.5908 239.326C69.3678 236.573 67.8079 234.017 66.1162 231.578C64.4246 229.14 62.6157 226.804 60.7482 224.519C57.028 219.942 53.1174 215.555 49.1847 211.183C45.2594 206.811 41.217 202.541 37.4528 197.972C35.5707 195.687 33.7106 193.38 31.931 191C30.1441 188.627 28.4305 186.174 26.834 183.64L26.9365 183.552C30.6787 188.136 34.5235 192.574 38.4048 196.99C42.2935 201.392 46.087 205.917 49.9317 210.385C53.7691 214.859 57.6065 219.356 61.2389 224.05Z" fill="#FEF3F9"/>
<path d="M54.1213 242.717C54.2092 231.842 54.9122 227.258 54.1213 223.669C47.8672 219.019 41.0638 216.038 34.4729 214.178C40.0239 226.371 38.6545 234.991 38.6545 234.991C38.3542 226.166 34.0774 217.635 31.6314 213.446C15.0368 209.484 0.5 212.164 0.5 212.164C2.03057 217.576 3.65635 222.497 5.38465 226.987C12.7958 230.26 22.5505 232.735 22.5505 232.735C17.8196 232.706 11.2213 231.117 6.49047 229.769C9.13419 236.229 11.9976 241.758 15.088 246.555C22.5725 250.194 36.5161 252.669 36.5161 252.669C30.8405 253.05 22.3381 251.373 17.6658 250.304C23.4879 258.294 30.0642 264.043 37.4168 268.715C44.4399 269.528 51.6973 269.498 51.6973 269.498C48.5702 270.282 44.4692 270.582 40.6244 270.656C49.1634 275.599 58.6984 279.378 69.2659 283.662L79.0645 284.475L78.4786 270.341C75.769 249.14 67.706 235.423 57.7463 226.598C55.4102 230.985 54.1359 242.717 54.1359 242.717H54.1213Z" fill="#90B9FF"/>
<path d="M76.8744 282.065C75.0729 278.843 72.8759 275.921 70.5324 273.175C68.189 270.429 65.699 267.829 63.1579 265.302C58.0828 260.234 52.7807 255.445 47.4567 250.678C42.1399 245.903 36.6987 241.282 31.5651 236.243C28.9946 233.724 26.4534 231.161 24.0001 228.503C21.5395 225.852 19.1594 223.091 16.9258 220.198L17.043 220.066C22.1546 225.134 27.3688 230.004 32.6343 234.837C37.9071 239.656 43.07 244.636 48.2989 249.542C53.5131 254.456 58.7273 259.4 63.7144 264.628C66.197 267.258 68.6137 269.96 70.8986 272.809C73.1761 275.65 75.3072 278.675 77.0209 281.977L76.8817 282.073L76.8744 282.065Z" fill="#215BBC"/>
<path d="M343.971 123.42H339.189C338.413 120.315 337.19 117.393 335.586 114.72L338.969 111.337C340.09 110.216 340.09 108.393 338.969 107.272L332.012 100.315C330.892 99.1948 329.068 99.1948 327.948 100.315L324.564 103.699C321.891 102.095 318.969 100.865 315.864 100.096V95.3134C315.864 93.7243 314.575 92.4427 312.994 92.4427H303.151C301.562 92.4427 300.28 93.7316 300.28 95.3134V100.096C297.175 100.872 294.253 102.095 291.58 103.699L288.197 100.315C287.076 99.1948 285.253 99.1948 284.132 100.315L277.175 107.272C276.055 108.393 276.055 110.216 277.175 111.337L280.559 114.72C278.955 117.393 277.725 120.315 276.956 123.42H272.173C270.584 123.42 269.303 124.709 269.303 126.291V136.134C269.303 137.723 270.592 139.004 272.173 139.004H276.956C277.732 142.109 278.955 145.031 280.559 147.704L277.175 151.088C276.055 152.208 276.055 154.032 277.175 155.152L284.132 162.109C285.253 163.23 287.076 163.23 288.197 162.109L291.58 158.726C294.253 160.33 297.175 161.56 300.28 162.329V167.111C300.28 168.7 301.569 169.982 303.151 169.982H312.994C314.583 169.982 315.864 168.693 315.864 167.111V162.329C318.969 161.553 321.891 160.33 324.564 158.726L327.948 162.109C329.068 163.23 330.892 163.23 332.012 162.109L338.969 155.152C340.09 154.032 340.09 152.208 338.969 151.088L335.586 147.704C337.19 145.031 338.42 142.109 339.189 139.004H343.971C345.56 139.004 346.842 137.715 346.842 136.134V126.291C346.842 124.702 345.553 123.42 343.971 123.42ZM308.065 150.634C297.344 150.634 288.644 141.941 288.644 131.212C288.644 120.484 297.336 111.791 308.065 111.791C318.794 111.791 327.486 120.484 327.486 131.212C327.486 141.941 318.794 150.634 308.065 150.634Z" fill="#91BAFF"/>
<path d="M359.15 233.145C360.359 232.084 361.53 231.007 362.651 229.909L359.15 233.145Z" fill="#90B9FF"/>
<path d="M350.428 234.405L362.702 229.865C368.275 224.431 372.735 218.726 375.855 213.944C371.102 211.666 360.234 214.412 360.234 214.412C371.124 210.729 374.844 210.817 378.418 209.623C382.424 202.175 382.563 193.036 383.691 185.434C371.9 192.706 368.605 193.724 368.605 193.724C375.935 190.04 380.117 185.273 384.108 182.168C386.195 163.091 380.71 155.665 380.71 155.665C375.372 157.833 364.174 164.27 359.788 166.584C357.32 175.225 355.95 186.445 355.95 186.445C355.416 181.099 356.265 173.519 357.078 168.056C350.795 171.571 351.856 171.073 347.331 174.954C344.496 183.706 343.618 199.663 343.618 199.663C342.556 193.277 343.266 183.545 343.801 178.177C336.338 185.412 331.241 193.314 327.345 201.999C327.345 210.004 328.231 218.199 328.231 218.199C327.06 214.735 326.269 210.121 325.741 205.786C321.706 215.841 318.975 226.913 315.848 239.209L316.17 250.341L330.531 248.517C341.56 246.035 351.205 240.066 359.041 233.233L350.421 234.398L350.428 234.405Z" fill="#90B9FF"/>
<path d="M334.626 231.388C332.239 234.405 329.763 237.364 327.127 240.169C324.498 242.981 321.664 245.624 318.493 247.836L318.383 247.682C321.459 245.383 324.183 242.666 326.702 239.788C329.229 236.91 331.594 233.892 333.872 230.809C338.441 224.658 342.704 218.272 346.944 211.879C351.191 205.485 355.263 198.953 359.803 192.743C362.074 189.638 364.381 186.555 366.812 183.567C369.229 180.571 371.762 177.657 374.45 174.896L374.597 175.02C370.034 181.209 365.677 187.499 361.363 193.841C357.065 200.191 352.597 206.43 348.211 212.743C343.809 219.041 339.379 225.332 334.633 231.395L334.626 231.388Z" fill="#215BBC"/>
<path d="M339.386 207.58C338.829 208.598 338.243 209.616 337.614 210.634L339.386 207.58ZM337.562 210.722C333.52 217.269 327.998 223.596 320.741 227.763L310.986 232.186L308.32 224.38C307.844 215.006 307.354 206.569 308.013 198.579C309.331 201.531 310.898 204.614 312.487 206.811C312.487 206.811 310.071 201.209 308.32 195.548C309.177 188.554 311.052 181.853 314.75 175.101C315.548 179.019 317.167 186.057 319.313 190.341C319.313 190.341 316.449 178.865 316.537 172.054C318.888 168.32 318.251 168.905 321.92 165.046C322.535 169.081 323.597 174.632 325.142 178.294C325.142 178.294 323.663 170.062 323.516 163.406C326.109 160.806 332.626 153.812 335.929 151.11C335.929 151.11 341.429 155.167 344.124 169.11C341.986 172.179 340.067 176.463 335.688 180.674C335.688 180.674 337.797 179.239 344.549 171.513C345.413 177.137 347.31 183.625 346.109 189.77C343.846 191.388 341.187 192.15 334.296 197.129C334.296 197.129 341.385 192.816 345.245 193.387C344.08 197.452 342.176 202.454 339.422 207.521L331.733 213.409L337.577 210.7L337.562 210.722ZM325.413 198.594C327.134 193.175 328.936 187.785 330.591 182.351C332.253 176.924 333.959 171.52 335.841 166.152L335.71 166.093C334.413 168.634 333.256 171.242 332.202 173.893C331.14 176.536 330.173 179.224 329.25 181.912C327.398 187.302 325.948 192.801 324.336 198.257C322.733 203.706 321.122 209.154 319.225 214.508C318.287 217.181 317.277 219.839 316.12 222.424C314.963 225.009 313.637 227.529 311.96 229.828L312.07 229.916C313.828 227.66 315.256 225.17 316.501 222.607C317.753 220.044 318.851 217.415 319.884 214.757C321.912 209.433 323.67 204.013 325.406 198.601L325.413 198.594Z" fill="#33D48D"/>
<path d="M347.046 264.965C357.489 268.356 361.664 270.494 365.384 270.729C371.967 265.441 377.123 259.063 381.136 252.574C367.53 254.83 359.694 250.751 359.694 250.751C368.284 253.102 377.943 251.11 382.799 249.762C392.202 233.197 394.516 216.829 394.516 216.829C388.796 216.829 383.509 217.078 378.602 217.561C372.956 224.504 367.288 234.193 367.288 234.193C368.906 229.132 372.663 222.563 375.549 217.898C368.445 218.77 362.154 220.161 356.501 222.021C350.474 228.927 343.399 243.098 343.399 243.098C344.944 236.902 349.419 228.319 352.019 223.64C342.367 227.455 334.619 232.75 327.647 239.209C324.498 246.481 322.081 254.259 322.081 254.259C322.374 250.678 323.472 246.196 324.695 242.058C317.065 249.704 310.21 258.755 302.528 268.773L298.441 279.011L312.246 282.666C333.564 286.181 349.485 281.714 361.334 273.724C357.899 269.894 347.032 264.973 347.032 264.973L347.046 264.965Z" fill="#33D48D"/>
<path d="M301.51 277.4C305.216 276.448 308.768 274.984 312.202 273.299C315.637 271.622 318.976 269.747 322.265 267.792C328.855 263.896 335.249 259.671 341.627 255.423C348.013 251.183 354.289 246.752 360.873 242.783C364.161 240.798 367.479 238.85 370.869 237.034C374.253 235.203 377.709 233.497 381.239 231.981L381.32 232.15C374.721 236.082 368.277 240.191 361.847 244.357C355.432 248.539 348.899 252.56 342.418 256.668C335.93 260.762 329.419 264.848 322.704 268.598C319.343 270.458 315.923 272.23 312.415 273.805C308.914 275.386 305.289 276.749 301.532 277.583L301.488 277.4H301.51Z" fill="#FDEAB1"/>
<path d="M134.304 125.603H126.681C125.443 120.652 123.488 115.98 120.924 111.718L126.322 106.32C128.109 104.534 128.109 101.626 126.322 99.8393L115.22 88.7371C113.433 86.9502 110.525 86.9502 108.738 88.7371L103.341 94.1344C99.079 91.5713 94.414 89.6159 89.4561 88.3783V80.7547C89.4561 78.2209 87.4056 76.1703 84.8717 76.1703H69.1632C66.6294 76.1703 64.5788 78.2209 64.5788 80.7547V88.3783C59.6283 89.6159 54.956 91.5713 50.6938 94.1344L45.2966 88.7371C43.5097 86.9502 40.6023 86.9502 38.8154 88.7371L27.7133 99.8393C25.9264 101.626 25.9264 104.534 27.7133 106.32L33.1106 111.718C30.5474 115.98 28.5921 120.645 27.3544 125.603H19.7309C17.197 125.603 15.1465 127.653 15.1465 130.187V145.896C15.1465 148.429 17.197 150.48 19.7309 150.48H27.3544C28.5921 155.431 30.5474 160.103 33.1106 164.365L27.7133 169.762C25.9264 171.549 25.9264 174.457 27.7133 176.243L38.8154 187.346C40.6023 189.132 43.5097 189.132 45.2966 187.346L50.6938 181.948C54.956 184.511 59.621 186.467 64.5788 187.704V195.328C64.5788 197.862 66.6294 199.912 69.1632 199.912H84.8717C87.4056 199.912 89.4561 197.862 89.4561 195.328V187.704C94.4067 186.467 99.079 184.511 103.341 181.948L108.738 187.346C110.525 189.132 113.433 189.132 115.22 187.346L126.322 176.243C128.109 174.457 128.109 171.549 126.322 169.762L120.924 164.365C123.488 160.103 125.443 155.438 126.681 150.48H134.304C136.838 150.48 138.889 148.429 138.889 145.896V130.187C138.889 127.653 136.838 125.603 134.304 125.603ZM77.0212 169.015C59.9139 169.015 46.0435 155.145 46.0435 138.038C46.0435 120.93 59.9139 107.06 77.0212 107.06C94.1284 107.06 107.999 120.93 107.999 138.038C107.999 155.145 94.1284 169.015 77.0212 169.015Z" fill="#33D48D"/>
<path d="M72.9232 123.223H303.886C310.88 123.223 316.563 128.905 316.563 135.899V284.482H60.2539V135.899C60.2539 128.905 65.9368 123.223 72.9306 123.223H72.9232Z" fill="#4385F5"/>
<path d="M304.399 135.028H72.418V270.56H304.399V135.028Z" fill="#91BAFF"/>
<path d="M363.585 324.248H13.2227L60.253 284.482H316.562L363.585 324.248Z" fill="#90B9FF"/>
<path d="M13.2227 324.248H363.585V326.855C363.585 333.761 357.975 339.363 351.076 339.363H25.7382C18.8323 339.363 13.23 333.753 13.23 326.855V324.248H13.2227Z" fill="#4385F5"/>
<path d="M93.6249 295.24H79.4396C79.0002 295.24 78.7805 294.698 79.1028 294.398L83.5334 290.209C83.6212 290.121 83.7457 290.077 83.8702 290.077H97.4257C97.8504 290.077 98.0701 290.582 97.7845 290.89L93.991 295.079C93.8958 295.181 93.764 295.24 93.6322 295.24H93.6249Z" fill="#FEF3F9"/>
<path d="M116.094 295.24H101.769C101.352 295.24 101.132 294.757 101.396 294.442L104.911 290.253C105.006 290.143 105.138 290.077 105.284 290.077H118.979C119.374 290.077 119.601 290.516 119.382 290.839L116.504 295.028C116.416 295.159 116.262 295.24 116.101 295.24H116.094Z" fill="#FEF3F9"/>
<path d="M138.54 295.24H124.099C123.718 295.24 123.483 294.823 123.681 294.493L126.281 290.304C126.369 290.158 126.53 290.07 126.698 290.07H140.503C140.862 290.07 141.096 290.443 140.942 290.765L138.972 294.954C138.892 295.123 138.723 295.233 138.533 295.233L138.54 295.24Z" fill="#FEF3F9"/>
<path d="M160.978 295.24H146.449C146.105 295.24 145.87 294.888 145.995 294.566L147.679 290.377C147.752 290.194 147.935 290.07 148.133 290.07H162.026C162.34 290.07 162.575 290.37 162.502 290.677L161.447 294.866C161.396 295.086 161.198 295.233 160.971 295.233L160.978 295.24Z" fill="#FEF3F9"/>
<path d="M183.388 295.24H168.815C168.507 295.24 168.28 294.962 168.331 294.661L169.108 290.472C169.152 290.238 169.349 290.07 169.591 290.07H183.527C183.806 290.07 184.025 290.297 184.018 290.575L183.879 294.764C183.872 295.028 183.652 295.233 183.388 295.233V295.24Z" fill="#FEF3F9"/>
<path d="M205.776 295.24H191.202C190.939 295.24 190.726 295.035 190.712 294.771L190.572 290.582C190.565 290.304 190.785 290.077 191.063 290.077H204.999C205.234 290.077 205.439 290.245 205.483 290.48L206.259 294.669C206.318 294.969 206.083 295.247 205.776 295.247V295.24Z" fill="#FEF3F9"/>
<path d="M228.148 295.24H213.619C213.392 295.24 213.201 295.086 213.143 294.874L212.088 290.685C212.008 290.377 212.242 290.077 212.564 290.077H226.457C226.654 290.077 226.837 290.201 226.911 290.385L228.595 294.574C228.727 294.896 228.485 295.247 228.141 295.247L228.148 295.24Z" fill="#FEF3F9"/>
<path d="M250.492 295.24H236.05C235.86 295.24 235.691 295.13 235.611 294.962L233.641 290.773C233.487 290.45 233.729 290.077 234.08 290.077H247.885C248.053 290.077 248.207 290.165 248.302 290.311L250.902 294.5C251.107 294.822 250.873 295.247 250.485 295.247L250.492 295.24Z" fill="#FEF3F9"/>
<path d="M272.828 295.24H258.503C258.342 295.24 258.196 295.159 258.101 295.028L255.222 290.839C255.003 290.516 255.23 290.077 255.625 290.077H269.32C269.466 290.077 269.598 290.143 269.693 290.253L273.209 294.442C273.472 294.757 273.252 295.24 272.835 295.24H272.828Z" fill="#FEF3F9"/>
<path d="M295.156 295.24H280.971C280.832 295.24 280.7 295.181 280.612 295.079L276.819 290.89C276.533 290.575 276.76 290.077 277.178 290.077H290.733C290.858 290.077 290.975 290.128 291.07 290.209L295.501 294.398C295.823 294.698 295.603 295.24 295.164 295.24H295.156Z" fill="#FEF3F9"/>
<path d="M86.5378 303.069H71.1662C70.7268 303.069 70.5071 302.527 70.8293 302.226L76.0948 297.247C76.1827 297.159 76.3072 297.115 76.4317 297.115H91.049C91.4737 297.115 91.6934 297.62 91.4078 297.928L86.8967 302.907C86.8015 303.01 86.6696 303.069 86.5378 303.069Z" fill="#FEF3F9"/>
<path d="M110.712 303.069H95.2009C94.7834 303.069 94.5637 302.585 94.8274 302.27L99.0017 297.29C99.0969 297.181 99.2287 297.115 99.3752 297.115H114.132C114.527 297.115 114.754 297.554 114.534 297.876L111.114 302.856C111.027 302.988 110.873 303.069 110.712 303.069Z" fill="#FEF3F9"/>
<path d="M134.863 303.069H119.235C118.854 303.069 118.62 302.651 118.818 302.322L121.908 297.342C121.996 297.195 122.157 297.107 122.326 297.107H137.199C137.558 297.107 137.793 297.481 137.639 297.803L135.303 302.783C135.222 302.951 135.054 303.061 134.863 303.061V303.069Z" fill="#FEF3F9"/>
<path d="M78.2911 312.186H61.5353C61.0959 312.186 60.8762 311.644 61.1985 311.344L67.5038 305.375C67.5917 305.288 67.7162 305.244 67.8407 305.244H83.6884C84.1131 305.244 84.3328 305.749 84.0472 306.056L78.6426 312.025C78.5474 312.127 78.4156 312.186 78.2838 312.186H78.2911Z" fill="#FEF3F9"/>
<path d="M104.443 312.186H87.5485C87.1311 312.186 86.9114 311.703 87.175 311.388L92.1842 305.419C92.2794 305.309 92.4112 305.244 92.5577 305.244H108.544C108.94 305.244 109.167 305.683 108.947 306.005L104.846 311.974C104.758 312.106 104.605 312.186 104.443 312.186Z" fill="#FEF3F9"/>
<path d="M130.588 312.186H113.583C113.202 312.186 112.968 311.769 113.165 311.439L116.871 305.471C116.959 305.324 117.12 305.236 117.289 305.236H133.392C133.751 305.236 133.986 305.61 133.832 305.932L131.034 311.9C130.954 312.069 130.785 312.179 130.595 312.179L130.588 312.186Z" fill="#FEF3F9"/>
<path d="M159.009 303.069H143.3C142.956 303.069 142.722 302.717 142.846 302.395L144.853 297.415C144.926 297.232 145.109 297.107 145.307 297.107H160.261C160.576 297.107 160.81 297.408 160.737 297.715L159.485 302.695C159.434 302.915 159.236 303.061 159.009 303.061V303.069Z" fill="#FEF3F9"/>
<path d="M234.965 312.186H139.623C139.278 312.186 139.044 311.835 139.169 311.512L141.571 305.544C141.644 305.361 141.827 305.236 142.025 305.236H232.563C232.761 305.236 232.944 305.361 233.017 305.544L235.419 311.512C235.551 311.835 235.309 312.186 234.965 312.186Z" fill="#FEF3F9"/>
<path d="M183.125 303.069H167.366C167.058 303.069 166.831 302.79 166.882 302.49L167.805 297.51C167.849 297.276 168.047 297.107 168.288 297.107H183.294C183.572 297.107 183.792 297.334 183.784 297.613L183.616 302.593C183.609 302.856 183.389 303.061 183.125 303.061V303.069Z" fill="#FEF3F9"/>
<path d="M207.226 303.069H191.466C191.202 303.069 190.99 302.856 190.975 302.6L190.807 297.62C190.799 297.342 191.019 297.115 191.297 297.115H206.303C206.537 297.115 206.742 297.283 206.786 297.517L207.709 302.497C207.768 302.798 207.533 303.076 207.226 303.076V303.069Z" fill="#FEF3F9"/>
<path d="M231.298 303.069H215.59C215.363 303.069 215.173 302.915 215.114 302.702L213.862 297.723C213.781 297.415 214.015 297.115 214.338 297.115H229.292C229.49 297.115 229.673 297.239 229.746 297.422L231.753 302.402C231.884 302.724 231.643 303.076 231.298 303.076V303.069Z" fill="#FEF3F9"/>
<path d="M255.355 303.069H239.727C239.537 303.069 239.368 302.959 239.288 302.79L236.952 297.81C236.798 297.488 237.039 297.115 237.391 297.115H252.265C252.433 297.115 252.587 297.203 252.682 297.349L255.772 302.329C255.977 302.651 255.743 303.076 255.355 303.076V303.069Z" fill="#FEF3F9"/>
<path d="M279.396 303.069H263.885C263.724 303.069 263.577 302.988 263.482 302.856L260.062 297.876C259.843 297.554 260.07 297.115 260.465 297.115H275.222C275.368 297.115 275.5 297.181 275.595 297.29L279.769 302.27C280.033 302.585 279.813 303.069 279.396 303.069Z" fill="#FEF3F9"/>
<path d="M283.775 308.29H267.473C267.312 308.29 267.166 308.21 267.07 308.078L265.642 305.998C265.423 305.676 265.65 305.236 266.045 305.236H282.032C282.178 305.236 282.31 305.302 282.405 305.412L284.148 307.492C284.412 307.807 284.192 308.29 283.775 308.29Z" fill="#FEF3F9"/>
<path d="M287.042 312.186H270.147C269.986 312.186 269.84 312.106 269.745 311.974L268.148 309.652C267.929 309.33 268.156 308.891 268.551 308.891H285.094C285.241 308.891 285.373 308.957 285.468 309.066L287.416 311.388C287.68 311.703 287.46 312.186 287.042 312.186Z" fill="#FEF3F9"/>
<path d="M313.061 312.186H296.305C296.166 312.186 296.034 312.127 295.946 312.025L293.844 309.703C293.559 309.389 293.786 308.891 294.203 308.891H310.607C310.732 308.891 310.849 308.942 310.944 309.022L313.397 311.344C313.72 311.644 313.5 312.186 313.061 312.186Z" fill="#FEF3F9"/>
<path d="M261.008 312.186H244.004C243.813 312.186 243.645 312.076 243.564 311.908L242.473 309.586C242.319 309.264 242.561 308.891 242.912 308.891H259.566C259.734 308.891 259.888 308.978 259.983 309.125L261.426 311.446C261.631 311.769 261.396 312.193 261.008 312.193V312.186Z" fill="#FEF3F9"/>
<path d="M303.426 303.069H288.054C287.915 303.069 287.783 303.01 287.695 302.907L283.184 297.928C282.898 297.613 283.125 297.115 283.543 297.115H298.16C298.285 297.115 298.402 297.166 298.497 297.247L303.763 302.226C304.085 302.527 303.865 303.069 303.426 303.069Z" fill="#FEF3F9"/>
<path d="M277.446 205.998C277.446 207.404 276.985 208.576 276.062 209.528C275.14 210.48 273.807 210.949 272.056 210.949H269.435V218.374C269.435 222.417 267.362 224.438 263.225 224.438C259.724 224.438 257.981 222.256 257.981 217.876V210.949H234.92C229.581 210.949 226.908 209.506 226.908 206.613C226.908 205.456 227.348 204.16 228.219 202.717C229.091 201.274 229.808 200.139 230.357 199.312L248.585 171.095C250.057 169.03 251.602 167.507 253.214 166.518C254.825 165.529 256.685 165.031 258.809 165.031C262.214 165.031 264.836 165.896 266.681 167.631C268.519 169.367 269.442 172.252 269.442 176.295V201.047H272.064C273.814 201.047 275.147 201.545 276.07 202.534C276.985 203.523 277.454 204.68 277.454 205.998H277.446ZM257.981 201.047V175.548L241.965 201.047H257.981Z" fill="#FEF3F9"/>
<path d="M149.896 205.998C149.896 207.404 149.434 208.576 148.511 209.528C147.589 210.48 146.256 210.949 144.506 210.949H141.884V218.374C141.884 222.417 139.811 224.438 135.674 224.438C132.173 224.438 130.43 222.256 130.43 217.876V210.949H107.369C102.03 210.949 99.3574 209.506 99.3574 206.613C99.3574 205.456 99.7968 204.16 100.668 202.717C101.54 201.274 102.257 200.139 102.807 199.312L121.034 171.095C122.506 169.03 124.052 167.507 125.663 166.518C127.274 165.529 129.134 165.031 131.258 165.031C134.663 165.031 137.285 165.896 139.13 167.631C140.968 169.367 141.891 172.252 141.891 176.295V201.047H144.513C146.263 201.047 147.596 201.545 148.519 202.534C149.434 203.523 149.903 204.68 149.903 205.998H149.896ZM130.43 201.047V175.548L114.414 201.047H130.43Z" fill="#FEF3F9"/>
<path d="M211.953 188.818H208.284C207.691 186.437 206.746 184.189 205.516 182.139L208.109 179.546C208.973 178.682 208.973 177.291 208.109 176.426L202.763 171.08C201.898 170.216 200.507 170.216 199.643 171.08L197.05 173.673C195 172.443 192.752 171.498 190.372 170.905V167.236C190.372 166.02 189.383 165.031 188.167 165.031H180.61C179.394 165.031 178.405 166.02 178.405 167.236V170.905C176.025 171.498 173.777 172.443 171.726 173.673L169.134 171.08C168.27 170.216 166.878 170.216 166.014 171.08L160.668 176.426C159.804 177.291 159.804 178.682 160.668 179.546L163.261 182.139C162.03 184.189 161.086 186.437 160.492 188.818H156.823C155.608 188.818 154.619 189.806 154.619 191.022V198.579C154.619 199.795 155.608 200.784 156.823 200.784H160.492C161.086 203.164 162.03 205.412 163.261 207.463L160.668 210.055C159.804 210.919 159.804 212.311 160.668 213.175L166.014 218.521C166.878 219.385 168.27 219.385 169.134 218.521L171.726 215.928C173.777 217.159 176.025 218.103 178.405 218.697V222.366C178.405 223.581 179.394 224.57 180.61 224.57H188.167C189.383 224.57 190.372 223.581 190.372 222.366V218.697C192.752 218.103 195 217.159 197.05 215.928L199.643 218.521C200.507 219.385 201.898 219.385 202.763 218.521L208.109 213.175C208.973 212.311 208.973 210.919 208.109 210.055L205.516 207.463C206.746 205.412 207.691 203.164 208.284 200.784H211.953C213.169 200.784 214.158 199.795 214.158 198.579V191.022C214.158 189.806 213.169 188.818 211.953 188.818ZM184.388 209.711C176.157 209.711 169.478 203.039 169.478 194.801C169.478 186.562 176.15 179.89 184.388 179.89C192.627 179.89 199.299 186.562 199.299 194.801C199.299 203.039 192.627 209.711 184.388 209.711Z" fill="#FEF3F9"/>
<path d="M237.006 170.663L235.08 170.495C234.882 169.22 234.494 167.997 233.938 166.862L235.417 165.625C235.908 165.214 235.973 164.482 235.563 163.991L233.015 160.945C232.605 160.454 231.872 160.388 231.382 160.799L229.902 162.036C228.884 161.296 227.749 160.696 226.534 160.271L226.702 158.345C226.761 157.708 226.285 157.144 225.648 157.086L221.686 156.734C221.049 156.675 220.485 157.151 220.426 157.789L220.258 159.715C218.983 159.912 217.76 160.301 216.625 160.857L215.388 159.378C214.977 158.887 214.245 158.821 213.754 159.231L210.708 161.78C210.217 162.19 210.151 162.922 210.562 163.413L211.799 164.892C211.06 165.91 210.459 167.045 210.034 168.261L208.108 168.093C207.471 168.034 206.907 168.51 206.849 169.147L206.497 173.109C206.438 173.746 206.914 174.31 207.552 174.369L209.478 174.537C209.675 175.811 210.064 177.034 210.62 178.169L209.141 179.407C208.65 179.817 208.584 180.549 208.994 181.04L211.543 184.087C211.953 184.577 212.685 184.643 213.176 184.233L214.655 182.995C215.673 183.735 216.808 184.336 218.024 184.76L217.856 186.686C217.797 187.324 218.273 187.887 218.91 187.946L222.872 188.298C223.509 188.356 224.073 187.88 224.132 187.243L224.3 185.317C225.574 185.119 226.797 184.731 227.932 184.175L229.17 185.654C229.58 186.144 230.312 186.21 230.803 185.8L233.85 183.252C234.34 182.842 234.406 182.109 233.996 181.619L232.758 180.139C233.498 179.121 234.099 177.986 234.523 176.771L236.449 176.939C237.087 176.998 237.65 176.522 237.709 175.885L238.061 171.923C238.119 171.285 237.643 170.722 237.006 170.663ZM221.59 180.33C217.277 179.949 214.091 176.141 214.472 171.827C214.853 167.514 218.661 164.328 222.975 164.709C227.288 165.09 230.474 168.898 230.093 173.212C229.712 177.525 225.904 180.711 221.59 180.33Z" fill="#FEF3F9"/>
<path d="M139.049 241.75C140.565 241.75 141.73 242.029 142.535 242.578C143.341 243.127 143.744 243.991 143.744 245.17C143.744 245.786 143.634 246.306 143.421 246.745C143.209 247.184 142.894 247.536 142.484 247.814C142.074 248.092 141.569 248.297 140.975 248.422C140.382 248.554 139.709 248.62 138.947 248.62H138.002V252.296H136.105V242.014C136.545 241.912 137.036 241.846 137.57 241.809C138.105 241.772 138.603 241.758 139.049 241.758V241.75ZM139.189 243.391C138.705 243.391 138.31 243.406 138.002 243.435V246.987H138.918C139.833 246.987 140.536 246.862 141.027 246.606C141.517 246.349 141.766 245.866 141.766 245.156C141.766 244.812 141.7 244.526 141.569 244.299C141.437 244.065 141.261 243.889 141.027 243.757C140.792 243.625 140.521 243.537 140.207 243.479C139.892 243.42 139.555 243.398 139.189 243.398V243.391Z" fill="#FEF3F9"/>
<path d="M147.751 244.218C148.352 244.218 148.857 244.292 149.274 244.445C149.684 244.599 150.014 244.804 150.263 245.075C150.512 245.346 150.688 245.676 150.79 246.064C150.893 246.452 150.951 246.877 150.951 247.338V252.113C150.673 252.171 150.248 252.245 149.677 252.333C149.113 252.42 148.469 252.457 147.758 252.457C147.29 252.457 146.858 252.413 146.462 252.318C146.074 252.23 145.737 252.084 145.459 251.879C145.181 251.681 144.968 251.417 144.814 251.095C144.661 250.773 144.58 250.377 144.58 249.909C144.58 249.44 144.668 249.074 144.844 248.766C145.019 248.459 145.261 248.202 145.561 248.005C145.862 247.807 146.213 247.668 146.609 247.58C147.004 247.492 147.422 247.455 147.854 247.455C148.051 247.455 148.264 247.47 148.483 247.492C148.703 247.521 148.937 247.558 149.194 247.616V247.316C149.194 247.104 149.172 246.906 149.121 246.716C149.069 246.525 148.981 246.357 148.857 246.21C148.732 246.064 148.564 245.954 148.359 245.873C148.154 245.793 147.898 245.756 147.583 245.756C147.158 245.756 146.777 245.786 146.426 245.844C146.074 245.903 145.788 245.976 145.569 246.057L145.342 244.585C145.576 244.504 145.906 244.423 146.352 244.343C146.792 244.262 147.268 244.226 147.766 244.226L147.751 244.218ZM147.905 251.007C148.469 251.007 148.894 250.978 149.186 250.919V248.905C149.084 248.876 148.937 248.847 148.747 248.817C148.557 248.788 148.344 248.773 148.117 248.773C147.92 248.773 147.714 248.788 147.509 248.817C147.304 248.847 147.114 248.905 146.953 248.986C146.784 249.066 146.653 249.176 146.557 249.323C146.455 249.469 146.404 249.652 146.404 249.872C146.404 250.304 146.535 250.604 146.806 250.765C147.077 250.934 147.443 251.014 147.905 251.014V251.007Z" fill="#FEF3F9"/>
<path d="M159.675 251.49C159.675 252.743 159.36 253.665 158.723 254.244C158.086 254.823 157.112 255.115 155.794 255.115C155.31 255.115 154.842 255.079 154.387 254.991C153.933 254.91 153.516 254.808 153.143 254.676L153.472 253.124C153.78 253.255 154.138 253.358 154.534 253.438C154.929 253.519 155.361 253.556 155.823 253.556C156.555 253.556 157.075 253.402 157.39 253.102C157.698 252.801 157.859 252.355 157.859 251.761V251.461C157.676 251.549 157.441 251.644 157.141 251.732C156.848 251.82 156.504 251.871 156.123 251.871C155.618 251.871 155.164 251.791 154.746 251.63C154.329 251.468 153.977 251.234 153.677 250.919C153.377 250.604 153.15 250.216 152.981 249.755C152.813 249.286 152.732 248.752 152.732 248.136C152.732 247.565 152.82 247.038 152.996 246.555C153.172 246.071 153.428 245.661 153.765 245.317C154.102 244.973 154.512 244.709 154.988 244.519C155.471 244.328 156.021 244.233 156.628 244.233C157.236 244.233 157.786 244.277 158.313 244.365C158.847 244.453 159.294 244.548 159.668 244.65V251.468L159.675 251.49ZM154.6 248.151C154.6 248.927 154.768 249.491 155.105 249.843C155.442 250.202 155.874 250.377 156.409 250.377C156.702 250.377 156.973 250.341 157.229 250.26C157.485 250.18 157.69 250.084 157.851 249.975V245.895C157.72 245.866 157.558 245.837 157.368 245.815C157.178 245.793 156.936 245.778 156.643 245.778C155.984 245.778 155.471 245.998 155.12 246.43C154.768 246.862 154.593 247.441 154.593 248.151H154.6Z" fill="#FEF3F9"/>
<path d="M161.548 248.385C161.548 247.69 161.65 247.089 161.855 246.562C162.06 246.042 162.331 245.61 162.676 245.258C163.013 244.914 163.408 244.65 163.847 244.475C164.287 244.299 164.741 244.211 165.202 244.211C166.286 244.211 167.128 244.548 167.736 245.222C168.344 245.895 168.644 246.899 168.644 248.232C168.644 248.334 168.644 248.444 168.644 248.568C168.644 248.693 168.629 248.81 168.622 248.905H163.43C163.481 249.535 163.701 250.026 164.096 250.37C164.492 250.714 165.07 250.89 165.817 250.89C166.257 250.89 166.66 250.853 167.033 250.765C167.399 250.685 167.685 250.597 167.897 250.509L168.139 252.003C168.036 252.054 167.897 252.106 167.721 252.164C167.546 252.223 167.348 252.267 167.121 252.318C166.894 252.362 166.652 252.399 166.389 252.428C166.125 252.457 165.861 252.472 165.59 252.472C164.895 252.472 164.294 252.369 163.781 252.164C163.269 251.959 162.851 251.674 162.515 251.307C162.185 250.941 161.936 250.509 161.775 250.011C161.614 249.513 161.533 248.971 161.533 248.378L161.548 248.385ZM166.828 247.572C166.828 247.323 166.791 247.082 166.725 246.855C166.652 246.628 166.55 246.43 166.418 246.269C166.279 246.1 166.118 245.976 165.92 245.873C165.722 245.778 165.488 245.727 165.217 245.727C164.946 245.727 164.69 245.778 164.477 245.888C164.265 245.991 164.089 246.13 163.943 246.306C163.796 246.474 163.686 246.672 163.606 246.891C163.525 247.111 163.474 247.338 163.437 247.565H166.821L166.828 247.572Z" fill="#FEF3F9"/>
<path d="M174.094 244.672C174.445 244.57 174.899 244.475 175.463 244.387C176.027 244.299 176.65 244.255 177.331 244.255C177.975 244.255 178.51 244.343 178.942 244.519C179.374 244.694 179.718 244.943 179.974 245.258C180.231 245.573 180.414 245.954 180.516 246.401C180.619 246.847 180.677 247.338 180.677 247.865V252.289H178.854V248.151C178.854 247.726 178.825 247.367 178.773 247.074C178.722 246.782 178.627 246.54 178.502 246.349C178.378 246.166 178.209 246.027 177.99 245.947C177.777 245.859 177.506 245.822 177.199 245.822C176.964 245.822 176.73 245.837 176.474 245.866C176.225 245.895 176.034 245.925 175.917 245.939V252.289H174.094V244.672Z" fill="#FEF3F9"/>
<path d="M190.015 248.341C190.015 248.964 189.927 249.528 189.744 250.04C189.561 250.553 189.304 250.985 188.975 251.351C188.645 251.71 188.242 251.996 187.781 252.193C187.312 252.391 186.8 252.494 186.236 252.494C185.672 252.494 185.159 252.391 184.698 252.193C184.237 251.996 183.841 251.71 183.512 251.351C183.182 250.992 182.926 250.553 182.735 250.04C182.552 249.528 182.457 248.964 182.457 248.341C182.457 247.719 182.552 247.155 182.735 246.65C182.918 246.144 183.182 245.705 183.519 245.346C183.856 244.987 184.251 244.709 184.713 244.511C185.174 244.314 185.679 244.218 186.236 244.218C186.792 244.218 187.298 244.314 187.766 244.511C188.235 244.709 188.631 244.987 188.96 245.346C189.29 245.705 189.553 246.144 189.736 246.65C189.919 247.155 190.015 247.719 190.015 248.341ZM188.147 248.341C188.147 247.558 187.979 246.935 187.642 246.481C187.305 246.027 186.836 245.8 186.236 245.8C185.635 245.8 185.167 246.027 184.83 246.481C184.493 246.935 184.324 247.558 184.324 248.341C184.324 249.125 184.493 249.762 184.83 250.224C185.167 250.685 185.635 250.919 186.236 250.919C186.836 250.919 187.305 250.685 187.642 250.224C187.979 249.762 188.147 249.132 188.147 248.341Z" fill="#FEF3F9"/>
<path d="M191.809 242.336L193.632 242.036V244.416H196.43V245.939H193.632V249.147C193.632 249.777 193.735 250.231 193.932 250.502C194.13 250.773 194.474 250.912 194.958 250.912C195.287 250.912 195.58 250.875 195.836 250.809C196.093 250.736 196.298 250.678 196.444 250.612L196.745 252.054C196.532 252.142 196.261 252.237 195.917 252.333C195.573 252.428 195.177 252.479 194.716 252.479C194.152 252.479 193.683 252.406 193.31 252.252C192.936 252.098 192.636 251.886 192.416 251.6C192.197 251.315 192.043 250.97 191.948 250.56C191.86 250.158 191.809 249.689 191.809 249.169V242.351V242.336Z" fill="#FEF3F9"/>
<path d="M204.901 240.608C205.326 240.608 205.692 240.645 206.014 240.718C206.336 240.791 206.578 240.864 206.739 240.923L206.395 242.431C206.227 242.351 206.029 242.285 205.802 242.234C205.575 242.182 205.333 242.161 205.069 242.161C204.776 242.161 204.535 242.204 204.33 242.285C204.132 242.373 203.971 242.49 203.846 242.637C203.729 242.783 203.641 242.966 203.59 243.186C203.539 243.398 203.517 243.633 203.517 243.889V244.416H206.38V245.939H203.517V252.289H201.693V243.86C201.693 242.849 201.957 242.051 202.492 241.472C203.026 240.894 203.824 240.608 204.901 240.608Z" fill="#FEF3F9"/>
<path d="M214.685 248.341C214.685 248.964 214.597 249.528 214.414 250.04C214.231 250.553 213.974 250.985 213.645 251.351C213.315 251.71 212.912 251.996 212.451 252.193C211.982 252.391 211.47 252.494 210.906 252.494C210.342 252.494 209.829 252.391 209.368 252.193C208.907 251.996 208.511 251.71 208.182 251.351C207.852 250.992 207.588 250.553 207.405 250.04C207.222 249.528 207.127 248.964 207.127 248.341C207.127 247.719 207.222 247.155 207.405 246.65C207.588 246.144 207.852 245.705 208.189 245.346C208.526 244.987 208.921 244.709 209.383 244.511C209.844 244.314 210.349 244.218 210.906 244.218C211.462 244.218 211.968 244.314 212.436 244.511C212.905 244.709 213.301 244.987 213.63 245.346C213.96 245.705 214.216 246.144 214.406 246.65C214.589 247.155 214.685 247.719 214.685 248.341ZM212.817 248.341C212.817 247.558 212.649 246.935 212.312 246.481C211.975 246.027 211.506 245.8 210.906 245.8C210.305 245.8 209.837 246.027 209.5 246.481C209.163 246.935 208.994 247.558 208.994 248.341C208.994 249.125 209.163 249.762 209.5 250.224C209.837 250.685 210.305 250.919 210.906 250.919C211.506 250.919 211.975 250.685 212.312 250.224C212.649 249.762 212.817 249.132 212.817 248.341Z" fill="#FEF3F9"/>
<path d="M223.025 252.047C222.674 252.135 222.219 252.23 221.656 252.325C221.092 252.42 220.477 252.472 219.803 252.472C219.173 252.472 218.638 252.384 218.214 252.201C217.789 252.018 217.445 251.769 217.188 251.446C216.932 251.124 216.749 250.743 216.639 250.297C216.529 249.85 216.471 249.359 216.471 248.832V244.423H218.294V248.546C218.294 249.389 218.419 249.989 218.66 250.355C218.902 250.714 219.334 250.897 219.949 250.897C220.169 250.897 220.403 250.89 220.652 250.868C220.901 250.846 221.084 250.824 221.202 250.795V244.431H223.025V252.062V252.047Z" fill="#FEF3F9"/>
<path d="M225.34 244.672C225.691 244.57 226.145 244.475 226.709 244.387C227.273 244.299 227.896 244.255 228.577 244.255C229.221 244.255 229.756 244.343 230.188 244.519C230.62 244.694 230.964 244.943 231.22 245.258C231.477 245.573 231.66 245.954 231.762 246.401C231.865 246.847 231.923 247.338 231.923 247.865V252.289H230.1V248.151C230.1 247.726 230.071 247.367 230.019 247.074C229.968 246.782 229.873 246.54 229.748 246.349C229.624 246.166 229.456 246.027 229.236 245.947C229.023 245.859 228.76 245.822 228.445 245.822C228.211 245.822 227.976 245.837 227.72 245.866C227.471 245.895 227.281 245.925 227.163 245.939V252.289H225.34V244.672Z" fill="#FEF3F9"/>
<path d="M240.8 252.047C240.441 252.157 239.987 252.259 239.438 252.347C238.889 252.435 238.317 252.486 237.717 252.486C237.116 252.486 236.538 252.391 236.047 252.201C235.556 252.01 235.139 251.739 234.787 251.381C234.443 251.022 234.172 250.59 233.989 250.084C233.806 249.579 233.711 249.008 233.711 248.378C233.711 247.748 233.791 247.192 233.945 246.686C234.099 246.181 234.326 245.742 234.634 245.383C234.941 245.024 235.3 244.746 235.732 244.548C236.164 244.35 236.662 244.255 237.226 244.255C237.607 244.255 237.944 244.299 238.237 244.387C238.53 244.475 238.779 244.577 238.991 244.687V240.908L240.815 240.608V252.047H240.8ZM235.578 248.327C235.578 249.132 235.769 249.762 236.15 250.216C236.53 250.67 237.058 250.905 237.731 250.905C238.024 250.905 238.273 250.89 238.478 250.868C238.683 250.846 238.852 250.817 238.984 250.787V246.269C238.823 246.159 238.61 246.057 238.347 245.961C238.083 245.866 237.797 245.815 237.497 245.815C236.838 245.815 236.347 246.042 236.047 246.489C235.739 246.943 235.586 247.55 235.586 248.327H235.578Z" fill="#FEF3F9"/>
<path d="M5.45898 4.99504L43.7013 11.4615L40.6475 24.3066L5.45898 4.99504Z" fill="#4385F5"/>
<path d="M5.45898 4.99504L37.4985 14.7131L40.6475 24.3066L5.45898 4.99504Z" fill="#91BAFF"/>
<path d="M5.45898 4.99503L53.0678 4.20412L43.7013 11.4615L5.45898 4.99503Z" fill="#90B9FF"/>
<path d="M5.45898 4.99504L37.4985 14.7131L25.6127 22.6442L5.45898 4.99504Z" fill="#90B9FF"/>
<path d="M398.501 137.298L368.307 129.33L365.795 140.454L398.501 137.298Z" fill="#4385F5"/>
<path d="M398.501 137.298L371.617 133.995L365.795 140.454L398.501 137.298Z" fill="#91BAFF"/>
<path d="M398.5 137.298L364.168 120.432L368.306 129.33L398.5 137.298Z" fill="#90B9FF"/>
<path d="M398.499 137.298L371.615 133.995L377.342 144.277L398.499 137.298Z" fill="#90B9FF"/>
<path d="M49.3746 27.2066C49.1842 27.2066 48.9938 27.1261 48.8547 26.9723C48.4739 26.5329 48.1077 26.0788 47.7562 25.6175C47.5292 25.3172 47.5804 24.8925 47.8807 24.6581C48.1809 24.4238 48.6057 24.4824 48.84 24.7826C49.1842 25.2293 49.5358 25.6541 49.8946 26.0788C50.1436 26.3645 50.107 26.7965 49.8214 27.0455C49.6895 27.1554 49.5358 27.214 49.3746 27.214V27.2066Z" fill="#91BAFF"/>
<path d="M109.382 74.0905H109.368C108.218 74.0685 107.053 73.9953 105.889 73.8561C105.516 73.8122 105.245 73.4753 105.289 73.1018C105.333 72.7283 105.677 72.4574 106.043 72.5013C107.156 72.6258 108.284 72.7064 109.39 72.721C109.77 72.721 110.071 73.0359 110.063 73.4167C110.063 73.7902 109.748 74.0905 109.382 74.0905ZM102.601 73.3142C102.557 73.3142 102.506 73.3142 102.462 73.2996C101.334 73.0652 100.199 72.765 99.093 72.4281C98.7342 72.3182 98.5291 71.9374 98.639 71.5713C98.7488 71.2124 99.1297 71.0074 99.4958 71.1172C100.565 71.4468 101.656 71.7324 102.747 71.9594C103.114 72.04 103.355 72.3988 103.275 72.7723C103.209 73.0945 102.923 73.3142 102.608 73.3142H102.601ZM96.0758 71.3076C95.988 71.3076 95.9001 71.293 95.8195 71.2564C94.7503 70.817 93.6884 70.3263 92.6632 69.799C92.3263 69.6233 92.1945 69.2132 92.3702 68.8763C92.546 68.5394 92.9561 68.4076 93.293 68.5834C94.2816 69.096 95.3069 69.572 96.3395 69.9894C96.691 70.1359 96.8594 70.5314 96.713 70.8829C96.6031 71.1465 96.3468 71.3076 96.0832 71.3076H96.0758ZM90.0121 68.1732C89.8876 68.1732 89.7631 68.1366 89.646 68.0634C88.6646 67.4409 87.7053 66.7672 86.7972 66.0641C86.4969 65.8298 86.4457 65.405 86.6727 65.1048C86.8997 64.8045 87.3318 64.7533 87.6321 64.9803C88.5109 65.6613 89.4336 66.3058 90.3783 66.9063C90.7005 67.1114 90.7884 67.5288 90.5907 67.851C90.4589 68.0561 90.2392 68.1659 90.0121 68.1659V68.1732ZM84.6075 63.999C84.4391 63.999 84.2707 63.9404 84.1388 63.8159C83.2893 63.025 82.4691 62.1828 81.7075 61.326C81.4585 61.0403 81.4805 60.6083 81.7661 60.3593C82.0517 60.1103 82.4838 60.1323 82.7328 60.4179C83.4651 61.2454 84.256 62.051 85.0762 62.8126C85.3545 63.0689 85.3692 63.501 85.1128 63.7793C84.981 63.9257 84.7979 63.999 84.6149 63.999H84.6075ZM80.0817 58.8873C79.8693 58.8873 79.6643 58.7921 79.5251 58.6017C79.0272 57.9133 78.5511 57.2029 78.1117 56.4852C77.9433 56.2143 77.7822 55.9506 77.6284 55.6724C77.438 55.3428 77.5479 54.9254 77.8774 54.7423C78.2069 54.5519 78.6244 54.6617 78.8075 54.9913C78.9613 55.2549 79.115 55.5112 79.2688 55.7676C79.6936 56.4559 80.1476 57.137 80.6236 57.7961C80.8433 58.1037 80.7774 58.5284 80.4699 58.7481C80.3454 58.836 80.2062 58.88 80.0671 58.88L80.0817 58.8873ZM76.6617 52.9847C76.3981 52.9847 76.1564 52.8382 76.0393 52.5819C75.5632 51.5347 75.1385 50.4435 74.7577 49.3377C74.6332 48.9788 74.8309 48.5907 75.1824 48.4735C75.5413 48.349 75.9294 48.5468 76.0466 48.8983C76.4054 49.9602 76.8228 51.0074 77.2769 52.018C77.4307 52.3622 77.2769 52.765 76.9327 52.9188C76.8448 52.9627 76.7423 52.9774 76.6544 52.9774L76.6617 52.9847ZM74.4647 46.5255C74.1572 46.5255 73.8715 46.3132 73.7983 45.9983C73.5347 44.8778 73.315 43.728 73.1465 42.5783C73.0953 42.2048 73.3516 41.8606 73.7251 41.802C74.0986 41.7507 74.4428 42.0071 74.5014 42.3805C74.6625 43.4864 74.8675 44.5995 75.1238 45.676C75.2117 46.0422 74.9847 46.4084 74.6185 46.4962C74.5673 46.5109 74.5087 46.5182 74.4574 46.5182L74.4647 46.5255ZM91.1106 42.4831C90.6639 42.4831 90.2099 42.4831 89.7631 42.4684C89.3823 42.4684 89.0821 42.1535 89.0894 41.7727C89.0894 41.3919 89.4043 41.0843 89.7851 41.099C90.9129 41.1209 92.0407 41.1136 93.1685 41.077C93.5346 41.0843 93.8569 41.3626 93.8715 41.7361C93.8862 42.1169 93.5859 42.4318 93.2124 42.4391C92.5094 42.4611 91.8137 42.4684 91.1106 42.4684V42.4831ZM86.3578 42.3366C86.3578 42.3366 86.3285 42.3366 86.3139 42.3366C85.5376 42.2927 84.7686 42.2341 83.9997 42.1682C83.6262 42.1389 83.2527 42.1023 82.8792 42.0656C82.5057 42.029 82.2275 41.6922 82.2641 41.3187C82.3007 40.9452 82.6376 40.6669 83.011 40.7035C83.3772 40.7401 83.7434 40.7767 84.1095 40.806C84.8712 40.8719 85.6328 40.9232 86.3944 40.9745C86.7679 40.9964 87.0608 41.3187 87.0315 41.6995C87.0096 42.0583 86.7093 42.3439 86.3505 42.3439L86.3578 42.3366ZM96.6031 42.2634C96.2516 42.2634 95.9513 41.9924 95.922 41.6409C95.8927 41.2674 96.171 40.9305 96.5445 40.9012C97.687 40.806 98.8148 40.6742 99.8986 40.5204C100.265 40.4618 100.616 40.7255 100.675 41.099C100.726 41.4725 100.47 41.8166 100.096 41.8752C98.9832 42.0363 97.8261 42.1682 96.6617 42.2634C96.6397 42.2634 96.6251 42.2634 96.6031 42.2634ZM79.5544 41.6629C79.5544 41.6629 79.4885 41.6629 79.4592 41.6629C78.3022 41.4944 77.1597 41.3113 76.0539 41.099C75.6804 41.0257 75.4387 40.6742 75.512 40.3007C75.5852 39.9272 75.9367 39.6856 76.3102 39.7588C77.3941 39.9638 78.5219 40.1543 79.6496 40.3154C80.0231 40.3666 80.2794 40.7181 80.2282 41.0916C80.1769 41.4285 79.884 41.6775 79.5544 41.6775V41.6629ZM103.363 41.2747C103.048 41.2747 102.762 41.055 102.696 40.7328C102.616 40.3666 102.85 40.0005 103.223 39.9199C104.329 39.6782 105.428 39.4 106.482 39.0924C106.841 38.9825 107.222 39.1949 107.332 39.5537C107.442 39.9126 107.229 40.2934 106.87 40.4032C105.779 40.7255 104.651 41.0111 103.509 41.2601C103.458 41.2674 103.414 41.2747 103.363 41.2747ZM72.839 40.3813C72.7877 40.3813 72.7291 40.3813 72.6778 40.3593C71.5427 40.081 70.4223 39.7808 69.3457 39.4585C68.9869 39.3487 68.7818 38.9679 68.8844 38.609C68.9942 38.2502 69.375 38.0451 69.7339 38.1477C70.7298 38.4479 71.7624 38.7262 72.8097 38.9825C72.7804 38.3527 72.7657 37.7083 72.7657 37.0785C72.7657 36.5951 72.7731 36.1191 72.795 35.6358C72.8097 35.2623 73.1246 34.9547 73.5054 34.9767C73.8862 34.9913 74.1791 35.3062 74.1645 35.687C74.1498 36.1484 74.1352 36.6098 74.1352 37.0785C74.1352 37.7302 74.1498 38.3967 74.1864 39.0484C74.2084 39.4219 73.9155 39.7441 73.542 39.7661H73.5274C73.5274 39.7954 73.52 39.8247 73.5127 39.854C73.4395 40.1689 73.1539 40.374 72.8463 40.374L72.839 40.3813ZM109.917 39.334C109.646 39.334 109.382 39.1656 109.28 38.8946C109.141 38.5431 109.316 38.1477 109.668 38.0085C110.29 37.7669 110.906 37.5105 111.491 37.2469C111.909 37.0565 112.326 36.8661 112.736 36.661C113.073 36.4926 113.483 36.6317 113.652 36.9686C113.82 37.3055 113.681 37.7156 113.344 37.884C112.912 38.0964 112.48 38.3015 112.048 38.4919C111.44 38.7628 110.803 39.0265 110.159 39.2755C110.078 39.3047 109.997 39.3194 109.91 39.3194L109.917 39.334ZM66.2992 38.4113C66.2187 38.4113 66.1381 38.3967 66.0649 38.3674C64.9664 37.9646 63.8899 37.5252 62.8573 37.0711C62.5131 36.9174 62.3593 36.5146 62.5131 36.1704C62.6669 35.8262 63.0697 35.6724 63.4139 35.8262C64.4171 36.2729 65.4717 36.6977 66.5409 37.0931C66.8924 37.2249 67.0755 37.6131 66.9437 37.9719C66.8412 38.2502 66.5775 38.4186 66.2992 38.4186V38.4113ZM116.032 36.2949C115.805 36.2949 115.585 36.185 115.453 35.9726C115.256 35.6504 115.351 35.233 115.673 35.0279C116.618 34.4347 117.548 33.7903 118.419 33.1092C118.72 32.8822 119.144 32.9335 119.379 33.2337C119.613 33.534 119.554 33.9587 119.254 34.1931C118.346 34.8961 117.379 35.5699 116.398 36.185C116.288 36.2583 116.156 36.2875 116.039 36.2875L116.032 36.2949ZM60.0671 35.6284C59.9573 35.6284 59.8474 35.5992 59.7449 35.5479C58.7123 34.9986 57.709 34.4055 56.757 33.7903C56.4421 33.5852 56.3469 33.1605 56.5519 32.8456C56.757 32.5307 57.1817 32.4355 57.4966 32.6405C58.4194 33.2337 59.3934 33.8123 60.3893 34.3469C60.7189 34.5226 60.8434 34.9401 60.6676 35.2696C60.5431 35.4966 60.3088 35.6284 60.0671 35.6284ZM73.7617 32.9481C73.7617 32.9481 73.7031 32.9481 73.6738 32.9481C73.3003 32.9042 73.0367 32.56 73.0806 32.1865C73.2271 31.0367 73.4248 29.887 73.6738 28.7592C73.7544 28.393 74.1205 28.1587 74.4867 28.2392C74.8529 28.3198 75.0872 28.6859 75.0067 29.0521C74.765 30.136 74.5746 31.2491 74.4354 32.3622C74.3915 32.7064 74.0986 32.9628 73.7617 32.9628V32.9481ZM121.429 32.1133C121.246 32.1133 121.07 32.04 120.931 31.9009C120.668 31.6299 120.682 31.1978 120.953 30.9342C121.766 30.1579 122.535 29.3377 123.245 28.4955C123.487 28.2099 123.919 28.1733 124.205 28.415C124.49 28.6567 124.534 29.0887 124.285 29.3743C123.546 30.2531 122.74 31.11 121.891 31.9155C121.759 32.04 121.59 32.1059 121.422 32.1059L121.429 32.1133ZM54.3403 31.9155C54.1938 31.9155 54.0473 31.8716 53.9228 31.7691C53.0001 31.0514 52.114 30.2898 51.2791 29.4988C51.0082 29.2425 50.9935 28.8104 51.2498 28.5322C51.5061 28.2612 51.9382 28.2465 52.2165 28.5102C53.0148 29.2645 53.8716 30.0041 54.7577 30.6925C55.058 30.9269 55.1092 31.3516 54.8749 31.6519C54.7431 31.8276 54.538 31.9155 54.3329 31.9155H54.3403ZM125.808 26.8844C125.677 26.8844 125.552 26.8478 125.435 26.7746C125.12 26.5695 125.032 26.1448 125.237 25.8299C125.852 24.8925 126.409 23.9185 126.885 22.9371C127.053 22.6003 127.456 22.4538 127.8 22.6222C128.137 22.7907 128.284 23.1935 128.115 23.5377C127.61 24.5702 127.024 25.5955 126.38 26.5768C126.248 26.7746 126.028 26.8844 125.808 26.8844ZM75.2264 26.2766C75.1605 26.2766 75.0872 26.2693 75.0213 26.2473C74.6625 26.1301 74.4647 25.7493 74.5746 25.3905C74.9261 24.2846 75.3362 23.1861 75.7829 22.1243C75.9294 21.7801 76.3322 21.6189 76.6764 21.7654C77.0206 21.9119 77.1817 22.3147 77.0352 22.6589C76.6031 23.6768 76.2077 24.7314 75.8708 25.8006C75.7756 26.0935 75.512 26.2766 75.219 26.2766H75.2264ZM128.789 20.7548C128.716 20.7548 128.65 20.7475 128.577 20.7182C128.218 20.601 128.02 20.2129 128.137 19.854C128.43 18.9679 128.665 18.0525 128.848 17.1517C128.884 16.9833 128.914 16.8149 128.943 16.6391C129.009 16.2656 129.36 16.0239 129.734 16.0825C130.107 16.1484 130.356 16.5 130.29 16.8734C130.261 17.0565 130.224 17.2396 130.188 17.4227C129.997 18.382 129.748 19.3487 129.434 20.2861C129.338 20.5717 129.075 20.7548 128.782 20.7548H128.789ZM77.9067 20.0005C77.7968 20.0005 77.687 19.9712 77.5771 19.9199C77.2476 19.7369 77.1231 19.3268 77.3062 18.9899C77.8554 17.9866 78.4559 17.0126 79.0857 16.0825L79.1297 16.0166C79.3421 15.709 79.7668 15.6285 80.0817 15.8482C80.3893 16.0606 80.4699 16.4853 80.2575 16.8002L80.2209 16.8515C79.6057 17.7449 79.0345 18.6896 78.5072 19.649C78.3827 19.876 78.1484 20.0005 77.9067 20.0005ZM81.7734 14.3762C81.6196 14.3762 81.4585 14.3249 81.334 14.2151C81.0484 13.9734 81.0118 13.5413 81.2534 13.2557C81.9931 12.3842 82.7987 11.5274 83.6335 10.7145C83.9045 10.4509 84.3366 10.4582 84.6002 10.7292C84.8638 11.0001 84.8565 11.4322 84.5856 11.6959C83.78 12.4795 83.011 13.2997 82.2934 14.1418C82.1615 14.303 81.9638 14.3835 81.7734 14.3835V14.3762ZM129.866 14.0393C129.499 14.0393 129.199 13.7537 129.185 13.3875C129.148 12.5527 129.031 11.7618 128.826 11.0368C128.752 10.7731 128.665 10.5168 128.569 10.2605C128.438 9.90897 128.613 9.51351 128.965 9.38169C129.316 9.24987 129.712 9.42563 129.844 9.77715C129.953 10.0628 130.049 10.363 130.137 10.6633C130.371 11.4908 130.51 12.3916 130.547 13.329C130.561 13.7024 130.268 14.0247 129.895 14.0393C129.888 14.0393 129.873 14.0393 129.866 14.0393ZM86.6727 9.62336C86.475 9.62336 86.2772 9.53548 86.1381 9.36704C85.9038 9.07411 85.9477 8.64204 86.2479 8.40769C87.1487 7.69001 88.0934 7.00161 89.0601 6.35716C89.375 6.15211 89.7998 6.23999 90.0048 6.55489C90.2099 6.86979 90.122 7.29455 89.8071 7.4996C88.877 8.11476 87.9616 8.78118 87.0975 9.46957C86.973 9.5721 86.8192 9.61604 86.6727 9.61604V9.62336ZM127.5 7.75592C127.302 7.75592 127.105 7.66804 126.973 7.50692C126.321 6.70868 125.53 5.96903 124.607 5.30261C124.3 5.08291 124.234 4.65083 124.454 4.35057C124.673 4.04299 125.105 3.97709 125.406 4.19678C126.416 4.93644 127.302 5.75665 128.027 6.64277C128.269 6.9357 128.225 7.36778 127.932 7.60213C127.808 7.70465 127.654 7.75592 127.5 7.75592ZM92.3702 5.85918C92.1286 5.85918 91.8869 5.72736 91.7697 5.50033C91.594 5.17079 91.7185 4.75336 92.048 4.5776C93.066 4.03567 94.1205 3.52304 95.1824 3.06899C95.5339 2.92253 95.9294 3.08364 96.0758 3.42784C96.2223 3.77203 96.0612 4.17481 95.717 4.32128C94.6917 4.76068 93.6738 5.25134 92.6925 5.7713C92.5899 5.82988 92.4801 5.85185 92.3702 5.85185V5.85918ZM122.059 3.70612C121.964 3.70612 121.861 3.68415 121.773 3.64021C120.807 3.18617 119.767 2.79803 118.668 2.47581C118.309 2.36596 118.097 1.99247 118.207 1.6263C118.317 1.26746 118.698 1.05508 119.056 1.16493C120.213 1.50913 121.327 1.91923 122.352 2.40257C122.696 2.56369 122.843 2.96647 122.681 3.31066C122.564 3.55966 122.315 3.70612 122.059 3.70612ZM98.6536 3.17884C98.368 3.17884 98.0971 2.99576 98.0019 2.71015C97.8847 2.35131 98.0824 1.96317 98.4413 1.846C99.5471 1.48716 100.675 1.17226 101.795 0.923264C102.162 0.835384 102.528 1.06973 102.616 1.4359C102.696 1.80206 102.469 2.16823 102.103 2.25611C101.019 2.5051 99.9352 2.80536 98.866 3.14955C98.7928 3.17152 98.7269 3.18617 98.6536 3.18617V3.17884ZM115.527 1.76544C115.527 1.76544 115.453 1.76544 115.417 1.75812C114.326 1.58236 113.205 1.46519 112.085 1.39928C111.711 1.37731 111.418 1.05508 111.44 0.674271C111.462 0.300782 111.784 0.0151727 112.165 0.0298194C113.33 0.0957292 114.494 0.220225 115.629 0.403308C116.003 0.461895 116.259 0.813414 116.193 1.1869C116.142 1.52378 115.849 1.76544 115.519 1.76544H115.527ZM105.303 1.66292C104.966 1.66292 104.673 1.41393 104.629 1.06973C104.578 0.696241 104.842 0.352045 105.215 0.300782C106.365 0.146992 107.537 0.044466 108.687 0.000526098C109.06 -0.0141205 109.382 0.278812 109.397 0.659624C109.412 1.03311 109.119 1.35534 108.738 1.36999C107.632 1.41393 106.504 1.50913 105.398 1.65559C105.369 1.65559 105.34 1.65559 105.311 1.65559L105.303 1.66292Z" fill="#91BAFF"/>
<path d="M112.861 73.9806C112.509 73.9806 112.209 73.7097 112.18 73.3508C112.151 72.9773 112.429 72.6478 112.802 72.6112C113.359 72.5672 113.915 72.5013 114.465 72.4281C114.838 72.3768 115.182 72.6405 115.234 73.014C115.285 73.3874 115.021 73.7316 114.648 73.7829C114.069 73.8635 113.491 73.922 112.912 73.9733C112.89 73.9733 112.876 73.9733 112.854 73.9733L112.861 73.9806Z" fill="#91BAFF"/>
</svg>
