<svg width="44" height="52" viewBox="0 0 44 52" fill="none" xmlns="http://www.w3.org/2000/svg">
<path fill-rule="evenodd" clip-rule="evenodd" d="M3.11341 44.2289C3.11341 46.8013 5.19874 48.8866 7.7711 48.8866H27.8643C30.4367 48.8866 32.522 46.8013 32.522 44.2289V40.3058C32.522 39.446 33.219 38.749 34.0787 38.749C34.9385 38.749 35.6354 39.446 35.6354 40.3058V44.2289C35.6354 48.5207 32.1562 52 27.8643 52H7.7711C3.47925 52 0 48.5207 0 44.2289V7.7711C0 3.47925 3.47925 0 7.7711 0H27.8643C32.1562 0 35.6354 3.47925 35.6354 7.7711V10.9945C35.6354 11.8543 34.9385 12.5512 34.0787 12.5512C33.219 12.5512 32.522 11.8543 32.522 10.9945V7.7711C32.522 5.19874 30.4367 3.11341 27.8643 3.11341H7.7711C5.19874 3.11341 3.11341 5.19874 3.11341 7.7711V44.2289ZM15.7463 43.1022C15.7463 44.2463 16.6736 45.1737 17.8177 45.1737C18.9618 45.1737 19.8892 44.2463 19.8892 43.1022C19.8892 41.9581 18.9618 41.0307 17.8177 41.0307C16.6736 41.0307 15.7463 41.9581 15.7463 43.1022ZM14.1895 8.92303C14.1895 9.78277 14.8865 10.4797 15.7463 10.4797H19.8892C20.7489 10.4797 21.4459 9.78277 21.4459 8.92303C21.4459 8.06328 20.7489 7.36632 19.8892 7.36632H15.7463C14.8865 7.36632 14.1895 8.06328 14.1895 8.92303ZM26.9117 34.8528C26.6566 35.7502 25.7273 36.37 24.7868 36.37C23.3949 36.37 22.4917 35.0517 22.8692 33.7233L27.5741 17.1724C27.8292 16.2751 28.6549 15.6553 29.5953 15.6553C30.9873 15.6553 31.9941 16.9736 31.6165 18.3019L26.9117 34.8528ZM19.0106 33.5379C19.563 32.8791 19.4767 31.8972 18.8179 31.3448L13.6928 27.0478C13.1205 26.5587 13.1205 25.6737 13.6928 25.1845L18.8179 20.8876C19.4767 20.3352 19.563 19.3533 19.0106 18.6945C18.4582 18.0357 17.4764 17.9494 16.8175 18.5018L11.688 22.8025L11.6804 22.8089L11.6804 22.8089C9.64009 24.5417 9.64009 27.6907 11.6804 29.4235L11.688 29.4299L11.688 29.4299L16.8175 33.7306C17.4764 34.283 18.4582 34.1967 19.0106 33.5379ZM37.2659 33.7205C36.6126 34.2795 35.63 34.2031 35.071 33.5499C34.512 32.8966 34.5884 31.9139 35.2416 31.355L40.2676 27.0542L40.2721 27.0504C40.8484 26.561 40.8484 25.6714 40.2721 25.182L40.2676 25.1782L35.2416 20.8774C34.5884 20.3185 34.512 19.3358 35.071 18.6825C35.63 18.0293 36.6126 17.9529 37.2659 18.5119L42.2874 22.8089L42.2899 22.811C44.327 24.5436 44.327 27.6889 42.2899 29.4214L37.2659 33.7205Z" fill="#0061FF"/>
</svg>
