<svg width="17" height="18" viewBox="0 0 17 18" fill="none" xmlns="http://www.w3.org/2000/svg">
<path d="M15.1786 1.71429H12.75V1.10714C12.75 0.946119 12.686 0.791689 12.5722 0.677828C12.4583 0.563967 12.3039 0.5 12.1429 0.5C11.9818 0.5 11.8274 0.563967 11.7135 0.677828C11.5997 0.791689 11.5357 0.946119 11.5357 1.10714V1.71429H5.46429V1.10714C5.46429 0.946119 5.40032 0.791689 5.28646 0.677828C5.1726 0.563967 5.01817 0.5 4.85714 0.5C4.69612 0.5 4.54169 0.563967 4.42783 0.677828C4.31397 0.791689 4.25 0.946119 4.25 1.10714V1.71429H1.82143C1.33836 1.71429 0.875068 1.90619 0.533484 2.24777C0.1919 2.58935 0 3.05264 0 3.53571V15.6786C0 16.1616 0.1919 16.6249 0.533484 16.9665C0.875068 17.3081 1.33836 17.5 1.82143 17.5H15.1786C15.6616 17.5 16.1249 17.3081 16.4665 16.9665C16.8081 16.6249 17 16.1616 17 15.6786V3.53571C17 3.05264 16.8081 2.58935 16.4665 2.24777C16.1249 1.90619 15.6616 1.71429 15.1786 1.71429ZM1.82143 2.92857H15.1786C15.3396 2.92857 15.494 2.99254 15.6079 3.1064C15.7217 3.22026 15.7857 3.37469 15.7857 3.53571V5.35714H1.21429V3.53571C1.21429 3.37469 1.27825 3.22026 1.39211 3.1064C1.50598 2.99254 1.6604 2.92857 1.82143 2.92857ZM15.1786 16.2857H1.82143C1.6604 16.2857 1.50598 16.2217 1.39211 16.1079C1.27825 15.994 1.21429 15.8396 1.21429 15.6786V6.57143H15.7857V15.6786C15.7857 15.8396 15.7217 15.994 15.6079 16.1079C15.494 16.2217 15.3396 16.2857 15.1786 16.2857Z" fill="white"/>
<path d="M11.1411 8.53926L7.31608 11.8178L5.89173 10.3941C5.77722 10.2835 5.62385 10.2223 5.46466 10.2237C5.30547 10.2251 5.15319 10.2889 5.04062 10.4015C4.92805 10.514 4.8642 10.6663 4.86282 10.8255C4.86143 10.9847 4.92263 11.1381 5.03323 11.2526L6.85465 13.074C6.9628 13.182 7.1077 13.2452 7.26042 13.2511C7.41314 13.2569 7.56245 13.205 7.67855 13.1056L11.9285 9.46272C11.9925 9.41198 12.0456 9.34886 12.0846 9.27713C12.1236 9.20539 12.1478 9.12653 12.1556 9.04525C12.1635 8.96397 12.1548 8.88194 12.1302 8.80408C12.1056 8.72622 12.0655 8.65412 12.0124 8.5921C11.9593 8.53008 11.8942 8.47941 11.8211 8.44313C11.7479 8.40684 11.6682 8.38568 11.5867 8.38092C11.5052 8.37615 11.4235 8.38788 11.3467 8.4154C11.2698 8.44292 11.1992 8.48567 11.1393 8.54108L11.1411 8.53926Z" fill="white"/>
</svg>
