<svg width="115" height="116" viewBox="0 0 115 116" fill="none" xmlns="http://www.w3.org/2000/svg">
<path d="M40.6543 67.7737C38.7936 67.7737 37.2852 69.2822 37.2852 71.1428V77.8811C37.2852 79.7418 38.7936 81.2502 40.6543 81.2502C42.515 81.2502 44.0234 79.7418 44.0234 77.8811V71.1428C44.0234 69.2822 42.515 67.7737 40.6543 67.7737ZM74.3457 81.2502C76.2064 81.2502 77.7148 79.7418 77.7148 77.8811V71.1428C77.7148 69.2822 76.2064 67.7737 74.3457 67.7737C72.485 67.7737 70.9766 69.2822 70.9766 71.1428V77.8811C70.9766 79.7418 72.485 81.2502 74.3457 81.2502ZM61.0938 23.9749H97.9297C99.7904 23.9749 101.299 22.4664 101.299 20.6057C101.299 18.745 99.7904 17.2366 97.9297 17.2366H61.0938C59.2331 17.2366 57.7246 18.745 57.7246 20.6057C57.7246 22.4664 59.2331 23.9749 61.0938 23.9749Z" fill="#0061FF"/>
<path d="M115 39.6975V14.7659C115 6.71564 108.451 0.16626 100.4 0.16626H58.623C50.5728 0.16626 44.0234 6.71564 44.0234 14.7659V40.8206H39.5312C27.2166 40.8206 16.8886 49.4837 14.3177 61.0354H13.7012V40.2411C17.6226 38.8503 20.4395 35.1054 20.4395 30.7131C20.4395 25.1399 15.9053 20.6057 10.332 20.6057C4.7588 20.6057 0.224609 25.1399 0.224609 30.7131C0.224609 35.1054 3.04144 38.8503 6.96289 40.2411V61.5387C2.92509 62.8642 0 66.6673 0 71.1428V84.6194C0 90.1926 4.53419 94.7268 10.1074 94.7268H14.2688C16.755 106.391 27.1369 115.166 39.5312 115.166H75.4688C87.8631 115.166 98.245 106.391 100.731 94.7268H104.893C110.466 94.7268 115 90.1926 115 84.6194V71.1428C115 65.5696 110.466 61.0354 104.893 61.0354H100.681C100.158 58.6823 99.3075 56.4142 98.1547 54.2971H100.4C108.451 54.2971 115 47.7477 115 39.6975ZM50.7617 14.7659C50.7617 10.4311 54.2883 6.90454 58.623 6.90454H100.4C104.735 6.90454 108.262 10.4311 108.262 14.7659V39.6975C108.262 44.0322 104.735 47.5588 100.4 47.5588H60.8691C60.346 47.5588 59.8303 47.6806 59.3625 47.9144L50.7617 52.2148V14.7659ZM10.332 27.344C12.1898 27.344 13.7012 28.8554 13.7012 30.7131C13.7012 32.5709 12.1898 34.0823 10.332 34.0823C8.47429 34.0823 6.96289 32.5709 6.96289 30.7131C6.96289 28.8554 8.47429 27.344 10.332 27.344ZM6.73828 84.6194V71.1428C6.73828 69.2851 8.24968 67.7737 10.1074 67.7737H13.7012V87.9885H10.1074C8.24968 87.9885 6.73828 86.4771 6.73828 84.6194ZM108.262 71.1428V84.6194C108.262 86.4771 106.75 87.9885 104.893 87.9885H101.299V67.7737H104.893C106.75 67.7737 108.262 69.2851 108.262 71.1428ZM94.5605 66.6506V89.3362C94.5605 99.8634 85.996 108.428 75.4688 108.428H39.5312C29.004 108.428 20.4395 99.8634 20.4395 89.3362V66.6506C20.4395 56.1234 29.004 47.5588 39.5312 47.5588H44.0234V57.6663C44.0234 60.1666 46.6608 61.7991 48.8993 60.6796L61.6645 54.2971H90.0194C92.9515 57.7454 94.5612 62.1243 94.5605 66.6506Z" fill="#0061FF"/>
<path d="M61.0938 37.4514H97.9297C99.7904 37.4514 101.299 35.9429 101.299 34.0823C101.299 32.2216 99.7904 30.7131 97.9297 30.7131H61.0938C59.2331 30.7131 57.7246 32.2216 57.7246 34.0823C57.7246 35.9429 59.2331 37.4514 61.0938 37.4514ZM47.3926 91.3577C47.3926 93.2183 48.9011 94.7268 50.7617 94.7268H64.2383C66.0989 94.7268 67.6074 93.2183 67.6074 91.3577C67.6074 89.497 66.0989 87.9885 64.2383 87.9885H50.7617C48.9011 87.9885 47.3926 89.497 47.3926 91.3577Z" fill="#0061FF"/>
</svg>
