<svg width="19" height="19" viewBox="0 0 19 19" fill="none" xmlns="http://www.w3.org/2000/svg">
<path d="M8.96881 17.8229C9.0426 17.8966 9.11837 17.954 9.20521 17.9926C9.29228 18.0313 9.38792 18.05 9.5 18.05C9.61208 18.05 9.70772 18.0313 9.79479 17.9926C9.88163 17.954 9.9574 17.8966 10.0312 17.8229L11.929 15.925H13.75C16.1151 15.925 18.05 13.9901 18.05 11.625V5.25C18.05 2.88489 16.1151 0.95 13.75 0.95H5.25C2.88489 0.95 0.95 2.88489 0.95 5.25V11.625C0.95 13.9901 2.88489 15.925 5.25 15.925H7.07096L8.96881 17.8229ZM2.46667 5.25C2.46667 3.71928 3.71928 2.46667 5.25 2.46667H13.75C15.2807 2.46667 16.5333 3.71928 16.5333 5.25V11.625C16.5333 13.1557 15.2807 14.4083 13.75 14.4083H11.625C11.5129 14.4083 11.4173 14.4271 11.3302 14.4658C11.2434 14.5044 11.1676 14.5617 11.0938 14.6355L9.5 16.2293L7.90619 14.6355C7.8324 14.5617 7.75663 14.5044 7.66979 14.4658C7.58272 14.4271 7.48708 14.4083 7.375 14.4083H5.25C3.71928 14.4083 2.46667 13.1557 2.46667 11.625V5.25ZM8.74167 12.3333C8.74167 12.5572 8.81651 12.7476 8.9511 12.8822C9.0857 13.0168 9.27614 13.0917 9.5 13.0917C9.72386 13.0917 9.9143 13.0168 10.0489 12.8822C10.1835 12.7476 10.2583 12.5572 10.2583 12.3333V11.625C10.2583 11.4011 10.1835 11.2107 10.0489 11.0761C9.9143 10.9415 9.72386 10.8667 9.5 10.8667C9.27614 10.8667 9.0857 10.9415 8.9511 11.0761C8.81651 11.2107 8.74167 11.4011 8.74167 11.625V12.3333ZM8.74167 8.79167C8.74167 9.01553 8.81651 9.20597 8.9511 9.34056C9.0857 9.47516 9.27614 9.55 9.5 9.55C9.72386 9.55 9.9143 9.47516 10.0489 9.34056C10.1835 9.20597 10.2583 9.01553 10.2583 8.79167V4.54167C10.2583 4.3178 10.1835 4.12737 10.0489 3.99277C9.9143 3.85817 9.72386 3.78333 9.5 3.78333C9.27614 3.78333 9.0857 3.85817 8.9511 3.99277C8.81651 4.12737 8.74167 4.3178 8.74167 4.54167V8.79167Z" fill="white" stroke="white" stroke-width="0.1"/>
</svg>
