<svg width="54" height="54" viewBox="0 0 54 54" fill="none" xmlns="http://www.w3.org/2000/svg">
<path d="M23.11 36.8644H2.00008M23.11 36.8644C23.11 37.8961 23.5198 38.8855 24.2493 39.6151C24.9788 40.3446 25.9683 40.7544 27 40.7544C28.0317 40.7544 29.0212 40.3446 29.7507 39.6151C30.4802 38.8855 30.89 37.8961 30.89 36.8644M23.11 36.8644C23.11 35.8327 23.5198 34.8432 24.2493 34.1137C24.9788 33.3842 25.9683 32.9743 27 32.9743C28.0317 32.9743 29.0212 33.3842 29.7507 34.1137C30.4802 34.8432 30.89 35.8327 30.89 36.8644M30.89 36.8644H52M35.8698 48.1099H2.00008M35.8698 48.1099C35.8698 49.1416 36.2797 50.131 37.0092 50.8606C37.7387 51.5901 38.7282 51.9999 39.7599 51.9999C40.7916 51.9999 41.781 51.5901 42.5106 50.8606C43.2401 50.131 43.6499 49.1416 43.6499 48.1099M35.8698 48.1099C35.8698 47.0782 36.2797 46.0887 37.0092 45.3592C37.7387 44.6297 38.7282 44.2198 39.7599 44.2198C40.7916 44.2198 41.781 44.6297 42.5106 45.3592C43.2401 46.0887 43.6499 47.0782 43.6499 48.1099M43.6499 48.1099H52M27.3212 2C19.3924 2 12.9649 8.42752 12.9649 16.3561C12.9627 18.4066 13.4007 20.4336 14.2495 22.3002C15.0982 24.1668 16.3379 25.8293 17.8846 27.1754C20.1644 29.1655 23.7318 27.5146 23.7318 24.4881V24.3516C23.7281 23.8467 23.6181 23.3483 23.4092 22.8886C23.2002 22.429 22.8969 22.0185 22.519 21.6837C21.721 20.9673 21.0941 20.0807 20.6849 19.0894C20.2756 18.0981 20.0943 17.0275 20.1545 15.9568C20.3537 12.3066 23.3234 9.3595 26.9746 9.18678C27.9449 9.14099 28.9145 9.29244 29.8246 9.63198C30.7348 9.97151 31.5667 10.4921 32.27 11.1622C32.9733 11.8323 33.5333 12.6381 33.9164 13.5308C34.2995 14.4236 34.4975 15.3847 34.4986 16.3561C34.4989 17.3709 34.2834 18.374 33.8665 19.2992C33.4496 20.2243 32.8407 21.0502 32.0803 21.7221C31.7107 22.0528 31.4153 22.4581 31.2136 22.9113C31.012 23.3644 30.9086 23.8552 30.9103 24.3512V24.4879C30.9103 27.5135 34.4771 29.1656 36.7566 27.1758C38.9411 25.2721 40.4984 22.7518 41.2237 19.9465H52V2H27.7206L27.7261 2.00599M27.3212 2C27.4565 2 27.5916 2.00226 27.7261 2.00599M27.3212 2L5.58934 2C5.11798 1.99999 4.65123 2.09282 4.21575 2.2732C3.78027 2.45358 3.38457 2.71797 3.05127 3.05127C2.71797 3.38458 2.45358 3.78027 2.2732 4.21575C2.09282 4.65123 1.99999 5.11798 2 5.58934C2 6.5413 2.37816 7.45426 3.0513 8.12739C3.72443 8.80053 4.63739 9.17869 5.58934 9.17869H14.8857M27.7261 2.00599C27.5916 2.00226 27.4565 2 27.3209 2H27.7204L27.7261 2.00599ZM9.10501 9.17861C8.15306 9.17861 7.24009 9.55677 6.56696 10.2299C5.89383 10.903 5.51567 11.816 5.51567 12.768C5.51571 13.7199 5.89389 14.6328 6.56701 15.3059C7.24014 15.979 8.15308 16.3572 9.10501 16.3572H12.9649V16.3561" stroke="#4385F5" stroke-width="3.11204" stroke-miterlimit="10" stroke-linecap="round" stroke-linejoin="round"/>
</svg>
