<svg width="115" height="117" viewBox="0 0 115 117" fill="none" xmlns="http://www.w3.org/2000/svg">
<path d="M30.5469 60.4631C30.5469 59.51 30.1682 58.5959 29.4943 57.922C28.8203 57.248 27.9062 56.8694 26.9531 56.8694C26 56.8694 25.0859 57.248 24.412 57.922C23.738 58.5959 23.3594 59.51 23.3594 60.4631V78.4319C23.3594 79.385 23.738 80.2991 24.412 80.9731C25.0859 81.647 26 82.0256 26.9531 82.0256C27.9062 82.0256 28.8203 81.647 29.4943 80.9731C30.1682 80.2991 30.5469 79.385 30.5469 78.4319V60.4631Z" fill="#0061FF"/>
<path d="M111.406 108.979H106.016V44.2913C106.016 43.3382 105.637 42.4241 104.963 41.7501C104.289 41.0762 103.375 40.6975 102.422 40.6975H95.2344C94.2813 40.6975 93.3672 41.0762 92.6932 41.7501C92.0192 42.4241 91.6406 43.3382 91.6406 44.2913C91.6406 45.2444 92.0192 46.1585 92.6932 46.8324C93.3672 47.5064 94.2813 47.885 95.2344 47.885H98.8281V108.979H77.2656V76.635C77.2656 75.6819 76.887 74.7678 76.213 74.0939C75.5391 73.4199 74.625 73.0413 73.6719 73.0413H41.3281C40.375 73.0413 39.4609 73.4199 38.787 74.0939C38.113 74.7678 37.7344 75.6819 37.7344 76.635V108.979H16.1719V47.885H28.5703C32.2685 55.3043 38.6616 61.0303 46.442 63.8918C54.2224 66.7533 62.8021 66.534 70.4262 63.2787C78.0502 60.0235 84.1425 53.9783 87.4567 46.3797C90.771 38.7811 91.0568 30.2034 88.2558 22.401C85.4548 14.5987 79.7785 8.16132 72.3881 4.40572C64.9977 0.65013 56.4516 -0.139895 48.4979 2.19725C40.5443 4.53439 33.7841 9.82207 29.6002 16.9787C25.4163 24.1354 24.1249 32.6202 25.99 40.6975H12.5781C11.625 40.6975 10.7109 41.0762 10.037 41.7501C9.363 42.4241 8.98438 43.3382 8.98438 44.2913V108.979H3.59375C2.64063 108.979 1.72654 109.357 1.05259 110.031C0.378626 110.705 0 111.619 0 112.573C0 113.526 0.378626 114.44 1.05259 115.114C1.72654 115.788 2.64063 116.166 3.59375 116.166H111.406C112.359 116.166 113.273 115.788 113.947 115.114C114.621 114.44 115 113.526 115 112.573C115 111.619 114.621 110.705 113.947 110.031C113.273 109.357 112.359 108.979 111.406 108.979ZM57.5 8.35378C62.4754 8.35378 67.3391 9.82917 71.4761 12.5934C75.613 15.3576 78.8373 19.2864 80.7413 23.8831C82.6454 28.4799 83.1435 33.5379 82.1729 38.4178C81.2022 43.2976 78.8063 47.78 75.2882 51.2982C71.77 54.8163 67.2876 57.2122 62.4077 58.1829C57.5279 59.1536 52.4698 58.6554 47.8731 56.7514C43.2764 54.8474 39.3475 51.623 36.5833 47.4861C33.8191 43.3492 32.3438 38.4855 32.3438 33.51C32.3514 26.8405 35.0042 20.4463 39.7203 15.7303C44.4363 11.0142 50.8305 8.36139 57.5 8.35378ZM44.9219 108.979V80.2288H70.0781V108.979H44.9219Z" fill="#0061FF"/>
<path d="M46.7188 37.1038H53.9062V44.2913C53.9062 45.2444 54.2849 46.1585 54.9588 46.8324C55.6328 47.5064 56.5469 47.885 57.5 47.885C58.4531 47.885 59.3672 47.5064 60.0412 46.8324C60.7151 46.1585 61.0938 45.2444 61.0938 44.2913V37.1038H68.2812C69.2344 37.1038 70.1485 36.7251 70.8224 36.0512C71.4964 35.3772 71.875 34.4631 71.875 33.51C71.875 32.5569 71.4964 31.6428 70.8224 30.9688C70.1485 30.2949 69.2344 29.9163 68.2812 29.9163H61.0938V22.7288C61.0938 21.7756 60.7151 20.8616 60.0412 20.1876C59.3672 19.5136 58.4531 19.135 57.5 19.135C56.5469 19.135 55.6328 19.5136 54.9588 20.1876C54.2849 20.8616 53.9062 21.7756 53.9062 22.7288V29.9163H46.7188C45.7656 29.9163 44.8515 30.2949 44.1776 30.9688C43.5036 31.6428 43.125 32.5569 43.125 33.51C43.125 34.4631 43.5036 35.3772 44.1776 36.0512C44.8515 36.7251 45.7656 37.1038 46.7188 37.1038Z" fill="#0061FF"/>
<path d="M26.9531 96.4006C28.9379 96.4006 30.5469 94.7917 30.5469 92.8069C30.5469 90.8221 28.9379 89.2131 26.9531 89.2131C24.9684 89.2131 23.3594 90.8221 23.3594 92.8069C23.3594 94.7917 24.9684 96.4006 26.9531 96.4006Z" fill="#0061FF"/>
</svg>
