<svg width="31" height="45" viewBox="0 0 31 45" fill="none" xmlns="http://www.w3.org/2000/svg">
<path d="M8.70711 44.7071C8.31658 45.0976 7.68342 45.0976 7.29289 44.7071L0.92893 38.3431C0.538406 37.9526 0.538406 37.3195 0.92893 36.9289C1.31945 36.5384 1.95262 36.5384 2.34314 36.9289L8 42.5858L13.6569 36.9289C14.0474 36.5384 14.6805 36.5384 15.0711 36.9289C15.4616 37.3195 15.4616 37.9526 15.0711 38.3431L8.70711 44.7071ZM31 2H29.375V0H31V2ZM26.125 2H22.875V0H26.125V2ZM19.625 2H18V0H19.625V2ZM18 2C17.3976 2 16.8101 2.05903 16.2424 2.17133L15.8543 0.209353C16.5491 0.0719054 17.2666 0 18 0V2ZM13.0002 3.51531C12.0183 4.17268 11.1727 5.01827 10.5153 6.00016L8.85338 4.88752C9.65618 3.68839 10.6884 2.65618 11.8875 1.85338L13.0002 3.51531ZM9.17133 9.24245C9.05903 9.81008 9 10.3977 9 11H7C7 10.2666 7.0719 9.54909 7.20935 8.85431L9.17133 9.24245ZM9 11V13.0625H7V11H9ZM9 17.1875V21.3125H7V17.1875H9ZM9 25.4375V29.5625H7V25.4375H9ZM9 33.6875V37.8125H7V33.6875H9ZM9 41.9375V44H7V41.9375H9ZM8.70711 44.7071C8.31658 45.0976 7.68342 45.0976 7.29289 44.7071L0.92893 38.3431C0.538406 37.9526 0.538406 37.3195 0.92893 36.9289C1.31945 36.5384 1.95262 36.5384 2.34314 36.9289L8 42.5858L13.6569 36.9289C14.0474 36.5384 14.6805 36.5384 15.0711 36.9289C15.4616 37.3195 15.4616 37.9526 15.0711 38.3431L8.70711 44.7071ZM31 2H29.375V0H31V2ZM26.125 2H22.875V0H26.125V2ZM19.625 2H18V0H19.625V2ZM18 2C17.3976 2 16.8101 2.05903 16.2424 2.17133L15.8543 0.209353C16.5491 0.0719054 17.2666 0 18 0V2ZM13.0002 3.51531C12.0183 4.17268 11.1727 5.01827 10.5153 6.00016L8.85338 4.88752C9.65618 3.68839 10.6884 2.65618 11.8875 1.85338L13.0002 3.51531ZM9.17133 9.24245C9.05903 9.81008 9 10.3977 9 11H7C7 10.2666 7.0719 9.54909 7.20935 8.85431L9.17133 9.24245ZM9 11V13.0625H7V11H9ZM9 17.1875V21.3125H7V17.1875H9ZM9 25.4375V29.5625H7V25.4375H9ZM9 33.6875V37.8125H7V33.6875H9ZM9 41.9375V44H7V41.9375H9Z" fill="#4385F5"/>
</svg>
