<svg width="115" height="92" viewBox="0 0 115 92" fill="none" xmlns="http://www.w3.org/2000/svg">
<path d="M114.013 67.3647L105.106 58.457V27.903L110.921 25.8065C111.573 25.5718 112.136 25.1417 112.535 24.575C112.934 24.0083 113.148 23.3325 113.148 22.6397C113.149 21.9468 112.936 21.2707 112.538 20.7034C112.14 20.1362 111.577 19.7053 110.925 19.4697L57.7202 0.201292C56.9791 -0.0670974 56.1673 -0.0670974 55.4261 0.201292L2.22113 19.4697C1.57235 19.7049 1.01142 20.1336 0.614187 20.6979C0.216954 21.2621 0.00257066 21.9348 2.29731e-05 22.6249C-0.00252471 23.315 0.206886 23.9892 0.599942 24.5564C0.992998 25.1236 1.55074 25.5564 2.19777 25.7964L21.8334 33.0701V55.2721C21.8334 55.9612 22.0445 56.6338 22.4386 57.1989C22.6554 57.5097 24.7083 60.3133 29.9646 62.9589C36.6051 66.3017 45.3146 67.9967 55.851 67.9967C66.3797 67.9967 75.1333 66.3053 81.8685 62.969C87.1767 60.3398 89.2979 57.5654 89.5225 57.2579C89.943 56.6814 90.1696 55.9862 90.1696 55.2726V33.2875L98.3682 30.3317V58.457L89.4605 67.3647C88.8288 67.9964 88.474 68.8533 88.474 69.7467C88.474 70.6401 88.8288 71.4969 89.4605 72.1287L98.3682 81.0361V88.5097C98.3682 90.3702 99.8765 91.8786 101.737 91.8786C103.598 91.8786 105.106 90.3702 105.106 88.5097V81.0361L114.013 72.1287C115.329 70.8135 115.329 68.6801 114.013 67.3647ZM56.5733 6.95177L99.8653 22.6301L55.8669 38.4926L13.1627 22.673L56.5733 6.95177ZM83.4317 53.9295C71.915 64.2925 37.6925 63.1042 28.571 53.9632V35.5662L54.6807 45.2384C55.095 45.304 55.4863 45.6613 56.9935 45.2487L83.4319 35.7171L83.4317 53.9295ZM101.737 74.8767L96.6065 69.7467L101.737 64.6164L106.867 69.7467L101.737 74.8767Z" fill="#0061FF"/>
</svg>
