<svg width="50" height="50" viewBox="0 0 50 50" fill="none" xmlns="http://www.w3.org/2000/svg">
<path fill-rule="evenodd" clip-rule="evenodd" d="M19.5833 4.16667C15.9417 4.16667 12.9167 7.19167 12.9167 10.8333C12.9167 13.675 14.7583 16.1417 17.3 17.0875C16.7646 18.5542 16.4687 20.1354 16.4583 21.7833C9.49375 23.25 4.16667 29.5104 4.16667 36.875C4.16667 37.4275 3.94717 37.9574 3.55647 38.3481C3.16577 38.7388 2.63587 38.9583 2.08333 38.9583C1.5308 38.9583 1.0009 38.7388 0.610194 38.3481C0.219493 37.9574 0 37.4275 0 36.875C0 28.7375 5.08333 21.6875 12.2187 18.75C11.1272 17.7399 10.2558 16.5155 9.65893 15.1533C9.06208 13.7912 8.75266 12.3205 8.75 10.8333C8.75 4.89167 13.6417 0 19.5833 0C24.5187 0 28.7292 3.375 30.0146 7.92083C28.6069 7.95961 27.2133 8.21179 25.8813 8.66875C24.9688 6.06875 22.4687 4.16667 19.5833 4.16667Z" fill="#4385F5"/>
<path fill-rule="evenodd" clip-rule="evenodd" d="M37.646 29.7354C39.2795 28.2719 40.4303 26.347 40.9462 24.2153C41.4621 22.0836 41.3188 19.8455 40.5354 17.797C39.7519 15.7485 38.3651 13.986 36.5584 12.7427C34.7516 11.4993 32.6101 10.8336 30.4168 10.8336C28.2236 10.8336 26.082 11.4993 24.2753 12.7427C22.4686 13.986 21.0818 15.7485 20.2983 17.797C19.5148 19.8455 19.3716 22.0836 19.8875 24.2153C20.4034 26.347 21.5542 28.2719 23.1877 29.7354C15.9793 32.6396 10.8335 39.7292 10.8335 47.9167C10.8335 48.4692 11.053 48.9991 11.4437 49.3898C11.8344 49.7805 12.3643 50 12.9168 50C13.4694 50 13.9993 49.7805 14.39 49.3898C14.7807 48.9991 15.0002 48.4692 15.0002 47.9167C15.0002 39.5 21.9564 32.5292 30.3647 32.5H30.4689C38.8752 32.5292 45.8335 39.5 45.8335 47.9167C45.8335 48.4692 46.053 48.9991 46.4437 49.3898C46.8344 49.7805 47.3643 50 47.9168 50C48.4694 50 48.9993 49.7805 49.39 49.3898C49.7807 48.9991 50.0002 48.4692 50.0002 47.9167C50.0002 39.7292 44.8522 32.6396 37.646 29.7354ZM30.4168 15C28.6487 14.9939 26.9506 15.6905 25.6961 16.9364C24.4415 18.1824 23.7333 19.8756 23.7272 21.6438C23.7212 23.4119 24.4177 25.11 25.6637 26.3645C26.9096 27.6191 28.6029 28.3273 30.371 28.3333H30.4627C32.2308 28.3273 33.924 27.6191 35.17 26.3645C36.4159 25.11 37.1125 23.4119 37.1064 21.6438C37.1003 19.8756 36.3921 18.1824 35.1376 16.9364C33.883 15.6905 32.1849 14.9939 30.4168 15Z" fill="#4385F5"/>
</svg>
