<svg width="50" height="50" viewBox="0 0 50 50" fill="none" xmlns="http://www.w3.org/2000/svg">
<path d="M36.0275 3.92745C31.8998 0.573156 26.5045 -0.71786 21.2241 0.38546C14.6254 1.76427 9.2418 7.1712 7.82773 13.84C6.63545 19.4633 8.10469 25.1088 11.8588 29.329C13.7207 31.4222 14.7461 34.0406 14.7461 36.7096V39.6393C14.7461 41.5489 15.9708 43.1772 17.6758 43.7818V45.5963C17.6758 48.0194 19.6472 49.9908 22.0703 49.9908H27.9297C30.3528 49.9908 32.3242 48.0194 32.3242 45.5963V43.7818C34.0292 43.1772 35.2539 41.5489 35.2539 39.6393V36.7096C35.2539 34.0748 36.3098 31.4193 38.2268 29.2321C41.0322 26.0325 42.5787 21.922 42.5781 17.6666C42.5781 12.3183 40.1905 7.31046 36.0275 3.92745ZM29.3945 45.5963C29.3945 46.404 28.7374 47.0611 27.9297 47.0611H22.0703C21.2626 47.0611 20.6055 46.404 20.6055 45.5963V44.0338H29.3945V45.5963ZM32.3242 39.6393C32.3242 40.447 31.6671 41.1041 30.8594 41.1041H19.1406C18.3329 41.1041 17.6758 40.447 17.6758 39.6393V38.1744H32.3242V39.6393ZM25 24.8616C25.9955 24.8612 26.9845 24.7018 27.9297 24.3895V35.2448H22.0703V24.3895C23.0155 24.7018 24.0045 24.8612 25 24.8616ZM22.5513 21.445L25 16.5476L27.4487 21.4449C25.8801 22.0908 24.1199 22.0908 22.5513 21.445ZM36.0236 27.3011C33.9868 29.6248 32.7313 32.4005 32.4077 35.2447H30.8594V22.0656C30.8594 21.8657 30.8161 21.6455 30.7187 21.4387C30.7136 21.4279 30.71 21.4167 30.7047 21.4062L26.3102 12.6171C26.1885 12.3738 26.0015 12.1691 25.7701 12.026C25.5386 11.883 25.272 11.8072 24.9999 11.8072C24.7278 11.8072 24.4612 11.883 24.2297 12.026C23.9983 12.1691 23.8113 12.3738 23.6896 12.6171L19.2951 21.4062C19.1946 21.6112 19.1417 21.8362 19.1405 22.0646V35.2448H17.5959C17.2818 32.3809 16.0496 29.6324 14.0478 27.3819C10.9191 23.8648 9.69658 19.1505 10.6937 14.4478C11.8707 8.89698 16.3434 4.39825 21.8233 3.25323C26.2362 2.33116 30.7399 3.40568 34.1799 6.20109C37.6553 9.0253 39.6484 13.2043 39.6484 17.6666C39.6489 21.2115 38.3606 24.6356 36.0236 27.3011ZM4.39453 17.6666H1.46484C0.655859 17.6666 0 18.3225 0 19.1315C0 19.9404 0.655859 20.5963 1.46484 20.5963H4.39453C5.20352 20.5963 5.85938 19.9404 5.85938 19.1315C5.85938 18.3225 5.20352 17.6666 4.39453 17.6666ZM5.00127 10.3424L2.92969 8.27081C2.35762 7.69874 1.43018 7.69874 0.858105 8.27081C0.286035 8.84288 0.286035 9.77032 0.858105 10.3424L2.92969 12.414C3.50186 12.9861 4.4293 12.9859 5.00127 12.414C5.57334 11.8419 5.57334 10.9145 5.00127 10.3424ZM5.00127 25.8489C4.4292 25.2769 3.50176 25.2769 2.92969 25.8489L0.858105 27.9205C0.286133 28.4926 0.286133 29.42 0.858105 29.9921C1.43008 30.5641 2.35752 30.5642 2.92969 29.9921L5.00127 27.9205C5.57324 27.3484 5.57324 26.421 5.00127 25.8489ZM48.5352 17.6666H45.6055C44.7965 17.6666 44.1406 18.3225 44.1406 19.1315C44.1406 19.9404 44.7965 20.5963 45.6055 20.5963H48.5352C49.3441 20.5963 50 19.9404 50 19.1315C50 18.3225 49.3441 17.6666 48.5352 17.6666ZM49.1419 8.27081C48.5699 7.69874 47.6424 7.69874 47.0703 8.27081L44.9987 10.3424C44.4267 10.9145 44.4267 11.8419 44.9987 12.414C45.5707 12.986 46.4982 12.986 47.0703 12.414L49.1419 10.3424C49.714 9.77032 49.714 8.84288 49.1419 8.27081ZM49.1419 27.9205L47.0703 25.8489C46.4984 25.2769 45.5709 25.2769 44.9987 25.8489C44.4266 26.421 44.4267 27.3484 44.9987 27.9205L47.0703 29.9921C47.6422 30.5642 48.5698 30.5642 49.1419 29.9921C49.714 29.42 49.714 28.4926 49.1419 27.9205Z" fill="#4385F5"/>
</svg>
