<svg width="115" height="115" viewBox="0 0 115 115" fill="none" xmlns="http://www.w3.org/2000/svg">
<path d="M57.5002 0C25.7216 0 0 25.7173 0 57.5002C0 89.2786 25.7171 115 57.5 115C89.2788 115 115 89.2829 115 57.5002C115 25.7309 89.2897 0 57.5002 0ZM94.6938 91.2569C92.4875 93.6858 89.3474 94.844 86.0818 94.436C77.9616 93.4205 74.4849 83.7216 79.903 77.7239C87.6634 69.1573 89.9463 56.6042 85.2617 45.6609C92.2037 45.6089 99.3016 41.2017 101.741 33.6669C111.478 51.6845 109.52 74.9406 94.6938 91.2569ZM29.9033 95.6436C26.9597 96.0412 24.0732 95.1484 21.659 92.6878C17.2841 88.2034 18.4417 80.6236 24.1459 77.6453C25.7194 76.8239 27.1117 75.9788 29.543 75.9788C36.2151 75.9788 41.1701 83.4034 37.735 89.4812C36.426 91.7969 34.7464 94.9889 29.9033 95.6436ZM34.5879 57.5002C34.5879 44.8665 44.8663 34.5881 57.5 34.5881C70.1337 34.5881 80.4121 44.8665 80.4121 57.5002C80.4121 70.134 70.134 80.4124 57.5002 80.4124C44.8665 80.4124 34.5879 70.134 34.5879 57.5002ZM21.9818 21.9818C41.3723 2.59141 72.6513 2.3356 92.3464 21.3258C97.3293 26.1842 95.8479 34.6145 89.369 37.4448C85.1994 39.2684 81.0862 38.2893 78.3278 35.6581C72.7649 30.3624 65.353 27.3184 57.5 27.3184C35.9493 27.3184 21.3573 49.3675 29.6543 69.141C25.9899 68.6666 23.5664 69.7469 20.7808 71.2015C16.9801 73.1861 14.1645 76.4318 12.7469 80.3583C3.2225 61.7596 5.98224 37.9814 21.9818 21.9818ZM34.2373 102.043C38.0423 100.711 41.2382 98.0565 43.276 94.4514C44.6507 92.0195 46.1405 89.5083 45.7738 85.3107C53.3772 88.5289 62.2257 88.5332 70.0352 84.9532C70.228 92.6413 75.4295 99.0368 82.494 101.093C67.6319 109.646 49.2598 109.911 34.2373 102.043Z" fill="#0061FF"/>
</svg>
