<svg width="19" height="18" viewBox="0 0 19 18" fill="none" xmlns="http://www.w3.org/2000/svg">
<path d="M10.752 9.15573C10.7466 9.43889 10.6572 9.71407 10.4952 9.94639C10.3333 10.1787 10.106 10.3577 9.84216 10.4607C9.57834 10.5637 9.28988 10.586 9.01335 10.5249C8.73682 10.4638 8.48467 10.3219 8.28885 10.1173C8.09303 9.91271 7.96237 9.65458 7.91343 9.37563C7.86449 9.09668 7.89947 8.80949 8.01393 8.55044C8.1284 8.2914 8.3172 8.07217 8.5564 7.92055C8.7956 7.76893 9.07444 7.69174 9.35756 7.69877C9.73378 7.7127 10.0898 7.87261 10.3501 8.1446C10.6104 8.41659 10.7545 8.77926 10.752 9.15573Z" fill="white"/>
<path d="M11.7826 4.67757H6.93349C6.45367 4.67757 5.99351 4.86817 5.65423 5.20745C5.31495 5.54673 5.12435 6.00689 5.12435 6.48671V11.4449C5.12435 11.6824 5.17114 11.9177 5.26206 12.1372C5.35298 12.3567 5.48624 12.5561 5.65423 12.7241C5.82222 12.8921 6.02166 13.0254 6.24116 13.1163C6.46065 13.2072 6.69591 13.254 6.93349 13.254H11.7826C12.0202 13.254 12.2554 13.2072 12.4749 13.1163C12.6944 13.0254 12.8938 12.8921 13.0618 12.7241C13.2298 12.5561 13.3631 12.3567 13.454 12.1372C13.5449 11.9177 13.5917 11.6824 13.5917 11.4449V6.49565C13.5927 6.25738 13.5466 6.02127 13.4561 5.80085C13.3656 5.58043 13.2325 5.38003 13.0645 5.21113C12.8964 5.04224 12.6967 4.90817 12.4767 4.81661C12.2567 4.72505 12.0209 4.6778 11.7826 4.67757ZM9.35759 11.5807C8.87756 11.5916 8.4052 11.4591 8.00077 11.2003C7.59634 10.9415 7.2782 10.5681 7.08695 10.1277C6.89569 9.68724 6.84 9.19983 6.92697 8.72763C7.01395 8.25542 7.23965 7.81984 7.57527 7.47647C7.91089 7.1331 8.3412 6.89752 8.8113 6.79979C9.2814 6.70206 9.76995 6.74662 10.2146 6.92777C10.6593 7.10893 11.0399 7.41846 11.3078 7.81688C11.5758 8.21529 11.719 8.68451 11.7191 9.16466C11.7228 9.47838 11.6646 9.78975 11.5479 10.081C11.4312 10.3722 11.2582 10.6376 11.0389 10.862C10.8196 11.0863 10.5583 11.2653 10.2698 11.3886C9.98127 11.5119 9.67131 11.5772 9.35759 11.5807ZM11.9819 6.7495C11.9229 6.74951 11.8645 6.73775 11.8102 6.71491C11.7558 6.69208 11.7065 6.65862 11.6652 6.6165C11.6239 6.57438 11.5915 6.52444 11.5697 6.46962C11.548 6.41479 11.5374 6.35618 11.5386 6.29721C11.5386 6.17726 11.5862 6.06222 11.671 5.9774C11.7559 5.89258 11.8709 5.84493 11.9909 5.84493C12.1108 5.84493 12.2258 5.89258 12.3107 5.9774C12.3955 6.06222 12.4431 6.17726 12.4431 6.29721C12.4449 6.36106 12.4329 6.42455 12.4078 6.48331C12.3828 6.54208 12.3454 6.59474 12.2981 6.63769C12.2508 6.68064 12.1948 6.71287 12.1339 6.73217C12.073 6.75147 12.0087 6.75738 11.9453 6.7495H11.9819Z" fill="white"/>
<path d="M9.35757 0.000111886C6.98695 -0.0117412 4.70871 0.918616 3.02405 2.58652C1.33939 4.25442 0.386294 6.52323 0.37444 8.89386C0.362587 11.2645 1.29294 13.5427 2.96085 15.2274C4.62875 16.912 6.89756 17.8651 9.26818 17.877C10.442 17.8829 11.6055 17.6575 12.6922 17.2137C13.7789 16.7699 14.7675 16.1164 15.6017 15.2906C16.4359 14.4647 17.0992 13.4826 17.5538 12.4004C18.0084 11.3182 18.2454 10.1571 18.2513 8.98324C18.2572 7.80943 18.0318 6.64595 17.588 5.55925C17.1442 4.47254 16.4908 3.48388 15.6649 2.64972C14.839 1.81556 13.857 1.15223 12.7748 0.697613C11.6925 0.242992 10.5314 0.00598095 9.35757 0.000111886ZM14.7859 11.3537C14.7884 11.7547 14.7112 12.1522 14.559 12.5232C14.4067 12.8942 14.1823 13.2312 13.8987 13.5148C13.6152 13.7985 13.2782 14.023 12.9073 14.1753C12.5364 14.3277 12.1389 14.405 11.7379 14.4026H6.97905C6.57811 14.4049 6.1807 14.3276 5.80984 14.1752C5.43897 14.0228 5.102 13.7984 4.81845 13.5149C4.5349 13.2315 4.31038 12.8946 4.15791 12.5238C4.00543 12.1529 3.92802 11.7555 3.93015 11.3546V6.59489C3.92766 6.19388 4.00479 5.79637 4.15707 5.42539C4.30936 5.05442 4.53376 4.71736 4.81728 4.43376C5.1008 4.15015 5.43779 3.92565 5.80873 3.77326C6.17966 3.62086 6.57715 3.54362 6.97816 3.54599H11.7379C12.1388 3.54362 12.5362 3.62084 12.9071 3.77317C13.278 3.92551 13.6149 4.14993 13.8984 4.43344C14.1819 4.71695 14.4064 5.0539 14.5587 5.42477C14.711 5.79565 14.7883 6.19306 14.7859 6.594V11.3537Z" fill="white"/>
</svg>
