<svg width="50" height="50" viewBox="0 0 50 50" fill="none" xmlns="http://www.w3.org/2000/svg">
<path d="M45.0131 26.2199C45.4702 25.5431 45.714 24.7449 45.7131 23.9282V23.1449C45.7131 20.8789 43.8695 19.0352 41.6036 19.0352C40.473 19.0352 39.4477 19.4943 38.7039 20.2358C36.7795 14.5122 31.3636 10.3779 25 10.3779C18.6364 10.3779 13.2205 14.5121 11.2961 20.2358C10.5523 19.4943 9.52705 19.0352 8.39639 19.0352C6.13047 19.0352 4.28691 20.8789 4.28691 23.1449V23.9282C4.28596 24.7449 4.52979 25.5431 4.98691 26.2199C2.14229 26.8193 0 29.3482 0 32.3686V34.3349C0 34.8742 0.437305 35.3115 0.976562 35.3115H6.05469C6.59395 35.3115 7.03125 34.8742 7.03125 34.3349C7.03125 33.7956 6.59395 33.3583 6.05469 33.3583H1.95312V32.3686C1.95312 29.9805 3.8959 28.0377 6.28389 28.0377H10.9059C11.2754 29.6618 11.9244 31.2094 12.8239 32.6112L1.68145 43.7541C0.254688 45.181 0.254687 47.5028 1.68154 48.9298C2.39502 49.6433 3.33203 50 4.26924 50C5.20645 50 6.14365 49.6432 6.85713 48.9298L13 42.7867C13.3813 42.4053 13.3813 41.7869 13 41.4055C12.6186 41.0242 12.0004 41.0242 11.6188 41.4055L5.47607 47.5486C4.81055 48.2141 3.72793 48.214 3.0625 47.5487C2.39717 46.8833 2.39717 45.8005 3.0625 45.1351L14.0007 34.1966C16.6537 37.3082 20.6001 39.2852 25 39.2852C31.868 39.2852 37.6318 34.4696 39.0941 28.0377H43.7161C46.1041 28.0377 48.0469 29.9805 48.0469 32.3686V33.3583H38.8672C38.3279 33.3583 37.8906 33.7956 37.8906 34.3349C37.8906 34.8742 38.3279 35.3115 38.8672 35.3115H49.0234C49.5627 35.3115 50 34.8742 50 34.3349V32.3686C50 29.3482 47.8577 26.8193 45.0131 26.2199ZM10.5527 23.9283C10.5527 25.1173 9.58545 26.0846 8.39639 26.0846C7.20732 26.0846 6.24004 25.1173 6.24004 23.9283V23.145C6.24004 21.9559 7.20732 20.9885 8.39639 20.9885C9.58545 20.9885 10.5527 21.9559 10.5527 23.145V23.9283ZM25 37.332C18.1075 37.332 12.5 31.7243 12.5 24.8315C12.5 17.9388 18.1075 12.3311 25 12.3311C31.8925 12.3311 37.5 17.9388 37.5 24.8315C37.5 31.7243 31.8925 37.332 25 37.332ZM43.7599 23.9283C43.7599 25.1173 42.7926 26.0846 41.6035 26.0846C40.4145 26.0846 39.4472 25.1173 39.4472 23.9283V23.145C39.4472 21.9559 40.4145 20.9885 41.6035 20.9885C42.7926 20.9885 43.7599 21.9559 43.7599 23.145V23.9283Z" fill="#4385F5"/>
<path d="M25 14.2843C19.1844 14.2843 14.4531 19.0157 14.4531 24.8315C14.4531 27.8502 15.7281 30.5764 17.7674 32.5008C17.8022 32.5384 17.8396 32.574 17.8807 32.6062C19.7582 34.3271 22.2585 35.3788 25 35.3788C27.7415 35.3788 30.2418 34.327 32.1193 32.6062C32.1604 32.5741 32.1978 32.5384 32.2326 32.5008C34.2719 30.5764 35.5469 27.8502 35.5469 24.8315C35.5469 19.0158 30.8156 14.2843 25 14.2843ZM25 33.4256C22.9919 33.4256 21.1427 32.7331 19.678 31.5745C20.7156 29.6112 22.7377 28.3759 25 28.3759C27.2623 28.3759 29.2844 29.6112 30.322 31.5745C28.8573 32.7331 27.0081 33.4256 25 33.4256ZM22.9421 24.3647V23.606C22.9421 22.4712 23.8652 21.548 25 21.548C26.1348 21.548 27.0579 22.4712 27.0579 23.606V24.3647C27.0579 25.4995 26.1348 26.4227 25 26.4227C23.8652 26.4227 22.9421 25.4995 22.9421 24.3647ZM31.7505 30.1441C30.8559 28.7166 29.5464 27.628 28.0138 27.0073C28.6338 26.3009 29.011 25.3764 29.011 24.3648V23.6061C29.011 21.3944 27.2116 19.5949 25 19.5949C22.7884 19.5949 20.989 21.3944 20.989 23.6061V24.3648C20.989 25.3764 21.3661 26.3009 21.9862 27.0073C20.4536 27.6281 19.1442 28.7166 18.2495 30.1441C17.0956 28.681 16.4062 26.8353 16.4062 24.8315C16.4062 20.0928 20.2614 16.2375 25 16.2375C29.7386 16.2375 33.5938 20.0928 33.5938 24.8315C33.5938 26.8353 32.9044 28.681 31.7505 30.1441ZM15.6123 38.7934C15.4307 38.6117 15.1787 38.5072 14.9219 38.5072C14.665 38.5072 14.4131 38.6117 14.2314 38.7934C14.0499 38.975 13.9453 39.227 13.9453 39.4838C13.9453 39.7407 14.0498 39.9926 14.2314 40.1743C14.4131 40.3558 14.665 40.4604 14.9219 40.4604C15.1787 40.4604 15.4307 40.3559 15.6123 40.1743C15.7938 39.9926 15.8984 39.7407 15.8984 39.4838C15.8984 39.227 15.7939 38.975 15.6123 38.7934ZM25.0198 0C24.4806 0 24.0433 0.43732 24.0433 0.976597V4.29937C24.0433 4.83874 24.4806 5.27597 25.0198 5.27597C25.5591 5.27597 25.9964 4.83865 25.9964 4.29937V0.976597C25.9964 0.43732 25.5591 0 25.0198 0ZM25.7099 6.82934C25.5265 6.64671 25.2784 6.54388 25.0195 6.5432C24.7607 6.544 24.5126 6.64681 24.3291 6.82934C24.1466 7.01291 24.0438 7.26097 24.043 7.5198C24.043 7.77664 24.1474 8.0286 24.3291 8.21015C24.5126 8.39267 24.7607 8.49551 25.0195 8.49639C25.2773 8.49639 25.5283 8.3919 25.7099 8.21015C25.8924 8.02665 25.9952 7.77861 25.9961 7.5198C25.9961 7.26295 25.8916 7.01099 25.7099 6.82934ZM33.2987 3.8308C32.9173 3.44954 32.2991 3.44954 31.9176 3.8308L30.2012 5.54727C29.8198 5.92863 29.8198 6.54701 30.2012 6.92847C30.392 7.1191 30.6418 7.21451 30.8918 7.21451C31.1418 7.21451 31.3916 7.1191 31.5823 6.92847L33.2987 5.212C33.6801 4.83064 33.6801 4.21226 33.2987 3.8308ZM19.8152 5.55908L18.0823 3.82611C17.7009 3.44485 17.0827 3.44485 16.7012 3.82611C16.3198 4.20747 16.3198 4.82585 16.7012 5.20731L18.4342 6.94028C18.5248 7.03109 18.6324 7.10311 18.7509 7.15219C18.8694 7.20128 18.9964 7.22648 19.1247 7.22633C19.253 7.22648 19.38 7.20128 19.4985 7.15219C19.617 7.10311 19.7246 7.03109 19.8152 6.94028C20.1966 6.55892 20.1966 5.94054 19.8152 5.55908Z" fill="#4385F5"/>
</svg>
