<svg width="81" height="46" viewBox="0 0 81 46" fill="none" xmlns="http://www.w3.org/2000/svg">
<path d="M0.292893 37.2929C-0.0976311 37.6834 -0.0976311 38.3166 0.292893 38.7071L6.65685 45.0711C7.04738 45.4616 7.68054 45.4616 8.07107 45.0711C8.46159 44.6805 8.46159 44.0474 8.07107 43.6569L2.41421 38L8.07107 32.3431C8.46159 31.9526 8.46159 31.3195 8.07107 30.9289C7.68054 30.5384 7.04738 30.5384 6.65685 30.9289L0.292893 37.2929ZM1 39H2.90278V37H1V39ZM6.70833 39H10.5139V37H6.70833V39ZM14.3194 39H18.125V37H14.3194V39ZM21.9306 39H25.7361V37H21.9306V39ZM29.5417 39H33.3472V37H29.5417V39ZM37.1528 39H40.9583V37H37.1528V39ZM44.7639 39H48.5695V37H44.7639V39ZM52.375 39H56.1806V37H52.375V39ZM59.9861 39H63.7917V37H59.9861V39ZM67.5972 39H69.5V37H67.5972V39ZM69.5 39C70.2334 39 70.9509 38.9281 71.6457 38.7906L71.2576 36.8287C70.6899 36.941 70.1023 37 69.5 37V39ZM75.6125 37.1466C76.8116 36.3438 77.8438 35.3116 78.6466 34.1125L76.9847 32.9998C76.3273 33.9817 75.4817 34.8273 74.4998 35.4847L75.6125 37.1466ZM80.2906 30.1457C80.4281 29.4509 80.5 28.7334 80.5 28H78.5C78.5 28.6023 78.441 29.1899 78.3287 29.7576L80.2906 30.1457ZM80.5 28V26.25H78.5V28H80.5ZM80.5 22.75V19.25H78.5V22.75H80.5ZM80.5 15.75V12.25H78.5V15.75H80.5ZM80.5 8.75V5.25H78.5V8.75H80.5ZM80.5 1.75V0H78.5V1.75H80.5ZM0.292893 37.2929C-0.0976311 37.6834 -0.0976311 38.3166 0.292893 38.7071L6.65685 45.0711C7.04738 45.4616 7.68054 45.4616 8.07107 45.0711C8.46159 44.6805 8.46159 44.0474 8.07107 43.6569L2.41421 38L8.07107 32.3431C8.46159 31.9526 8.46159 31.3195 8.07107 30.9289C7.68054 30.5384 7.04738 30.5384 6.65685 30.9289L0.292893 37.2929ZM1 39H2.90278V37H1V39ZM6.70833 39H10.5139V37H6.70833V39ZM14.3194 39H18.125V37H14.3194V39ZM21.9306 39H25.7361V37H21.9306V39ZM29.5417 39H33.3472V37H29.5417V39ZM37.1528 39H40.9583V37H37.1528V39ZM44.7639 39H48.5695V37H44.7639V39ZM52.375 39H56.1806V37H52.375V39ZM59.9861 39H63.7917V37H59.9861V39ZM67.5972 39H69.5V37H67.5972V39ZM69.5 39C70.2334 39 70.9509 38.9281 71.6457 38.7906L71.2576 36.8287C70.6899 36.941 70.1023 37 69.5 37V39ZM75.6125 37.1466C76.8116 36.3438 77.8438 35.3116 78.6466 34.1125L76.9847 32.9998C76.3273 33.9817 75.4817 34.8273 74.4998 35.4847L75.6125 37.1466ZM80.2906 30.1457C80.4281 29.4509 80.5 28.7334 80.5 28H78.5C78.5 28.6023 78.441 29.1899 78.3287 29.7576L80.2906 30.1457ZM80.5 28V26.25H78.5V28H80.5ZM80.5 22.75V19.25H78.5V22.75H80.5ZM80.5 15.75V12.25H78.5V15.75H80.5ZM80.5 8.75V5.25H78.5V8.75H80.5ZM80.5 1.75V0H78.5V1.75H80.5Z" fill="#4385F5"/>
</svg>
