<svg width="18" height="18" viewBox="0 0 18 18" fill="none" xmlns="http://www.w3.org/2000/svg">
<path d="M8.93855 0C7.17067 0 5.4425 0.524237 3.97256 1.50642C2.50262 2.4886 1.35695 3.88461 0.68041 5.51791C0.00387291 7.15122 -0.17314 8.94846 0.171756 10.6824C0.516651 12.4163 1.36797 14.009 2.61804 15.259C3.86812 16.5091 5.46082 17.3604 7.19473 17.7053C8.92863 18.0502 10.7259 17.8732 12.3592 17.1967C13.9925 16.5201 15.3885 15.3745 16.3707 13.9045C17.3529 12.4346 17.8771 10.7064 17.8771 8.93854C17.8771 6.56789 16.9354 4.29434 15.2591 2.61804C13.5828 0.941737 11.3092 0 8.93855 0ZM6.33931 13.643H4.3893V7.36136H6.33931V13.643ZM5.36313 6.50397C5.13871 6.50489 4.91905 6.43927 4.73192 6.31538C4.54479 6.1915 4.39859 6.01491 4.3118 5.80795C4.225 5.60099 4.20151 5.37295 4.2443 5.15264C4.28708 4.93233 4.39422 4.72966 4.55217 4.57023C4.71012 4.4108 4.91179 4.30178 5.13169 4.25694C5.35159 4.2121 5.57984 4.23346 5.7876 4.31832C5.99536 4.40318 6.1733 4.54773 6.29893 4.7337C6.42455 4.91967 6.49222 5.13871 6.49339 5.36313C6.49402 5.66406 6.37547 5.953 6.16368 6.16678C5.95188 6.38056 5.66406 6.50179 5.36313 6.50397ZM13.643 13.643H11.6942V10.5851C11.6942 9.85592 11.6801 8.9209 10.6804 8.9209C9.68068 8.9209 9.50426 9.71361 9.50426 10.5322V13.643H7.56248V7.36136H9.4337V8.21758H9.46075C9.72067 7.72361 10.357 7.20259 11.3061 7.20259C13.2796 7.20259 13.643 8.50338 13.643 10.1923V13.643Z" fill="white"/>
</svg>
