<svg width="50" height="40" viewBox="0 0 50 40" fill="none" xmlns="http://www.w3.org/2000/svg">
<path d="M48.7216 13.7795C48.0765 13.1315 47.2435 12.7036 46.3411 12.5565C45.4387 12.4094 44.5129 12.5506 43.6954 12.9602C40.8386 5.39999 33.5477 0 25 0C16.4523 0 9.15915 5.40226 6.30234 12.9636C5.63735 12.6293 4.89768 12.4712 4.15412 12.5045C3.41056 12.5379 2.688 12.7615 2.0556 13.154C1.42319 13.5464 0.902097 14.0947 0.542198 14.7462C0.1823 15.3977 -0.00436247 16.1307 7.73913e-05 16.875V24.3749C0.000220722 25.158 0.210596 25.9267 0.609238 26.6007C1.00788 27.2747 1.58016 27.8294 2.26634 28.2067C2.95251 28.5841 3.72741 28.7703 4.51011 28.7459C5.29281 28.7215 6.05461 28.4874 6.71597 28.0681C7.90175 30.7412 9.65734 33.1229 11.8599 35.0465C14.0624 36.9701 16.6587 38.3892 19.4671 39.2045C19.5574 39.4383 19.7163 39.6395 19.9229 39.7814C20.1296 39.9234 20.3743 39.9995 20.625 39.9999H29.375C29.7065 39.9999 30.0245 39.8682 30.2589 39.6338C30.4933 39.3994 30.625 39.0814 30.625 38.7499V36.2499C30.625 35.9184 30.4933 35.6005 30.2589 35.366C30.0245 35.1316 29.7065 34.9999 29.375 34.9999H20.625C20.2935 34.9999 19.9756 35.1316 19.7412 35.366C19.5067 35.6005 19.375 35.9184 19.375 36.2499V36.5556C12.4796 34.2045 7.50006 27.6806 7.50006 20C7.50006 10.3511 15.35 2.49999 25 2.49999C34.65 2.49999 42.5 10.3511 42.5 20C42.5015 21.8206 42.2186 23.6303 41.6613 25.3636C41.6033 25.5274 41.5804 25.7017 41.5943 25.8749C41.6098 26.0683 41.6701 26.2555 41.7704 26.4215C42.226 27.285 42.9577 27.9709 43.8488 28.3698C44.7398 28.7687 45.7389 28.8574 46.6863 28.622C47.6338 28.3865 48.475 27.8403 49.0756 27.0707C49.6763 26.301 50.0017 25.3524 50 24.3761V16.8761C50.0022 16.3011 49.8903 15.7313 49.6709 15.1998C49.4515 14.6682 49.1288 14.1855 48.7216 13.7795ZM4.37507 26.2499C3.87797 26.2493 3.40141 26.0516 3.04991 25.7001C2.69841 25.3486 2.50067 24.872 2.50007 24.3749V16.875C2.49907 16.521 2.59859 16.174 2.78707 15.8744C2.97554 15.5747 3.24522 15.3348 3.56472 15.1824C3.88423 15.03 4.24043 14.9715 4.59189 15.0136C4.94336 15.0558 5.27563 15.1968 5.55007 15.4204C4.73838 18.7662 4.8262 22.2672 5.80461 25.5681C5.63171 25.7806 5.41377 25.9519 5.16654 26.0699C4.91932 26.1878 4.64898 26.2493 4.37507 26.2499ZM47.5 24.3749C47.4994 24.872 47.3016 25.3486 46.9501 25.7001C46.5986 26.0516 46.1221 26.2493 45.625 26.2499C45.3525 26.2484 45.0838 26.1865 44.8382 26.0686C44.5925 25.9507 44.3761 25.7798 44.2045 25.5681C45.1782 22.2696 45.266 18.7728 44.4591 15.4295C45.1738 14.8681 46.2977 14.8829 46.9591 15.5431C47.1329 15.7183 47.2702 15.9262 47.363 16.1548C47.4559 16.3835 47.5024 16.6282 47.5 16.875V24.3749Z" fill="#4385F5"/>
<path d="M36.8624 26.6352C37.28 25.804 37.4983 24.887 37.4999 23.9568V16.0443C37.4981 14.442 36.8609 12.9058 35.728 11.7727C34.5951 10.6396 33.0591 10.0021 31.4568 10H18.5432C16.9409 10.0021 15.4048 10.6396 14.2719 11.7727C13.139 12.9058 12.5018 14.442 12.5 16.0443V23.9568C12.5018 25.559 13.1391 27.095 14.272 28.228C15.4049 29.3609 16.941 29.9982 18.5432 30H31.1363L36.8329 33.5602C37.0512 33.6968 37.3063 33.7627 37.5634 33.7489C37.8206 33.735 38.0671 33.6421 38.2695 33.4828C38.4718 33.3235 38.62 33.1056 38.6938 32.8589C38.7676 32.6122 38.7634 32.3487 38.6818 32.1045L36.8624 26.6352ZM32.159 27.6863C31.9604 27.5622 31.7308 27.4965 31.4965 27.4966H18.5432C17.6044 27.4954 16.7044 27.1221 16.0403 26.4587C15.3762 25.7952 15.0021 24.8955 15 23.9568V16.0443C15.0012 15.1049 15.3748 14.2042 16.039 13.5398C16.7032 12.8754 17.6037 12.5015 18.5432 12.5H31.4568C32.3962 12.5015 33.2967 12.8754 33.9609 13.5398C34.6251 14.2042 34.9987 15.1049 34.9999 16.0443V23.9568C34.9967 24.6242 34.8044 25.2771 34.4454 25.8397C34.3465 25.9962 34.2836 26.1727 34.2612 26.3564C34.2388 26.5402 34.2574 26.7266 34.3159 26.9022L35.2147 29.5977L32.159 27.6863Z" fill="#4385F5"/>
<path d="M30 16.25H20C19.6685 16.25 19.3505 16.3817 19.1161 16.6161C18.8817 16.8505 18.75 17.1685 18.75 17.5C18.75 17.8315 18.8817 18.1495 19.1161 18.3839C19.3505 18.6183 19.6685 18.75 20 18.75H30C30.3315 18.75 30.6494 18.6183 30.8839 18.3839C31.1183 18.1495 31.25 17.8315 31.25 17.5C31.25 17.1685 31.1183 16.8505 30.8839 16.6161C30.6494 16.3817 30.3315 16.25 30 16.25ZM30 21.25H20C19.6685 21.25 19.3505 21.3817 19.1161 21.6161C18.8817 21.8505 18.75 22.1685 18.75 22.5C18.75 22.8315 18.8817 23.1494 19.1161 23.3839C19.3505 23.6183 19.6685 23.75 20 23.75H30C30.3315 23.75 30.6494 23.6183 30.8839 23.3839C31.1183 23.1494 31.25 22.8315 31.25 22.5C31.25 22.1685 31.1183 21.8505 30.8839 21.6161C30.6494 21.3817 30.3315 21.25 30 21.25Z" fill="#4385F5"/>
</svg>
