<svg width="46" height="52" viewBox="0 0 46 52" fill="none" xmlns="http://www.w3.org/2000/svg">
<path d="M42.3801 20.5368L25.1011 3.32206C23.3149 1.54235 20.4081 1.54225 18.6216 3.32206C17.0157 4.92187 16.8774 7.36182 18.0633 9.10408L18.0393 9.22392C16.7935 15.4301 13.7607 21.076 9.26847 25.5515L1.34308 33.4474C-0.44754 35.2315 -0.447846 38.1188 1.34308 39.9029L5.66269 44.2064C7.4532 45.9904 10.3515 45.9905 12.1422 44.2064L13.2221 43.1305L20.7816 50.6619C22.5722 52.446 25.4703 52.4461 27.261 50.6619C29.0475 48.8822 29.0475 45.9863 27.261 44.2065L24.0213 40.9788L25.1012 39.9029C26.8918 38.119 26.892 35.2317 25.1012 33.4475L24.3673 32.7163C27.9776 30.198 32.0777 28.4448 36.4563 27.5723L36.5781 27.548C38.3658 28.7505 40.8091 28.5572 42.3801 26.9921H42.3802C44.1663 25.2125 44.1663 22.3166 42.3801 20.5368ZM9.98239 42.0547C9.38559 42.6491 8.41929 42.6493 7.82249 42.0546L3.50288 37.751C2.90598 37.1562 2.90598 36.1939 3.50288 35.5992L11.0622 28.0678L17.5418 34.5233L9.98239 42.0547ZM25.1011 46.3582C25.6965 46.9514 25.6965 47.9167 25.1011 48.51C24.5057 49.1032 23.5367 49.1032 22.9413 48.51L15.3819 40.9786L17.5418 38.8268L25.1011 46.3582ZM19.7016 36.6751C20.1607 36.2176 20.8479 35.517 21.9326 34.5941L22.9413 35.5992C23.5382 36.1939 23.5382 37.1562 22.9413 37.751L21.8614 38.8269L19.7016 36.6751ZM19.7664 32.4362L13.157 25.8513C16.699 21.7765 19.2355 16.9666 20.5926 11.7411L33.9293 25.0282C28.6843 26.3801 23.8565 28.9072 19.7664 32.4362ZM40.2199 24.8402C39.623 25.4348 38.6571 25.4348 38.0601 24.8402L20.7814 7.62563C20.1845 7.03084 20.1845 6.06854 20.7814 5.47385C21.3783 4.87916 22.3444 4.87916 22.9413 5.47385L40.2199 22.6883C40.8153 23.2816 40.8153 24.2468 40.2199 24.8402Z" fill="#0061FF"/>
<path d="M12.211 33.4922C11.6157 32.8963 10.6502 32.8963 10.0548 33.4922L7.89869 35.65C7.3033 36.2459 7.3033 37.212 7.89869 37.8079C8.49398 38.4037 9.45955 38.4037 10.0548 37.8079L12.211 35.65C12.8064 35.0542 12.8064 34.088 12.211 33.4922ZM32.1506 0C31.3086 0 30.626 0.683165 30.626 1.52588V4.57763C30.626 5.42034 31.3086 6.10351 32.1506 6.10351C32.9927 6.10351 33.6753 5.42034 33.6753 4.57763V1.52588C33.6753 0.683165 32.9927 0 32.1506 0ZM44.3479 12.2068H41.2985C40.4565 12.2068 39.7739 12.89 39.7739 13.7327C39.7739 14.5754 40.4565 15.2586 41.2985 15.2586H44.3479C45.1899 15.2586 45.8725 14.5754 45.8725 13.7327C45.8725 12.89 45.1898 12.2068 44.3479 12.2068ZM42.3767 3.49855C41.7814 2.90269 40.8159 2.90269 40.2205 3.49855L37.1712 6.5503C36.5758 7.14616 36.5758 8.1123 37.1712 8.70816C37.7665 9.30402 38.7319 9.30413 39.3273 8.70816L42.3767 5.65641C42.972 5.06055 42.972 4.09451 42.3767 3.49855Z" fill="#0061FF"/>
</svg>
