<svg width="52" height="52" viewBox="0 0 52 52" fill="none" xmlns="http://www.w3.org/2000/svg">
<path d="M26.0903 18.1416C26.8062 18.1416 27.3858 17.5617 27.3858 16.8463C27.3858 16.131 26.8062 15.5509 26.0903 15.5509C20.3668 15.5509 15.7268 20.1903 15.7268 25.9135C15.7268 31.6363 20.3668 36.2757 26.0903 36.2757C31.8144 36.2757 36.4544 31.6363 36.4544 25.9135C36.4544 25.1979 35.8743 24.6183 35.1589 24.6183C34.4435 24.6183 33.8634 25.1979 33.8634 25.9135C33.8634 30.2057 30.3836 33.6855 26.0903 33.6855C21.7976 33.6855 18.3174 30.2057 18.3174 25.9135C18.3174 21.6209 21.7976 18.1416 26.0903 18.1416Z" fill="#4385F5"/>
<path d="M50.8083 18.2198C50.5832 17.5402 49.8501 17.1717 49.1699 17.3965C48.5057 17.6163 48.1359 18.3233 48.3339 18.9941C52.208 31.3297 45.3477 44.4696 33.0106 48.3433C20.6739 52.2169 7.53205 45.3576 3.65794 33.0221C-0.216681 20.6867 6.64407 7.54661 18.9808 3.67291C23.5475 2.23914 28.4439 2.23914 33.0106 3.67291C33.6962 3.87959 34.4195 3.49162 34.6264 2.80608C34.8299 2.13079 34.4565 1.41711 33.7855 1.19895C20.0867 -3.09846 5.49697 4.52157 1.19909 18.219C-3.0989 31.916 4.52245 46.5037 18.2214 50.801C31.9207 55.0985 46.5099 47.4784 50.8078 33.781C52.3973 28.7157 52.3975 23.2852 50.8083 18.2198Z" fill="#4385F5"/>
<path d="M28.5577 9.25409C28.5644 8.51654 27.9978 7.90005 27.2622 7.8449C26.8753 7.812 26.488 7.77909 26.0908 7.77909C16.074 7.77909 7.95393 15.8981 7.95393 25.9135C7.95393 35.9286 16.074 44.0476 26.0908 44.0476C36.1072 44.0476 44.2273 35.9286 44.2273 25.9136C44.2273 25.445 44.1988 24.9769 44.1413 24.5119C44.0377 23.801 43.3774 23.3086 42.6664 23.4122C41.9554 23.5153 41.4629 24.176 41.5661 24.8869C41.5701 24.9138 41.5749 24.9403 41.5804 24.9674C41.6086 25.2812 41.6363 25.5922 41.6363 25.9128C41.6367 34.4976 34.6768 41.4566 26.0912 41.4574C17.5053 41.4578 10.5452 34.4983 10.5449 25.9139C10.5445 17.3295 17.504 10.3701 26.0901 10.3698C26.4116 10.3698 26.7232 10.3975 27.0364 10.4252L27.2791 10.4455C27.9561 10.4745 28.5282 9.94918 28.5568 9.27237C28.5573 9.26597 28.5573 9.26008 28.5577 9.25409Z" fill="#4385F5"/>
<path d="M33.8633 11.665V16.3099L25.1745 24.9975C24.6599 25.4946 24.6457 26.3147 25.1428 26.8292C25.64 27.3437 26.4603 27.358 26.9748 26.861C26.9855 26.8506 26.9962 26.84 27.0065 26.8292L35.6954 18.1416H40.3408C40.6844 18.1416 41.0137 18.0051 41.257 17.762L49.0296 9.99C49.5355 9.48422 49.5355 8.66421 49.0296 8.15832C48.9093 8.03808 48.7666 7.94269 48.6094 7.87762C48.4523 7.81255 48.2839 7.77907 48.1138 7.77909H44.2273V3.8931C44.2273 3.17779 43.6473 2.59776 42.9314 2.59817C42.5881 2.59825 42.2588 2.73466 42.0161 2.97741L34.243 10.7494C34.1227 10.8695 34.0272 11.0123 33.962 11.1694C33.8969 11.3265 33.8633 11.4949 33.8633 11.665ZM36.4544 12.2014L41.6363 7.02011V9.07442C41.6363 9.78972 42.2164 10.3697 42.9318 10.3697H44.9864L39.8043 15.551H36.4544V12.2014Z" fill="#4385F5"/>
</svg>
