<svg width="52" height="52" viewBox="0 0 52 52" fill="none" xmlns="http://www.w3.org/2000/svg">
<path fill-rule="evenodd" clip-rule="evenodd" d="M14.1256 14.4967H32.0072C32.2945 14.4967 32.5701 14.384 32.7732 14.1835C32.9764 13.9829 33.0905 13.7109 33.0905 13.4272C33.0905 13.1436 32.9764 12.8715 32.7732 12.671C32.5701 12.4704 32.2945 12.3577 32.0072 12.3577H14.1256C13.8383 12.3577 13.5627 12.4704 13.3596 12.671C13.1564 12.8715 13.0423 13.1436 13.0423 13.4272C13.0423 13.7109 13.1564 13.9829 13.3596 14.1835C13.5627 14.384 13.8383 14.4967 14.1256 14.4967ZM9.28417 18.7747H27.7118C28.3103 18.7747 28.7962 18.2956 28.7962 17.7052C28.7962 17.1149 28.3103 16.6357 27.7118 16.6357H9.28417C8.68563 16.6357 8.19975 17.1149 8.19975 17.7052C8.19975 18.2956 8.68563 18.7747 9.28417 18.7747ZM9.27442 23.0527H19.0342C19.6328 23.0527 20.1186 22.5736 20.1186 21.9832C20.1186 21.3928 19.6328 20.9137 19.0342 20.9137H9.27442C8.67588 20.9137 8.19 21.3928 8.19 21.9832C8.19 22.5736 8.67588 23.0527 9.27442 23.0527ZM10.2917 46.5159V36.8808C10.2917 36.2899 9.80634 35.8102 9.20834 35.8102C8.61034 35.8102 8.125 36.2899 8.125 36.8808V46.5159C8.125 47.1068 8.61034 47.5864 9.20834 47.5864C9.80634 47.5864 10.2917 47.1068 10.2917 46.5159ZM14.625 46.5961V30.021C14.625 29.7374 14.5109 29.4653 14.3077 29.2648C14.1046 29.0642 13.829 28.9515 13.5417 28.9515C13.2544 28.9515 12.9788 29.0642 12.7757 29.2648C12.5725 29.4653 12.4584 29.7374 12.4584 30.021V46.5961C12.4584 46.8797 12.5725 47.1518 12.7757 47.3523C12.9788 47.5529 13.2544 47.6656 13.5417 47.6656C13.829 47.6656 14.1046 47.5529 14.3077 47.3523C14.5109 47.1518 14.625 46.8797 14.625 46.5961ZM18.9584 46.5891V43.9165C18.9584 43.6328 18.8442 43.3608 18.6411 43.1602C18.4379 42.9596 18.1624 42.847 17.875 42.847C17.5877 42.847 17.3122 42.9596 17.109 43.1602C16.9058 43.3608 16.7917 43.6328 16.7917 43.9165V46.5891C16.7917 46.8728 16.9058 47.1448 17.109 47.3454C17.3122 47.5459 17.5877 47.6586 17.875 47.6586C18.1624 47.6586 18.4379 47.5459 18.6411 47.3454C18.8442 47.1448 18.9584 46.8728 18.9584 46.5891Z" fill="#4385F5"/>
<path d="M30.9532 39.2441C33.6472 39.2441 35.8312 37.088 35.8312 34.4284C35.8312 31.7688 33.6472 29.6127 30.9532 29.6127C28.2591 29.6127 26.0752 31.7688 26.0752 34.4284C26.0752 37.088 28.2591 39.2441 30.9532 39.2441Z" fill="#4385F5"/>
<path fill-rule="evenodd" clip-rule="evenodd" d="M29.7918 5.94075H39.0002V19.8442C39.0002 20.4346 39.4877 20.9137 40.0835 20.9137C40.6793 20.9137 41.1668 20.4346 41.1668 19.8442V4.87125C41.1668 4.28035 40.6848 3.80175 40.0835 3.80175H29.7918V1.66276C29.7918 1.07186 29.3097 0.593262 28.7085 0.593262H12.4584C11.8571 0.593262 11.375 1.07186 11.375 1.66276V3.80175H1.08334C0.482085 3.80175 0 4.28035 0 4.87125V50.8596C0 51.4505 0.482085 51.9291 1.08334 51.9291H40.0835C40.6848 51.9291 41.1668 51.4505 41.1668 50.8596V42.9673C43.1927 40.631 44.4169 37.5968 44.4169 34.2824C44.4169 32.2926 43.9727 30.4034 43.1819 28.7055C43.1224 28.5781 43.0381 28.4634 42.9337 28.3681C42.8294 28.2729 42.707 28.1988 42.5737 28.1502C42.4404 28.1016 42.2986 28.0794 42.1566 28.0848C42.0145 28.0903 41.875 28.1233 41.7459 28.182C41.6168 28.2407 41.5007 28.324 41.4041 28.427C41.3076 28.53 41.2326 28.6508 41.1833 28.7824C41.1341 28.914 41.1116 29.054 41.1171 29.1942C41.1227 29.3344 41.1561 29.4722 41.2156 29.5996C41.9003 31.068 42.2534 32.6659 42.2502 34.2824C42.2502 40.4802 37.1531 45.5121 30.8751 45.5121C24.5972 45.5121 19.5001 40.4802 19.5001 34.2824C19.5001 28.0847 24.5972 23.0527 30.8751 23.0527C33.6268 23.0527 36.1456 24.0179 38.1172 25.6232L36.5735 27.1435C34.9518 25.8764 32.9433 25.1885 30.8751 25.1917C25.7943 25.1917 21.6668 29.2649 21.6668 34.2824C21.6668 39.3 25.7943 43.3731 30.8751 43.3731C35.956 43.3731 40.0835 39.3 40.0835 34.2824C40.0835 33.5921 40.0077 32.9194 39.856 32.2723C39.8249 32.1353 39.7667 32.0057 39.6848 31.8909C39.6028 31.7761 39.4987 31.6784 39.3784 31.6035C39.2582 31.5285 39.1241 31.4777 38.9839 31.454C38.8437 31.4303 38.7001 31.4342 38.5614 31.4654C38.2812 31.528 38.0376 31.6979 37.8843 31.9378C37.7309 32.1776 37.6803 32.4678 37.7435 32.7445C37.8572 33.2391 37.9168 33.7541 37.9168 34.2824C37.9168 38.1192 34.7643 41.2342 30.8751 41.2342C26.9914 41.2342 23.8334 38.1192 23.8334 34.2824C23.8334 30.4456 26.9914 27.3307 30.8751 27.3307C32.4297 27.3307 33.8651 27.828 35.0297 28.6697L30.1114 33.5263C29.6889 33.9434 29.6889 34.6215 30.1114 35.0386C30.2115 35.1378 30.3306 35.2166 30.4616 35.2704C30.5927 35.3241 30.7332 35.3518 30.8751 35.3518C31.0171 35.3518 31.1576 35.3241 31.2886 35.2704C31.4197 35.2166 31.5387 35.1378 31.6389 35.0386L45.1806 21.6698C45.6085 21.2527 45.6085 20.5747 45.1806 20.1576C45.0805 20.0583 44.9614 19.9795 44.8304 19.9258C44.6993 19.872 44.5588 19.8444 44.4169 19.8444C44.2749 19.8444 44.1344 19.872 44.0033 19.9258C43.8723 19.9795 43.7533 20.0583 43.6531 20.1576L39.6502 24.1051C37.2049 22.0412 34.0923 20.9092 30.8751 20.9137C23.4001 20.9137 17.3334 26.904 17.3334 34.2824C17.3334 41.6609 23.4001 47.6511 30.8751 47.6511C33.9193 47.6511 36.736 46.6554 39.0002 44.9753V49.7901H2.16668V5.94075H11.375V8.07974C11.375 8.67064 11.8571 9.14924 12.4584 9.14924H16.7917C17.3876 9.14924 17.8751 8.6701 17.8751 8.07974C17.8751 7.48938 17.3876 7.01025 16.7917 7.01025H13.5417V2.73226H27.6251V7.01025H26.5418C25.9459 7.01025 25.4584 7.48938 25.4584 8.07974C25.4584 8.6701 25.9459 9.14924 26.5418 9.14924H28.7085C29.3097 9.14924 29.7918 8.67064 29.7918 8.07974V5.94075ZM21.1251 9.14924H22.2084C22.8043 9.14924 23.2918 8.6701 23.2918 8.07974C23.2918 7.48938 22.8043 7.01025 22.2084 7.01025H21.1251C20.5293 7.01025 20.0418 7.48938 20.0418 8.07974C20.0418 8.6701 20.5293 9.14924 21.1251 9.14924Z" fill="#4385F5"/>
<path fill-rule="evenodd" clip-rule="evenodd" d="M43.3335 20.9137C43.3335 21.1973 43.4476 21.4694 43.6508 21.6699C43.854 21.8705 44.1295 21.9832 44.4168 21.9832H47.6668C47.9541 21.9831 48.2297 21.8704 48.4328 21.6698L51.6828 18.4613C51.8342 18.3118 51.9374 18.1212 51.9792 17.9138C52.0209 17.7063 51.9995 17.4913 51.9175 17.2959C51.8355 17.1005 51.6967 16.9335 51.5186 16.816C51.3405 16.6985 51.1311 16.6357 50.9169 16.6357H48.7502V14.4967C48.7501 14.2852 48.6866 14.0785 48.5675 13.9026C48.4485 13.7268 48.2793 13.5898 48.0814 13.5088C47.8835 13.4279 47.6657 13.4067 47.4556 13.448C47.2454 13.4892 47.0524 13.591 46.9009 13.7406L43.6509 16.9491C43.4477 17.1496 43.3336 17.4216 43.3335 17.7052V20.9137Z" fill="#4385F5"/>
</svg>
