<svg width="17" height="18" viewBox="0 0 17 18" fill="none" xmlns="http://www.w3.org/2000/svg">
<path d="M8.5 0.5C3.81296 0.5 0 4.31296 0 9C0 13.687 3.81296 17.5 8.5 17.5H17V9C17 4.31296 13.187 0.5 8.5 0.5ZM15.5833 16.0833H8.5C4.59425 16.0833 1.41667 12.9057 1.41667 9C1.41667 5.09425 4.59425 1.91667 8.5 1.91667C12.4057 1.91667 15.5833 5.09425 15.5833 9V16.0833ZM5.66667 6.16667H7.79167V9.70833C7.79167 11.2709 6.52092 12.5417 4.95833 12.5417V11.125C5.73962 11.125 6.375 10.4896 6.375 9.70833H4.25V7.58333C4.25 6.80204 4.88538 6.16667 5.66667 6.16667ZM10.625 6.16667H12.75V9.70833C12.75 11.2709 11.4792 12.5417 9.91667 12.5417V11.125C10.698 11.125 11.3333 10.4896 11.3333 9.70833H9.20833V7.58333C9.20833 6.80204 9.84371 6.16667 10.625 6.16667Z" fill="white"/>
</svg>
