<svg width="50" height="58" viewBox="0 0 50 58" fill="none" xmlns="http://www.w3.org/2000/svg">
<path d="M32.6614 24.3209V38.7301C33.3912 38.1679 34.1827 37.7034 35.0114 37.3246V24.3209H32.6614ZM42.3087 17.9657V36.3713C43.1126 36.4813 43.9042 36.7013 44.6586 36.9946V17.9657H42.3087ZM45.2028 39.9644C43.9289 39.2067 42.4818 38.7545 40.9976 38.6445H40.9853C40.7255 38.6201 40.4782 38.6078 40.2184 38.6078C39.0805 38.6078 37.9427 38.8034 36.879 39.1945C36.7553 39.2678 36.6193 39.3289 36.4709 39.3534C32.8099 40.8444 30.4228 44.3764 30.4228 48.2873C30.4228 53.6159 34.8011 57.9545 40.2061 57.9545C43.6568 57.9545 46.8602 56.158 48.6288 53.2126C51.3869 48.6173 49.8533 42.6898 45.2028 39.9644ZM42.8405 44.572H43.8794C44.5597 44.572 45.1162 45.1219 45.1162 45.7941C45.1162 46.4663 44.5597 47.0163 43.8794 47.0163H42.8405C42.6426 47.7251 42.2592 48.3606 41.7273 48.8739C41.1213 49.4728 40.3668 49.8883 39.5258 50.0594L42.6302 52.9682C43.125 53.4326 43.1497 54.2148 42.6797 54.7036C42.2097 55.1925 41.4181 55.2169 40.9234 54.7525L35.6545 49.8394C35.4072 49.6072 35.2588 49.2772 35.2711 48.935C35.2835 48.2751 35.8401 47.7618 36.508 47.774H38.6106C39.1177 47.7618 39.6124 47.554 39.9711 47.1874C40.0082 47.1507 40.0453 47.1629 40.0824 47.0407H36.508C35.8277 47.0407 35.2711 46.4907 35.2711 45.8186C35.2711 45.1464 35.8277 44.5964 36.508 44.5964H40.0947C39.7113 44.2053 39.1795 43.9853 38.6229 43.9853H36.5203C35.8401 43.9853 35.2835 43.4354 35.2835 42.7632C35.2835 42.091 35.8401 41.541 36.5203 41.541H43.8794C44.5597 41.541 45.1162 42.091 45.1162 42.7632C45.1162 43.4354 44.572 43.9853 43.8671 43.9609H42.5684C42.6797 44.1564 42.7663 44.3642 42.8405 44.572ZM13.2433 34.0981H15.5933V50.9638H13.2433V34.0981ZM23.0142 31.2871H25.3642V50.9638H23.0142V31.2871ZM3.47244 44.6086H5.8224V50.9638H3.47244V44.6086ZM46.9467 0L38.4869 0.0122215C37.8066 0 37.2501 0.549969 37.2377 1.22215C37.2253 1.89434 37.7819 2.44431 38.4621 2.45653H38.4869L43.966 2.44431L30.5465 15.6558L25.8589 11.0605C25.6239 10.8405 25.3024 10.7305 24.9808 10.7427C24.6592 10.7305 24.3376 10.8405 24.1026 11.0605L0.355646 34.5258C-0.126715 35.0025 -0.114347 35.7724 0.368014 36.2491C0.850375 36.7135 1.62957 36.7135 2.11193 36.2369L24.9931 13.627L29.6807 18.2956C29.9033 18.5401 30.2249 18.6745 30.5588 18.6867C30.8928 18.6745 31.202 18.5401 31.437 18.2956L45.7099 4.17977L45.6975 9.61835C45.6975 10.3028 46.2417 10.8527 46.9344 10.8772C47.627 10.8649 48.1712 10.3028 48.1712 9.61835L48.1836 1.23438C48.1836 0.562191 47.627 0 46.9467 0Z" fill="#4385F5"/>
</svg>
