<svg width="50" height="50" viewBox="0 0 50 50" fill="none" xmlns="http://www.w3.org/2000/svg">
<path d="M1.93414 26.745C1.53673 26.7472 1.14835 26.6375 0.822433 26.4312C0.496515 26.2249 0.249078 25.9321 0.114168 25.593C-0.0207417 25.2538 -0.0364939 24.8851 0.0690788 24.5376C0.174651 24.19 0.39636 23.8806 0.7037 23.6521L16.0842 12.0246C16.4392 11.7432 16.8945 11.5882 17.3659 11.5882C17.8372 11.5882 18.2926 11.7432 18.6476 12.0246L25.0048 18.0243L46.7939 0.443553C47.1746 0.135172 47.6747 -0.0233743 48.1843 0.00279269C48.6939 0.0289597 49.1711 0.237696 49.5111 0.583083C49.851 0.928469 50.0258 1.38221 49.9969 1.8445C49.9681 2.30678 49.738 2.73973 49.3573 3.04811L26.2866 21.6521C25.9316 21.9335 25.4762 22.0885 25.0048 22.0885C24.5335 22.0885 24.0781 21.9335 23.7231 21.6521L17.3146 15.6988L3.16458 26.3496C2.81473 26.6026 2.38149 26.7418 1.93414 26.745Z" fill="#4385F5"/>
<path d="M48.0756 10.4665C47.5677 10.4604 47.0826 10.2748 46.7234 9.94896C46.3643 9.62317 46.1596 9.18304 46.153 8.72234V3.48996H40.3853C39.8754 3.48996 39.3864 3.3062 39.0259 2.97912C38.6653 2.65203 38.4628 2.2084 38.4628 1.74583C38.4628 1.28326 38.6653 0.839637 39.0259 0.51255C39.3864 0.185463 39.8754 0.0017072 40.3853 0.0017072H48.0756C48.5834 0.00773017 49.0686 0.19342 49.4277 0.51921C49.7868 0.845001 49.9915 1.28514 49.9981 1.74583V8.72234C49.9915 9.18304 49.7868 9.62317 49.4277 9.94896C49.0686 10.2748 48.5834 10.4604 48.0756 10.4665Z" fill="#4385F5"/>
<path d="M35.2585 50C34.7507 49.994 34.2655 49.8083 33.9064 49.4825C33.5473 49.1567 33.3426 48.7166 33.3359 48.2559V25.0009C33.3359 24.5383 33.5385 24.0947 33.899 23.7676C34.2596 23.4405 34.7486 23.2567 35.2585 23.2567C35.7684 23.2567 36.2574 23.4405 36.618 23.7676C36.9785 24.0947 37.1811 24.5383 37.1811 25.0009V48.2559C37.1744 48.7166 36.9697 49.1567 36.6106 49.4825C36.2515 49.8083 35.7663 49.994 35.2585 50ZM45.5121 50C45.0043 49.994 44.5192 49.8083 44.16 49.4825C43.8009 49.1567 43.5962 48.7166 43.5896 48.2559V18.0243C43.5896 17.5618 43.7921 17.1182 44.1527 16.7911C44.5132 16.464 45.0023 16.2802 45.5121 16.2802C46.022 16.2802 46.5111 16.464 46.8716 16.7911C47.2322 17.1182 47.4347 17.5618 47.4347 18.0243V48.2559C47.4281 48.7166 47.2234 49.1567 46.8643 49.4825C46.5051 49.8083 46.02 49.994 45.5121 50ZM25.0049 50C24.497 49.994 24.0119 49.8083 23.6527 49.4825C23.2936 49.1567 23.0889 48.7166 23.0823 48.2559V29.6519C23.0823 29.1893 23.2848 28.7457 23.6454 28.4186C24.0059 28.0915 24.495 27.9077 25.0049 27.9077C25.5147 27.9077 26.0038 28.0915 26.3643 28.4186C26.7249 28.7457 26.9274 29.1893 26.9274 29.6519V48.2559C26.9208 48.7166 26.7161 49.1567 26.357 49.4825C25.9978 49.8083 25.5127 49.994 25.0049 50ZM14.7512 50C14.2434 49.994 13.7582 49.8083 13.3991 49.4825C13.04 49.1567 12.8353 48.7166 12.8286 48.2559V34.3029C12.8286 33.8403 13.0312 33.3967 13.3917 33.0696C13.7523 32.7425 14.2413 32.5587 14.7512 32.5587C15.2611 32.5587 15.7501 32.7425 16.1107 33.0696C16.4712 33.3967 16.6738 33.8403 16.6738 34.3029V48.2559C16.6671 48.7166 16.4624 49.1567 16.1033 49.4825C15.7442 49.8083 15.259 49.994 14.7512 50ZM4.49755 50C3.98972 49.994 3.50456 49.8083 3.14544 49.4825C2.78632 49.1567 2.58163 48.7166 2.57499 48.2559V38.9539C2.57499 38.4913 2.77755 38.0477 3.1381 37.7206C3.49865 37.3935 3.98766 37.2097 4.49755 37.2097C5.00745 37.2097 5.49646 37.3935 5.85701 37.7206C6.21756 38.0477 6.42011 38.4913 6.42011 38.9539V48.2559C6.41347 48.7166 6.20879 49.1567 5.84966 49.4825C5.49054 49.8083 5.00538 49.994 4.49755 50Z" fill="#4385F5"/>
</svg>
