<svg width="115" height="116" viewBox="0 0 115 116" fill="none" xmlns="http://www.w3.org/2000/svg">
<path d="M115 41.4669H87.9412V34.7022H104.853V7.64337H64.2647V34.7022H81.1765V41.4669H50.7353C50.7353 33.8336 46.4983 27.1722 40.2536 23.708C42.5545 21.2815 43.9706 18.008 43.9706 14.4081C43.9706 6.94796 37.9013 0.878662 30.4412 0.878662C22.9811 0.878662 16.9118 6.94796 16.9118 14.4081C16.9118 18.008 18.3278 21.2815 20.6287 23.708C14.3838 27.1722 10.1471 33.8336 10.1471 41.4669H0V61.761H6.76471V115.879H108.235V61.761H115V41.4669ZM71.0294 14.4081H98.0882V27.9375H71.0294V14.4081ZM23.6765 14.4081C23.6765 10.678 26.7111 7.64337 30.4412 7.64337C34.1712 7.64337 37.2059 10.678 37.2059 14.4081C37.2059 18.1381 34.1712 21.1728 30.4412 21.1728C26.7111 21.1728 23.6765 18.1381 23.6765 14.4081ZM30.4412 27.9375C37.9013 27.9375 43.9706 34.0068 43.9706 41.4669H16.9118C16.9118 34.0068 22.9811 27.9375 30.4412 27.9375ZM13.5294 109.114V61.761H38.3902C31.4836 67.3464 27.0588 75.8841 27.0588 85.4375C27.0588 94.9908 31.4836 103.529 38.3902 109.114H13.5294ZM81.1765 85.4375C81.1765 98.4927 70.5552 109.114 57.5 109.114C44.4448 109.114 33.8235 98.4927 33.8235 85.4375C33.8235 72.3823 44.4446 61.761 57.5 61.761C70.5554 61.761 81.1765 72.3823 81.1765 85.4375ZM101.471 109.114H76.6098C83.5164 103.529 87.9412 94.9908 87.9412 85.4375C87.9412 75.8841 83.5164 67.3464 76.6098 61.761H101.471V109.114ZM108.235 54.9963H6.76471V48.2316H108.235V54.9963Z" fill="#0061FF"/>
<path d="M54.1177 71.9082H60.8824V78.6729H54.1177V71.9082ZM54.1177 85.4376H60.8824V98.967H54.1177V85.4376Z" fill="#0061FF"/>
</svg>
