<svg width="54" height="48" viewBox="0 0 54 48" fill="none" xmlns="http://www.w3.org/2000/svg">
<path fill-rule="evenodd" clip-rule="evenodd" d="M44.268 30.3116C44.2681 30.4259 44.2462 30.539 44.2038 30.6446C44.1613 30.7502 44.0989 30.8461 44.0203 30.9269C43.9417 31.0077 43.8484 31.0718 43.7457 31.1155C43.643 31.1592 43.5329 31.1816 43.4218 31.1815H35.8455C35.6226 31.179 35.4098 31.0862 35.2531 30.9233C35.0965 30.7605 35.0086 30.5407 35.0086 30.3117C35.0086 30.0826 35.0965 29.8628 35.2531 29.7C35.4098 29.5371 35.6226 29.4444 35.8455 29.4418H43.4218C43.646 29.4425 43.8608 29.5343 44.0194 29.6973C44.1779 29.8603 44.2673 30.0811 44.268 30.3116ZM8.95514 23.1842C9.44229 23.1832 9.91823 23.0338 10.3228 22.7549C10.7274 22.476 11.0425 22.08 11.2282 21.6171C11.414 21.1542 11.4621 20.6451 11.3665 20.1541C11.2708 19.6631 11.0358 19.2123 10.691 18.8585C10.3462 18.5048 9.90709 18.2641 9.42923 18.1667C8.95137 18.0694 8.45616 18.1199 8.00618 18.3117C7.55621 18.5036 7.17165 18.8282 6.9011 19.2446C6.63055 19.661 6.48615 20.1506 6.48615 20.6513C6.48763 21.3234 6.74839 21.9676 7.21123 22.4424C7.67407 22.9172 8.30122 23.184 8.95514 23.1842ZM9.72685 20.6513C9.72637 20.8087 9.6805 20.9623 9.59505 21.0929C9.50959 21.2235 9.38839 21.3251 9.24676 21.3848C9.10514 21.4446 8.94945 21.4598 8.79939 21.4286C8.64934 21.3974 8.51165 21.3212 8.40374 21.2096C8.29584 21.0979 8.22256 20.9559 8.19317 20.8015C8.16379 20.6471 8.17962 20.4871 8.23866 20.3419C8.29771 20.1968 8.39731 20.0728 8.52488 19.9858C8.65245 19.8988 8.80226 19.8527 8.95535 19.8532C9.16042 19.8545 9.35664 19.9392 9.50119 20.0887C9.64573 20.2383 9.72686 20.4405 9.72685 20.6513ZM20.9217 20.6513C20.9217 21.1522 21.0662 21.6419 21.337 22.0584C21.6077 22.4749 21.9925 22.7995 22.4428 22.9912C22.893 23.1829 23.3884 23.2331 23.8664 23.1354C24.3444 23.0377 24.7834 22.7965 25.128 22.4423C25.4726 22.0881 25.7073 21.6368 25.8024 21.1455C25.8975 20.6542 25.8487 20.1449 25.6622 19.6821C25.4757 19.2193 25.1599 18.8238 24.7547 18.5454C24.3496 18.2671 23.8732 18.1186 23.3858 18.1185C22.7325 18.1192 22.1061 18.3862 21.6442 18.8611C21.1822 19.3359 20.9224 19.9798 20.9217 20.6513ZM23.3858 21.4495C23.2322 21.4495 23.0821 21.4027 22.9544 21.315C22.8266 21.2274 22.7271 21.1027 22.6683 20.9568C22.6095 20.811 22.5941 20.6505 22.6241 20.4956C22.654 20.3408 22.728 20.1985 22.8366 20.0869C22.9452 19.9753 23.0835 19.8992 23.2342 19.8684C23.3848 19.8376 23.541 19.8534 23.6829 19.9138C23.8248 19.9742 23.9461 20.0765 24.0314 20.2078C24.1167 20.3391 24.1623 20.4934 24.1623 20.6513C24.162 20.8629 24.0802 21.0658 23.9346 21.2154C23.789 21.365 23.5917 21.4492 23.3858 21.4495ZM13.7038 20.6513C13.7038 21.1522 13.8483 21.642 14.1191 22.0585C14.3898 22.475 14.7746 22.7997 15.2249 22.9914C15.6752 23.1832 16.1706 23.2333 16.6486 23.1356C17.1266 23.0379 17.5657 22.7967 17.9103 22.4424C18.2549 22.0882 18.4896 21.6369 18.5847 21.1456C18.6798 20.6542 18.631 20.145 18.4445 19.6821C18.258 19.2193 17.9422 18.8237 17.537 18.5454C17.1317 18.2671 16.6553 18.1185 16.168 18.1185C15.5146 18.1192 14.8883 18.3862 14.4263 18.8611C13.9643 19.3359 13.7045 19.9798 13.7038 20.6513ZM16.9444 20.6513C16.9444 20.8092 16.8989 20.9635 16.8136 21.0948C16.7283 21.2261 16.607 21.3284 16.4651 21.3888C16.3232 21.4493 16.167 21.4651 16.0164 21.4343C15.8657 21.4035 15.7273 21.3275 15.6187 21.2158C15.5101 21.1042 15.4362 20.962 15.4062 20.8071C15.3762 20.6522 15.3916 20.4917 15.4504 20.3459C15.5092 20.2 15.6088 20.0754 15.7365 19.9876C15.8642 19.8999 16.0144 19.8531 16.168 19.8532C16.3738 19.8535 16.5711 19.9376 16.7167 20.0872C16.8622 20.2369 16.9441 20.4397 16.9444 20.6513ZM44.2679 36.5183C44.2671 36.7483 44.1776 36.9685 44.0189 37.1307C43.8602 37.2928 43.6454 37.3836 43.4217 37.383H27.4976C27.2782 37.3763 27.0699 37.282 26.917 37.1201C26.764 36.9582 26.6785 36.7414 26.6785 36.5157C26.6785 36.2901 26.764 36.0733 26.917 35.9114C27.0699 35.7494 27.2782 35.6551 27.4976 35.6485H43.4218C43.5329 35.6484 43.643 35.6708 43.7457 35.7145C43.8484 35.7582 43.9417 35.8222 44.0203 35.903C44.0989 35.9838 44.1613 36.0797 44.2038 36.1853C44.2462 36.2909 44.2681 36.404 44.268 36.5183H44.2679ZM46.6175 3.8788L47.8221 5.12224L30.803 22.6161L29.5984 21.3726L46.6175 3.8788ZM47.9815 2.47691L47.8121 2.65597L51.4206 6.36048L51.5895 6.18695C52.0645 5.69322 52.331 5.0268 52.331 4.33236C52.331 3.63793 52.0645 2.97151 51.5895 2.47778C51.1091 1.98942 50.4608 1.7155 49.7852 1.7155C49.1096 1.7155 48.4613 1.98942 47.9809 2.47778L47.9815 2.47691ZM33.2071 25.0823L50.2262 7.58851L49.0168 6.35017L31.9976 23.844L33.2072 25.0821L33.2071 25.0823ZM26.726 27.8199L28.7022 22.9078L31.674 25.9625L26.7255 27.8199H26.726ZM47.2945 19.0241H41.5351C41.5202 19.0241 41.5102 19.019 41.4953 19.019L37.3886 23.2403H43.4218C43.5347 23.2369 43.6471 23.2568 43.7524 23.2988C43.8576 23.3409 43.9537 23.4042 44.0347 23.4851C44.1157 23.5659 44.1802 23.6627 44.2242 23.7696C44.2682 23.8766 44.2908 23.9915 44.2908 24.1076C44.2908 24.2237 44.2682 24.3386 44.2242 24.4455C44.1802 24.5525 44.1157 24.6492 44.0347 24.7301C43.9537 24.811 43.8576 24.8743 43.7524 24.9164C43.6471 24.9584 43.5347 24.9783 43.4218 24.9749H35.8306C35.7906 24.974 35.7507 24.9706 35.7111 24.9647L33.8047 26.9243C33.7167 27.0124 33.6115 27.0804 33.4961 27.1239L32.3413 27.5589V30.1786C32.3407 30.9656 32.0364 31.7201 31.495 32.2765C30.9537 32.8329 30.2196 33.1458 29.454 33.1463H19.5231V39.3119C19.524 39.6373 19.6501 39.9492 19.8739 40.1794C20.0978 40.4095 20.4011 40.5393 20.7177 40.5402H33.9141C34.0627 40.5404 34.2087 40.581 34.3372 40.6579L42.7148 45.6262V41.4097C42.7143 41.1797 42.8026 40.9589 42.9603 40.7958C43.118 40.6327 43.3323 40.5407 43.5561 40.5399H47.2945C47.6111 40.539 47.9144 40.4093 48.1383 40.1792C48.3621 39.9491 48.4883 39.6373 48.4892 39.3119V20.2523C48.4891 19.9266 48.3632 19.6143 48.1392 19.384C47.9151 19.1537 47.6113 19.0243 47.2945 19.0242V19.0241ZM2.88217 33.1463H5.77426V37.997C5.77349 38.1496 5.81228 38.2998 5.88664 38.432C5.96099 38.5642 6.06824 38.6736 6.19737 38.7491C6.32487 38.8261 6.47009 38.8668 6.61799 38.8668C6.76589 38.8668 6.91111 38.8261 7.03861 38.7491L16.4866 33.1463H17.8356V39.3119C17.8369 40.0972 18.141 40.8499 18.6812 41.4052C19.2214 41.9605 19.9537 42.2731 20.7177 42.2744H33.69L43.1334 47.8823C43.2624 47.958 43.408 47.9985 43.5565 48C43.7051 47.9992 43.8509 47.9586 43.9797 47.8823C44.1084 47.8064 44.2154 47.6968 44.2897 47.5648C44.364 47.4327 44.403 47.2828 44.4028 47.1302V42.2744H47.2949C48.0589 42.2731 48.7913 41.9606 49.3315 41.4053C49.8717 40.85 50.1758 40.0972 50.1771 39.3119V20.2523C50.1768 19.4662 49.8732 18.7122 49.3329 18.1559C48.7926 17.5995 48.0597 17.2862 47.2949 17.2845H43.1778L52.785 7.41444C53.5684 6.59428 54.0051 5.48932 54 4.33993C53.9948 3.19054 53.5484 2.08973 52.7577 1.27698C51.967 0.464237 50.896 0.00531019 49.7778 4.57929e-05C48.6596 -0.0052186 47.5847 0.443605 46.7868 1.24887L32.3411 16.1026V11.1189C32.3395 10.3328 32.0346 9.57945 31.4934 9.02407C30.9521 8.46869 30.2186 8.15664 29.4538 8.15639H2.88217C2.11817 8.1577 1.38582 8.47025 0.845586 9.02556C0.305352 9.58086 0.00128334 10.3336 0 11.1189V30.1786C0.000277731 30.9647 0.303866 31.7186 0.844175 32.275C1.38448 32.8313 2.1174 33.1447 2.88217 33.1463Z" fill="white"/>
</svg>
