<svg width="56" height="52" viewBox="0 0 56 52" fill="none" xmlns="http://www.w3.org/2000/svg">
<path d="M8.66667 10.4C9.12638 10.4 9.56726 10.2174 9.89232 9.89232C10.2174 9.56726 10.4 9.12638 10.4 8.66667C10.4 8.20696 10.2174 7.76608 9.89232 7.44102C9.56726 7.11595 9.12638 6.93333 8.66667 6.93333C8.20696 6.93333 7.76608 7.11595 7.44102 7.44102C7.11595 7.76608 6.93333 8.20696 6.93333 8.66667C6.93333 9.12638 7.11595 9.56726 7.44102 9.89232C7.76608 10.2174 8.20696 10.4 8.66667 10.4ZM15.6 8.66667C15.6 9.12638 15.4174 9.56726 15.0923 9.89232C14.7673 10.2174 14.3264 10.4 13.8667 10.4C13.407 10.4 12.9661 10.2174 12.641 9.89232C12.316 9.56726 12.1333 9.12638 12.1333 8.66667C12.1333 8.20696 12.316 7.76608 12.641 7.44102C12.9661 7.11595 13.407 6.93333 13.8667 6.93333C14.3264 6.93333 14.7673 7.11595 15.0923 7.44102C15.4174 7.76608 15.6 8.20696 15.6 8.66667ZM19.0667 10.4C19.5264 10.4 19.9673 10.2174 20.2923 9.89232C20.6174 9.56726 20.8 9.12638 20.8 8.66667C20.8 8.20696 20.6174 7.76608 20.2923 7.44102C19.9673 7.11595 19.5264 6.93333 19.0667 6.93333C18.607 6.93333 18.1661 7.11595 17.841 7.44102C17.516 7.76608 17.3333 8.20696 17.3333 8.66667C17.3333 9.12638 17.516 9.56726 17.841 9.89232C18.1661 10.2174 18.607 10.4 19.0667 10.4ZM12.1333 22.5333C12.593 22.5333 13.0339 22.716 13.359 23.041C13.684 23.3661 13.8667 23.807 13.8667 24.2667V34.6667C13.8667 35.3495 14.0012 36.0257 14.2625 36.6566C14.5238 37.2875 14.9068 37.8608 15.3897 38.3436C15.8726 38.8265 16.4458 39.2095 17.0767 39.4708C17.7076 39.7322 18.3838 39.8667 19.0667 39.8667C19.7495 39.8667 20.4257 39.7322 21.0566 39.4708C21.6875 39.2095 22.2608 38.8265 22.7436 38.3436C23.2265 37.8608 23.6095 37.2875 23.8708 36.6566C24.1322 36.0257 24.2667 35.3495 24.2667 34.6667V24.2667C24.2667 23.807 24.4493 23.3661 24.7743 23.041C25.0994 22.716 25.5403 22.5333 26 22.5333C26.4597 22.5333 26.9006 22.716 27.2257 23.041C27.5507 23.3661 27.7333 23.807 27.7333 24.2667V34.6667C27.7333 36.9652 26.8202 39.1696 25.1949 40.7949C23.5696 42.4202 21.3652 43.3333 19.0667 43.3333C16.7681 43.3333 14.5637 42.4202 12.9384 40.7949C11.3131 39.1696 10.4 36.9652 10.4 34.6667V24.2667C10.4 23.807 10.5826 23.3661 10.9077 23.041C11.2327 22.716 11.6736 22.5333 12.1333 22.5333ZM34.4205 23.3757C34.179 22.9925 33.7971 22.719 33.3564 22.6138C32.9158 22.5087 32.4515 22.5802 32.0629 22.8131C31.6744 23.046 31.3924 23.4218 31.2775 23.86C31.1625 24.2982 31.2237 24.7639 31.4479 25.1576L36.1105 32.9333L31.4479 40.7091C31.2113 41.1033 31.1411 41.5753 31.2526 42.0213C31.3641 42.4673 31.6482 42.8507 32.0424 43.0872C32.4366 43.3237 32.9086 43.394 33.3546 43.2825C33.8006 43.171 34.184 42.8869 34.4205 42.4927L38.1333 36.3029L41.8479 42.4909C41.965 42.6861 42.1194 42.8563 42.3023 42.9918C42.4852 43.1274 42.693 43.2255 42.9138 43.2807C43.1346 43.3359 43.3642 43.3471 43.5893 43.3136C43.8145 43.2801 44.0308 43.2026 44.226 43.0855C44.4212 42.9684 44.5914 42.8139 44.7269 42.631C44.8624 42.4482 44.9606 42.2404 45.0158 42.0195C45.071 41.7987 45.0822 41.5692 45.0487 41.344C45.0152 41.1189 44.9376 40.9025 44.8205 40.7073L40.1544 32.9333L44.8205 25.1576C44.9436 24.9623 45.0265 24.7443 45.0642 24.5165C45.1019 24.2888 45.0937 24.0557 45.0401 23.8312C44.9865 23.6066 44.8886 23.395 44.7521 23.2088C44.6156 23.0226 44.4433 22.8655 44.2452 22.7468C44.0472 22.6281 43.8275 22.5501 43.5989 22.5175C43.3703 22.4849 43.1376 22.4983 42.9142 22.5569C42.6909 22.6155 42.4815 22.7181 42.2984 22.8587C42.1153 22.9993 41.9621 23.1751 41.8479 23.3757L38.1333 29.562L34.4205 23.3757Z" fill="#0061FF"/>
<path fill-rule="evenodd" clip-rule="evenodd" d="M0 5.2C0 3.82087 0.547856 2.49823 1.52304 1.52304C2.49823 0.547856 3.82087 0 5.2 0H50.2667C51.6458 0 52.9684 0.547856 53.9436 1.52304C54.9188 2.49823 55.4667 3.82087 55.4667 5.2V46.8C55.4667 48.1791 54.9188 49.5018 53.9436 50.477C52.9684 51.4521 51.6458 52 50.2667 52H5.2C3.82087 52 2.49823 51.4521 1.52304 50.477C0.547856 49.5018 0 48.1791 0 46.8L0 5.2ZM52 5.2V13.8667H3.46667V5.2C3.46667 4.74029 3.64929 4.29941 3.97435 3.97435C4.29941 3.64929 4.74029 3.46667 5.2 3.46667H50.2667C50.7264 3.46667 51.1673 3.64929 51.4923 3.97435C51.8174 4.29941 52 4.74029 52 5.2ZM52 17.3333H3.46667V46.8C3.46667 47.2597 3.64929 47.7006 3.97435 48.0257C4.29941 48.3507 4.74029 48.5333 5.2 48.5333H50.2667C50.7264 48.5333 51.1673 48.3507 51.4923 48.0257C51.8174 47.7006 52 47.2597 52 46.8V17.3333Z" fill="#0061FF"/>
</svg>
