<svg width="52" height="46" viewBox="0 0 52 46" fill="none" xmlns="http://www.w3.org/2000/svg">
<path d="M51.6204 22.1832C51.5037 22.0521 48.7092 18.9383 44.1837 15.7971C32.1331 7.43238 20.3503 7.0968 7.81617 15.7971C3.29074 18.9383 0.496252 22.0521 0.379556 22.1832C0.134932 22.4577 0 22.8108 0 23.1765C0 23.5421 0.134932 23.8953 0.379556 24.1698C0.496252 24.3009 3.29074 27.4147 7.81627 30.5559C19.8669 38.9206 31.6496 39.2562 44.1838 30.5559C48.7093 27.4147 51.5037 24.3008 51.6205 24.1698C51.8651 23.8953 52 23.5421 52 23.1765C52 22.8108 51.865 22.4577 51.6204 22.1832ZM37.0649 23.1765C37.0649 29.1675 32.0605 33.9708 26 33.9708C19.9295 33.9708 14.9352 29.1575 14.9352 23.1765C14.9352 17.1855 19.9396 12.3822 26 12.3822C32.0704 12.3822 37.0649 17.1955 37.0649 23.1765ZM3.63037 23.1765C6.63784 20.2094 10.4009 17.3866 14.3376 15.414C11.102 20.0494 11.0394 26.2137 14.3376 30.939C10.3812 28.9566 6.61986 26.1255 3.63037 23.1765ZM37.6623 30.939C40.8978 26.3036 40.9605 20.1393 37.6623 15.414C41.6186 17.3964 45.38 20.2275 48.3695 23.1765C45.3684 26.1369 41.6068 28.9625 37.6623 30.939Z" fill="#4385F5"/>
<path d="M27.5234 21.6725H28.4158L25.9999 24.0575L24.0277 22.1105C23.4333 21.5235 22.468 21.5231 21.8732 22.1105L18.8525 25.0927C18.2575 25.6801 18.2575 26.6323 18.8525 27.2197C19.4473 27.8071 20.4119 27.8069 21.0069 27.2197L22.9505 25.3009L24.9227 27.2478C25.5178 27.8352 26.4822 27.8352 27.0772 27.2478L30.5702 23.7994V24.1791C30.5702 25.0097 31.2523 25.6831 32.0937 25.6831C32.935 25.6831 33.6171 25.0097 33.6171 24.1791V20.1685C33.6171 19.3379 32.935 18.6646 32.0937 18.6646H27.5234C26.682 18.6646 25.9999 19.3379 25.9999 20.1685C25.9999 20.9991 26.682 21.6725 27.5234 21.6725ZM25.9999 6.5325C26.8413 6.5325 27.5234 5.85912 27.5234 5.02852V2.02058C27.5234 1.18998 26.8413 0.516602 25.9999 0.516602C25.1586 0.516602 24.4765 1.18998 24.4765 2.02058V5.02852C24.4765 5.85912 25.1586 6.5325 25.9999 6.5325ZM35.953 9.16536C36.6785 9.57895 37.6116 9.33751 38.0341 8.6149L39.5575 6.01002C39.9783 5.29072 39.7286 4.37079 38.9999 3.95559C38.2713 3.54009 37.3395 3.78654 36.9189 4.50604L35.3955 7.11093C34.9747 7.83023 35.2243 8.75006 35.953 9.16536ZM25.9999 39.7202C25.1586 39.7202 24.4765 40.3936 24.4765 41.2242V44.3324C24.4765 45.163 25.1586 45.8364 25.9999 45.8364C26.8413 45.8364 27.5234 45.163 27.5234 44.3324V41.2242C27.5234 40.3936 26.8413 39.7202 25.9999 39.7202ZM37.9833 37.6512C37.5625 36.9318 36.6309 36.6853 35.9023 37.1008C35.1735 37.5161 34.9239 38.4358 35.3447 39.1552L36.9189 41.847C37.3409 42.5686 38.2734 42.8117 38.9999 42.3975C39.7286 41.9822 39.9783 41.0625 39.5575 40.343L37.9833 37.6512ZM13.9658 8.6149C14.3878 9.33651 15.3203 9.57955 16.0468 9.16536C16.7755 8.75006 17.0251 7.83023 16.6044 7.11093L15.0809 4.50604C14.6602 3.78654 13.7285 3.54019 12.9999 3.95559C12.2712 4.37089 12.0216 5.29072 12.4423 6.01002L13.9658 8.6149ZM16.0976 37.1008C15.369 36.6852 14.4371 36.9319 14.0166 37.6512L12.4423 40.343C12.0216 41.0625 12.2712 41.9823 12.9999 42.3975C13.7257 42.8113 14.6585 42.5692 15.0809 41.847L16.6551 39.1552C17.0759 38.4359 16.8263 37.5161 16.0976 37.1008Z" fill="#4385F5"/>
</svg>
