<svg width="121" height="102" viewBox="0 0 121 102" fill="none" xmlns="http://www.w3.org/2000/svg">
<path d="M110.365 98.4357H10.6349C6.41827 98.4357 3 95.0174 3 90.8008V10.6349C3 6.41827 6.41827 3 10.6349 3H110.365C114.582 3 118 6.41827 118 10.6349V90.8008C118 95.0174 114.582 98.4357 110.365 98.4357Z" stroke="#0061FF" stroke-width="6" stroke-miterlimit="10" stroke-linecap="round" stroke-linejoin="round"/>
<path d="M85.3133 3C81.0967 3 77.6784 6.41827 77.6784 10.6349C77.6784 14.8514 74.2602 18.2697 70.0436 18.2697H3M54.7739 71.7137H104.4M104.4 85.0747H54.7739M16.5996 31.6307H39.5041V85.0747H16.5996V31.6307ZM54.7739 31.6307H104.4V58.3527H54.7739V31.6307Z" stroke="#0061FF" stroke-width="6" stroke-miterlimit="10" stroke-linecap="round" stroke-linejoin="round"/>
</svg>
