<svg width="50" height="49" viewBox="0 0 50 49" fill="none" xmlns="http://www.w3.org/2000/svg">
<path fill-rule="evenodd" clip-rule="evenodd" d="M12.0692 28.5037C12.0692 28.2746 11.9784 28.0549 11.8167 27.8929C11.655 27.731 11.4358 27.64 11.2071 27.64H0.862087C0.633447 27.64 0.414172 27.731 0.252499 27.8929C0.0908267 28.0549 0 28.2746 0 28.5037V40.5962C0 40.8253 0.0908267 41.045 0.252499 41.207C0.414172 41.3689 0.633447 41.4599 0.862087 41.4599H11.2071C11.4358 41.4599 11.655 41.3689 11.8167 41.207C11.9784 41.045 12.0692 40.8253 12.0692 40.5962V28.5037ZM1.72417 29.3675V39.7324H10.345V29.3675H1.72417ZM27.5868 21.5937C27.5868 21.3646 27.496 21.1449 27.3343 20.983C27.1726 20.821 26.9533 20.73 26.7247 20.73H16.3797C16.151 20.73 15.9317 20.821 15.7701 20.983C15.6084 21.1449 15.5176 21.3646 15.5176 21.5937V40.5962C15.5176 40.8253 15.6084 41.045 15.7701 41.207C15.9317 41.3689 16.151 41.4599 16.3797 41.4599H26.7247C26.9533 41.4599 27.1726 41.3689 27.3343 41.207C27.496 41.045 27.5868 40.8253 27.5868 40.5962V21.5937ZM17.2417 22.4575V39.7324H25.8626V22.4575H17.2417ZM26.2937 44.0512C26.2937 44.2803 26.2028 44.5 26.0412 44.6619C25.8795 44.8239 25.6602 44.9149 25.4316 44.9149C25.2029 44.9149 24.9837 44.8239 24.822 44.6619C24.6603 44.5 24.5695 44.2803 24.5695 44.0512C24.5695 43.8221 24.6603 43.6024 24.822 43.4404C24.9837 43.2784 25.2029 43.1874 25.4316 43.1874C25.6602 43.1874 25.8795 43.2784 26.0412 43.4404C26.2028 43.6024 26.2937 43.8221 26.2937 44.0512ZM18.5349 44.9141H21.9832C22.2119 44.9141 22.4311 44.8231 22.5928 44.6611C22.7545 44.4991 22.8453 44.2794 22.8453 44.0503C22.8453 43.8212 22.7545 43.6015 22.5928 43.4396C22.4311 43.2776 22.2119 43.1866 21.9832 43.1866H18.5349C18.3062 43.1866 18.087 43.2776 17.9253 43.4396C17.7636 43.6015 17.6728 43.8212 17.6728 44.0503C17.6728 44.2794 17.7636 44.4991 17.9253 44.6611C18.087 44.8231 18.3062 44.9141 18.5349 44.9141ZM32.7593 15.5457V40.5945C32.7593 40.8235 32.6685 41.0432 32.5068 41.2052C32.3451 41.3672 32.1259 41.4582 31.8972 41.4582C31.6686 41.4582 31.4493 41.3672 31.2876 41.2052C31.126 41.0432 31.0351 40.8235 31.0351 40.5945V14.682C31.0351 14.2052 31.4213 13.8183 31.8972 13.8183H42.2423C42.7181 13.8183 43.1044 14.2052 43.1044 14.682V27.6382C43.0944 27.8606 42.9993 28.0706 42.8387 28.2245C42.6781 28.3783 42.4645 28.4642 42.2423 28.4642C42.0201 28.4642 41.8064 28.3783 41.6459 28.2245C41.4853 28.0706 41.3901 27.8606 41.3802 27.6382V15.5457H32.7593Z" fill="#4385F5"/>
<path fill-rule="evenodd" clip-rule="evenodd" d="M34.9887 5.18249L31.2877 1.47442C31.1672 1.35362 31.0851 1.19973 31.0519 1.03221C31.0186 0.864681 31.0357 0.691038 31.1009 0.533231C31.1662 0.375425 31.2766 0.240539 31.4184 0.145626C31.5601 0.050714 31.7267 3.64712e-05 31.8972 0H40.5181C40.7467 0 40.966 0.091002 41.1277 0.252986C41.2893 0.414971 41.3802 0.634668 41.3802 0.863749V9.50124C41.3793 9.67168 41.3283 9.83807 41.2334 9.97955C41.1385 10.121 41.0041 10.2313 40.8469 10.2965C40.6898 10.3617 40.5169 10.379 40.3499 10.3462C40.183 10.3133 40.0295 10.2318 39.9086 10.1119L36.2077 6.40383L25.61 17.0219C25.5301 17.1022 25.4351 17.1659 25.3305 17.2094C25.2259 17.2528 25.1137 17.2751 25.0005 17.275H15.0124L8.36828 23.9319C8.28833 24.0122 8.19333 24.0759 8.08873 24.1194C7.98414 24.1628 7.87201 24.1851 7.75878 24.185H2.58626C2.35762 24.185 2.13835 24.094 1.97667 23.932C1.815 23.77 1.72417 23.5503 1.72417 23.3212C1.72417 23.0921 1.815 22.8724 1.97667 22.7105C2.13835 22.5485 2.35762 22.4575 2.58626 22.4575H7.40188L14.046 15.8006C14.1259 15.7202 14.2209 15.6565 14.3255 15.6131C14.4301 15.5697 14.5423 15.5474 14.6555 15.5475H24.6436L34.9887 5.18249ZM39.656 7.41615V1.7275H33.9783L39.656 7.41615ZM39.3784 42.9724L35.9533 46.3902C35.8327 46.5107 35.6791 46.5927 35.5119 46.6258C35.3448 46.659 35.1716 46.6417 35.0143 46.5763C34.8569 46.5108 34.7224 46.4002 34.6278 46.2582C34.5332 46.1162 34.4827 45.9494 34.4826 45.7787V25.9125C34.4827 25.7417 34.5332 25.5747 34.628 25.4327C34.7227 25.2907 34.8573 25.18 35.0148 25.1146C35.1723 25.0493 35.3456 25.0322 35.5128 25.0655C35.68 25.0988 35.8336 25.181 35.9542 25.3018L49.7476 39.1218C49.8681 39.2425 49.9501 39.3963 49.9834 39.5638C50.0167 39.7312 49.9997 39.9048 49.9346 40.0626C49.8694 40.2203 49.7591 40.3552 49.6175 40.4502C49.4759 40.5452 49.3094 40.596 49.139 40.5962H44.4121L46.4829 45.4384C46.5695 45.6407 46.5756 45.8686 46.5002 46.0753C46.4247 46.2821 46.2733 46.4522 46.0768 46.5509L42.6285 48.2784C42.5233 48.3311 42.4085 48.3616 42.2911 48.3682C42.1737 48.3748 42.0561 48.3572 41.9458 48.3166C41.8354 48.276 41.7345 48.2132 41.6492 48.132C41.5639 48.0509 41.4962 47.9531 41.45 47.8448L39.3784 42.9724ZM47.057 38.8687L36.2068 27.9976V43.6988L39.0637 40.8475C39.1638 40.7483 39.2865 40.675 39.4213 40.6341C39.556 40.5932 39.6987 40.586 39.8369 40.613C39.9751 40.64 40.1046 40.7004 40.2142 40.789C40.3237 40.8776 40.41 40.9917 40.4655 41.1213L42.6759 46.3228L44.5777 45.3701L42.3104 40.0728C42.2546 39.9412 42.2321 39.7979 42.2451 39.6556C42.258 39.5132 42.306 39.3763 42.3846 39.2571C42.4632 39.1378 42.5701 39.04 42.6957 38.9722C42.8213 38.9044 42.9617 38.8689 43.1044 38.8687H47.057Z" fill="#4385F5"/>
</svg>
