<svg width="53" height="52" viewBox="0 0 53 52" fill="none" xmlns="http://www.w3.org/2000/svg">
<path d="M48.3418 0H4.6582C2.08967 0 0 2.05828 0 4.58824V47.4118C0 49.9417 2.08967 52 4.6582 52H48.3418C50.9103 52 53 49.9417 53 47.4118V4.58824C53 2.05828 50.9103 0 48.3418 0ZM4.6582 3.05882H48.3418C49.198 3.05882 49.8945 3.74492 49.8945 4.58824V12.2353H3.10547V4.58824C3.10547 3.74492 3.80203 3.05882 4.6582 3.05882ZM48.3418 48.9412H4.6582C3.80203 48.9412 3.10547 48.2551 3.10547 47.4118V15.2941H49.8945V47.4118C49.8945 48.2551 49.198 48.9412 48.3418 48.9412Z" fill="#4385F5"/>
<path d="M31.1871 22.0142C30.3989 21.6816 29.486 22.0412 29.1482 22.8175L19.8318 44.2293C19.494 45.0056 19.8592 45.9048 20.6473 46.2375C21.4358 46.5703 22.3485 46.2104 22.6862 45.4342L32.0026 24.0225C32.3405 23.246 31.9753 22.3469 31.1871 22.0142ZM17.8133 27.0527C17.2775 26.3932 16.3002 26.2863 15.6309 26.814L7.86719 32.9316C7.09092 33.5431 7.09041 34.7082 7.86719 35.3201L15.6309 41.4378C16.3005 41.9655 17.2778 41.8585 17.8133 41.199C18.349 40.5394 18.2405 39.5769 17.5707 39.0493L11.3227 34.1259L17.5707 29.2025C18.2405 28.6748 18.349 27.7124 17.8133 27.0527ZM43.9672 32.9316L36.2036 26.814C35.5339 26.2862 34.5567 26.3932 34.0211 27.0527C33.4854 27.7123 33.5939 28.6748 34.2637 29.2024L40.5117 34.1259L34.2637 39.0492C33.5939 39.5769 33.4854 40.5393 34.0211 41.1989C34.5576 41.8592 35.5348 41.9648 36.2036 41.4377L43.9672 35.32C44.7435 34.7086 44.744 33.5436 43.9672 32.9316Z" fill="#4385F5"/>
<path d="M7.86719 9.17647C8.72474 9.17647 9.41992 8.49173 9.41992 7.64706C9.41992 6.80239 8.72474 6.11765 7.86719 6.11765C7.00964 6.11765 6.31445 6.80239 6.31445 7.64706C6.31445 8.49173 7.00964 9.17647 7.86719 9.17647Z" fill="#4385F5"/>
<path d="M14.0781 9.17647C14.9357 9.17647 15.6309 8.49173 15.6309 7.64706C15.6309 6.80239 14.9357 6.11765 14.0781 6.11765C13.2206 6.11765 12.5254 6.80239 12.5254 7.64706C12.5254 8.49173 13.2206 9.17647 14.0781 9.17647Z" fill="#4385F5"/>
<path d="M20.2891 9.17647C21.1466 9.17647 21.8418 8.49173 21.8418 7.64706C21.8418 6.80239 21.1466 6.11765 20.2891 6.11765C19.4315 6.11765 18.7363 6.80239 18.7363 7.64706C18.7363 8.49173 19.4315 9.17647 20.2891 9.17647Z" fill="#4385F5"/>
<path d="M35.8164 9.17647H45.1328C45.9903 9.17647 46.6855 8.4917 46.6855 7.64706C46.6855 6.80242 45.9903 6.11765 45.1328 6.11765H35.8164C34.9589 6.11765 34.2637 6.80242 34.2637 7.64706C34.2637 8.4917 34.9589 9.17647 35.8164 9.17647Z" fill="#4385F5"/>
</svg>
