<svg width="19" height="18" viewBox="0 0 19 18" fill="none" xmlns="http://www.w3.org/2000/svg">
<path d="M12.6157 12.5034H11.7292L5.94323 5.32437H6.89511L12.6157 12.5034Z" fill="white"/>
<path d="M16.1059 2.78508C14.4821 1.086 12.2611 0.0870975 9.90938 0.00307724C8.13627 -0.0436007 6.40049 0.44185 4.89801 1.38474C3.40487 2.33697 2.22902 3.7093 1.51044 5.32436C0.791864 6.93941 0.577224 8.74118 0.885185 10.4776C1.19315 12.2234 2.00504 13.8384 3.22756 15.1174C4.45007 16.3964 6.0272 17.2832 7.75365 17.666C9.48944 18.0488 11.2905 17.9087 12.933 17.2646C14.5848 16.6204 16.0033 15.5001 17.0205 14.0531C18.0284 12.5968 18.5883 10.879 18.6256 9.10527C18.6349 6.7527 17.7391 4.48416 16.1059 2.78508ZM11.2812 13.409L8.76153 10.2816L5.87789 13.409H4.28209L8.01495 9.35733L4.07678 4.46548H7.37103L9.64808 7.32217L12.2891 4.46548H13.8849L10.3947 8.25573L14.5008 13.409H11.2812Z" fill="white"/>
</svg>
