<svg width="18" height="18" viewBox="0 0 18 18" fill="none" xmlns="http://www.w3.org/2000/svg">
<path fill-rule="evenodd" clip-rule="evenodd" d="M4.09545 1.50642C5.56539 0.524237 7.29357 0 9.06144 0C11.4321 0 13.7056 0.941737 15.3819 2.61804C17.0583 4.29434 18 6.56789 18 8.93854C18 10.7064 17.4758 12.4346 16.4936 13.9045C15.5114 15.3745 14.1154 16.5201 12.4821 17.1967C10.8488 17.8732 9.05153 18.0502 7.31762 17.7053C5.58371 17.3604 3.99102 16.5091 2.74094 15.259C1.49086 14.009 0.639546 12.4163 0.29465 10.6824C-0.0502458 8.94846 0.126767 7.15122 0.803304 5.51791C1.47984 3.88461 2.62552 2.4886 4.09545 1.50642ZM13.6308 11.2018C13.7202 10.9857 13.7661 10.7542 13.7659 10.5204V7.35666C13.7661 7.12287 13.7202 6.89135 13.6308 6.67532C13.5415 6.45929 13.4104 6.26298 13.2452 6.09762C13.0799 5.93225 12.8837 5.80107 12.6677 5.71157C12.4517 5.62207 12.2202 5.576 11.9865 5.57601H6.13642C5.90264 5.576 5.67115 5.62207 5.45517 5.71157C5.2392 5.80107 5.04298 5.93225 4.87773 6.09762C4.71247 6.26298 4.58142 6.45929 4.49206 6.67532C4.4027 6.89135 4.35679 7.12287 4.35695 7.35666V10.5204C4.35679 10.7542 4.4027 10.9857 4.49206 11.2018C4.58142 11.4178 4.71247 11.6141 4.87773 11.7795C5.04298 11.9448 5.2392 12.076 5.45517 12.1655C5.67115 12.255 5.90264 12.3011 6.13642 12.3011H11.9865C12.2202 12.3011 12.4517 12.255 12.6677 12.1655C12.8837 12.076 13.0799 11.9448 13.2452 11.7795C13.4104 11.6141 13.5415 11.4178 13.6308 11.2018ZM10.3011 8.94173L7.82181 10.3801V7.49627L10.3011 8.94173Z" fill="white"/>
</svg>
