<svg width="328" height="279" viewBox="0 0 328 279" fill="none" xmlns="http://www.w3.org/2000/svg">
<path d="M88.9159 143.829L88.9089 144.236L89.0895 144.239C154.128 142.079 208.625 193.045 210.83 258.085L211.237 258.092C209.033 192.962 260.001 138.375 325.086 136.17L325.093 135.764C259.963 137.968 205.375 87 203.171 21.9151L202.765 21.908C204.968 87.038 154.001 141.625 88.9159 143.829Z" fill="url(#paint0_linear_629_10)"/>
<path d="M15.0507 109.45V109.55C32.1208 109.55 45.9496 123.205 45.9496 140H46.0504C46.0504 123.205 59.8792 109.55 77 109.55V109.45C59.9299 109.45 46.0504 95.8448 46.0504 79H45.9496C45.9496 95.7949 32.1208 109.45 15 109.45H15.0507Z" fill="url(#paint1_linear_629_10)"/>
<path d="M0.115308 209.386V209.614C38.936 209.614 70.3854 240.73 70.3854 279H70.6146C70.6146 240.73 102.064 209.614 141 209.614V209.386C102.179 209.386 70.6146 178.384 70.6146 140H70.3854C70.3854 178.27 38.9359 209.386 0 209.386H0.115308Z" fill="url(#paint2_linear_629_10)"/>
<path d="M108 102C136.167 102 159 79.1665 159 51C159 22.8335 136.167 0 108 0C79.8335 0 57 22.8335 57 51C57 79.1665 79.8335 102 108 102Z" fill="url(#paint3_linear_629_10)"/>
<defs>
<linearGradient id="paint0_linear_629_10" x1="155.026" y1="194.096" x2="265.368" y2="79.1546" gradientUnits="userSpaceOnUse">
<stop stop-color="#3FFF74"/>
<stop offset="1" stop-color="#0A5BFF"/>
</linearGradient>
<linearGradient id="paint1_linear_629_10" x1="27.9673" y1="133.372" x2="58.2217" y2="91.9848" gradientUnits="userSpaceOnUse">
<stop stop-color="#3FFF74"/>
<stop offset="1" stop-color="#0A5BFF"/>
</linearGradient>
<linearGradient id="paint2_linear_629_10" x1="29.4902" y1="263.896" x2="98.4716" y2="169.718" gradientUnits="userSpaceOnUse">
<stop stop-color="#3FFF74"/>
<stop offset="1" stop-color="#0A5BFF"/>
</linearGradient>
<linearGradient id="paint3_linear_629_10" x1="71.6002" y1="91.9812" x2="139.416" y2="15.6575" gradientUnits="userSpaceOnUse">
<stop stop-color="#3FFF74"/>
<stop offset="1" stop-color="#0A5BFF"/>
</linearGradient>
</defs>
</svg>
