<svg width="253" height="46" viewBox="0 0 253 46" fill="none" xmlns="http://www.w3.org/2000/svg">
<g id="Group 86">
<path id="Vector" d="M241.508 6.0416V6.06138H241.517C244.682 5.90094 247.378 8.33604 247.541 11.5008H247.561C247.398 8.33165 249.833 5.63062 253 5.46799V5.44821C249.831 5.61084 247.13 3.17574 246.967 0.00878906H246.947C247.11 3.17794 244.675 5.87897 241.508 6.0416Z" fill="url(#paint0_linear_427_30)"/>
<path id="Vector_2" d="M238.473 4.77791V4.78231C239.214 4.78231 239.814 5.38449 239.814 6.12513H239.818C239.818 5.38449 240.418 4.78231 241.161 4.78231V4.77791C240.42 4.77791 239.818 4.17793 239.818 3.43509H239.814C239.814 4.17573 239.214 4.77791 238.471 4.77791H238.473Z" fill="url(#paint1_linear_427_30)"/>
<path id="Vector_3" d="M32.5003 13.6963V21.0038H25.551V13.6963C25.551 9.97556 22.5247 6.95147 18.8061 6.95147H0V0H18.8039C26.3576 0 32.5003 6.14489 32.5003 13.6963Z" fill="url(#paint2_linear_427_30)"/>
<path id="Vector_4" d="M22.1884 14.0238V20.9731H6.96685L6.94927 37.6122H0V18.4193C0 16.0018 1.97797 14.0238 4.39549 14.0238H22.1884Z" fill="url(#paint3_linear_427_30)"/>
<path id="Vector_5" d="M48.7767 37.4781V37.61H50.5833C49.9723 37.6034 49.3679 37.5595 48.7767 37.4781Z" fill="url(#paint4_linear_427_30)"/>
<path id="Vector_6" d="M99.0084 22.639C99.0084 30.8937 92.2899 37.61 84.0352 37.61H50.5833C49.9723 37.6034 49.3679 37.5595 48.7768 37.4781C41.4605 36.4979 35.8035 30.2168 35.8035 22.639C35.8035 14.3842 42.5198 7.66573 50.7767 7.66573C59.0336 7.66573 65.7477 14.3842 65.7477 22.639C65.7477 22.7401 65.7477 22.8412 65.7433 22.9423C65.7433 22.9972 65.7411 23.0543 65.7389 23.1093C65.7346 23.3049 65.7236 23.4983 65.7104 23.6917C65.7016 23.817 65.6906 23.9444 65.6774 24.0719C65.5873 24.9554 65.4181 25.8433 65.1675 26.7224L65.0093 27.285C64.9983 27.3202 64.9873 27.3553 64.9741 27.3905H48.579V20.4412H58.4534C57.6007 17.4655 55.0777 15.2216 52.0536 14.7227H52.0492C51.8492 14.6875 51.6448 14.6634 51.4404 14.6458C51.3569 14.637 51.2734 14.6326 51.1877 14.6282C51.1481 14.626 51.1064 14.6238 51.0646 14.6238C50.9701 14.6194 50.8734 14.6172 50.7767 14.6172C46.3526 14.6172 42.7527 18.2149 42.7527 22.639C42.7527 27.063 46.3526 30.6607 50.7767 30.6607H84.0352C88.457 30.6607 92.0569 27.0608 92.0569 22.639C92.0569 18.2171 88.457 14.615 84.0352 14.615H76.0112V27.7729H69.0619V0H76.0112V7.66573H84.0352C92.2899 7.66573 99.0084 14.382 99.0084 22.639Z" fill="url(#paint5_linear_427_30)"/>
<path id="Vector_7" d="M132.256 22.639C132.256 30.8937 125.54 37.6122 117.283 37.6122C109.026 37.6122 102.309 30.8959 102.309 22.639C102.309 14.3821 109.026 7.66574 117.283 7.66574C125.54 7.66574 132.256 14.3821 132.256 22.639ZM125.307 22.639C125.307 18.2149 121.707 14.6172 117.285 14.6172C112.863 14.6172 109.263 18.2171 109.263 22.639C109.263 27.0608 112.863 30.6607 117.285 30.6607C121.707 30.6607 125.307 27.0608 125.307 22.639Z" fill="url(#paint6_linear_427_30)"/>
<path id="Vector_8" d="M50.9481 37.61C50.891 37.6122 50.8339 37.6122 50.7767 37.6122C50.713 37.6122 50.647 37.6122 50.5833 37.61H50.9481Z" fill="url(#paint7_linear_427_30)"/>
<path id="Vector_9" d="M165.503 22.639C165.503 30.8937 158.787 37.6122 150.53 37.6122C142.273 37.6122 135.557 30.8959 135.557 22.639C135.557 14.3821 142.273 7.66574 150.53 7.66574C158.787 7.66574 165.503 14.3821 165.503 22.639ZM158.554 22.639C158.554 18.2149 154.954 14.6172 150.53 14.6172C146.106 14.6172 142.508 18.2171 142.508 22.639C142.508 27.0608 146.108 30.6607 150.53 30.6607C154.952 30.6607 158.554 27.0608 158.554 22.639Z" fill="url(#paint8_linear_427_30)"/>
<path id="Vector_10" d="M183.422 7.66573V14.615H175.756V37.61H168.807V0H175.756V7.66573H183.422Z" fill="url(#paint9_linear_427_30)"/>
<path id="Vector_11" d="M237.337 37.6496H229.807L217.034 9.36459L204.263 37.6496H196.634L213.634 0H220.432L237.334 37.6496H237.337Z" fill="url(#paint10_linear_427_30)"/>
<path id="Vector_12" d="M240.304 6.57126V37.6496H247.255C247.255 37.6496 247.255 19.0654 247.255 16.149C247.255 13.2326 247.077 6.57126 240.304 6.57126Z" fill="url(#paint11_linear_427_30)"/>
<path id="Vector_13" d="M9.64374 19.2962L32.5508 37.6496L22.494 37.6122L3.49005 23.2038L9.64374 19.2962Z" fill="url(#paint12_linear_427_30)"/>
<path id="Vector_14" d="M242.528 4.45263C243.757 4.45263 244.754 3.45588 244.754 2.22632C244.754 0.996755 243.757 0 242.528 0C241.298 0 240.301 0.996755 240.301 2.22632C240.301 3.45588 241.298 4.45263 242.528 4.45263Z" fill="url(#paint13_linear_427_30)"/>
<g id="Group">
<path id="Vector_15" d="M211.643 44.456V43.1989H213.355C213.737 43.1989 214.021 42.9241 214.021 42.5264C214.021 42.1286 213.737 41.8451 213.355 41.8451H211.236V45.7636H209.825V40.489H213.331C214.557 40.489 215.432 41.2934 215.432 42.478C215.432 43.6626 214.555 44.4582 213.331 44.4582H211.643V44.456Z" fill="white"/>
<path id="Vector_16" d="M218.443 45.7636C218.24 45.7636 218.087 45.6581 217.979 45.4625L216.08 41.7132H217.46L218.678 44.2208L219.887 41.7132H221.273L219.359 45.4625C219.262 45.6581 219.106 45.7636 218.913 45.7636H218.443Z" fill="white"/>
<path id="Vector_17" d="M223.504 45.7636C222.53 45.7636 222.027 45.2208 222.027 44.278V40.5616H223.374V41.7132H224.996V42.8341H223.374V44.1725C223.374 44.489 223.528 44.6516 223.853 44.6516H224.957V45.7636H223.504Z" fill="white"/>
<path id="Vector_18" d="M226.587 45.7636C226.198 45.7636 225.922 45.5197 225.922 45.1395C225.922 44.7593 226.198 44.5219 226.587 44.5219H226.774C227.157 44.5219 227.44 44.7659 227.44 45.1395C227.44 45.5131 227.157 45.7636 226.774 45.7636H226.587Z" fill="white"/>
<path id="Vector_19" d="M231.012 45.7636V40.489H232.44V44.401H235.653V45.7636H231.012Z" fill="white"/>
<path id="Vector_20" d="M237.86 45.7636C236.886 45.7636 236.383 45.2208 236.383 44.278V40.5616H237.73V41.7132H239.352V42.8341H237.73V44.1725C237.73 44.489 237.884 44.6516 238.209 44.6516H239.312V45.7636H237.86Z" fill="white"/>
<path id="Vector_21" d="M242.266 45.7636C241.009 45.7636 240.09 45.001 240.09 43.6538C240.09 42.445 240.829 41.6736 242.273 41.6736C242.622 41.6736 242.978 41.7132 243.255 41.7879V43.0143C242.98 42.9483 242.671 42.9 242.42 42.9C241.802 42.9 241.446 43.1022 241.446 43.6956C241.446 44.256 241.787 44.5307 242.266 44.5307H242.947C243.409 44.5307 243.653 44.2867 243.653 43.8318V40.0737H245.009V43.8318C245.009 45.0647 244.319 45.7636 242.98 45.7636H242.266Z" fill="white"/>
<path id="Vector_22" d="M246.468 45.7636C246.079 45.7636 245.802 45.5197 245.802 45.1395C245.802 44.7593 246.079 44.5219 246.468 44.5219H246.655C247.038 44.5219 247.321 44.7659 247.321 45.1395C247.321 45.5131 247.038 45.7636 246.655 45.7636H246.468Z" fill="white"/>
</g>
</g>
<defs>
<linearGradient id="paint0_linear_427_30" x1="244.769" y1="8.43275" x2="250.044" y2="2.74278" gradientUnits="userSpaceOnUse">
<stop stop-color="#3FFF74"/>
<stop offset="1" stop-color="#0A5BFF"/>
</linearGradient>
<linearGradient id="paint1_linear_427_30" x1="239.033" y1="5.83283" x2="240.374" y2="4.02847" gradientUnits="userSpaceOnUse">
<stop stop-color="#3FFF74"/>
<stop offset="1" stop-color="#0A5BFF"/>
</linearGradient>
<linearGradient id="paint2_linear_427_30" x1="-6.4306" y1="10.5008" x2="315.339" y2="10.5008" gradientUnits="userSpaceOnUse">
<stop stop-color="#0A5BFF"/>
<stop offset="0.59" stop-color="#33D48D"/>
<stop offset="1" stop-color="#0A5BFF"/>
</linearGradient>
<linearGradient id="paint3_linear_427_30" x1="-6.4306" y1="25.8169" x2="315.339" y2="25.8169" gradientUnits="userSpaceOnUse">
<stop stop-color="#0A5BFF"/>
<stop offset="0.59" stop-color="#3FFF74"/>
<stop offset="1" stop-color="#0A5BFF"/>
</linearGradient>
<linearGradient id="paint4_linear_427_30" x1="-2.29131e-05" y1="37.5441" x2="0.219752" y2="37.5441" gradientUnits="userSpaceOnUse">
<stop stop-color="#0A5BFF"/>
<stop offset="0.59" stop-color="#33D48D"/>
<stop offset="1" stop-color="#0A5BFF"/>
</linearGradient>
<linearGradient id="paint5_linear_427_30" x1="6.07975e-06" y1="18.8061" x2="0.219781" y2="18.8061" gradientUnits="userSpaceOnUse">
<stop stop-color="#0A5BFF"/>
<stop offset="0.59" stop-color="#33D48D"/>
<stop offset="1" stop-color="#0A5BFF"/>
</linearGradient>
<linearGradient id="paint6_linear_427_30" x1="-6.66291e-07" y1="22.639" x2="0.219774" y2="22.639" gradientUnits="userSpaceOnUse">
<stop stop-color="#0A5BFF"/>
<stop offset="0.59" stop-color="#33D48D"/>
<stop offset="1" stop-color="#0A5BFF"/>
</linearGradient>
<linearGradient id="paint7_linear_427_30" x1="-9.46271e-05" y1="37.6122" x2="0.21968" y2="37.6122" gradientUnits="userSpaceOnUse">
<stop stop-color="#0A5BFF"/>
<stop offset="0.59" stop-color="#33D48D"/>
<stop offset="1" stop-color="#0A5BFF"/>
</linearGradient>
<linearGradient id="paint8_linear_427_30" x1="-3.28091e-05" y1="22.639" x2="0.219742" y2="22.639" gradientUnits="userSpaceOnUse">
<stop stop-color="#0A5BFF"/>
<stop offset="0.59" stop-color="#33D48D"/>
<stop offset="1" stop-color="#0A5BFF"/>
</linearGradient>
<linearGradient id="paint9_linear_427_30" x1="-3.33067e-06" y1="18.8061" x2="0.219771" y2="18.8061" gradientUnits="userSpaceOnUse">
<stop stop-color="#0A5BFF"/>
<stop offset="0.59" stop-color="#33D48D"/>
<stop offset="1" stop-color="#0A5BFF"/>
</linearGradient>
<linearGradient id="paint10_linear_427_30" x1="-8.76461" y1="18.8259" x2="316.858" y2="18.8259" gradientUnits="userSpaceOnUse">
<stop stop-color="#0A5BFF"/>
<stop offset="0.59" stop-color="#3FFF74"/>
<stop offset="1" stop-color="#0A5BFF"/>
</linearGradient>
<linearGradient id="paint11_linear_427_30" x1="-8.76461" y1="22.1093" x2="316.844" y2="22.1093" gradientUnits="userSpaceOnUse">
<stop stop-color="#0A5BFF"/>
<stop offset="0.59" stop-color="#3FFF74"/>
<stop offset="1" stop-color="#0A5BFF"/>
</linearGradient>
<linearGradient id="paint12_linear_427_30" x1="3.23795e-05" y1="28.4718" x2="0.219807" y2="28.4718" gradientUnits="userSpaceOnUse">
<stop stop-color="#0A5BFF"/>
<stop offset="0.59" stop-color="#3FFF74"/>
<stop offset="1" stop-color="#0A5BFF"/>
</linearGradient>
<linearGradient id="paint13_linear_427_30" x1="240.939" y1="4.01528" x2="243.899" y2="0.683497" gradientUnits="userSpaceOnUse">
<stop stop-color="#3FFF74"/>
<stop offset="1" stop-color="#0A5BFF"/>
</linearGradient>
</defs>
</svg>
