<svg width="421" height="52" viewBox="0 0 421 52" fill="none" xmlns="http://www.w3.org/2000/svg">
<path d="M28.3214 12.8548C28.3214 11.0184 26.8433 9.53277 25.0213 9.53277H11.6429C10.3004 9.53277 9.21049 10.6299 9.21049 11.9813V25.5353C9.21049 27.3717 10.6887 28.8573 12.5106 28.8573C14.335 28.8573 15.8108 27.3693 15.8108 25.5353V21.2716L32.7302 38.3029H8.34043C3.73518 38.3029 0 34.5454 0 29.9073V8.39561C0 3.75754 3.73285 0 8.34043 0H28.843C33.4483 0 37.1834 3.75754 37.1834 8.39561V16.4404C37.1834 21.0761 33.4506 24.836 28.843 24.836H28.691L20.0909 16.1791H25.0213C26.8456 16.1791 28.3214 14.6911 28.3214 12.8571V12.8548Z" fill="#0099FF"/>
<path d="M69.35 29.1633C68.48 32.5183 67.0322 34.9621 65.002 36.4924C62.6117 38.0981 59.784 38.8986 56.5236 38.8986C47.6125 38.6066 43.1546 33.4294 43.1546 23.3622C43.1546 13.295 47.6476 8.22844 56.6312 8.15546C65.9774 8.15546 70.3627 13.9542 69.7827 25.5518H50.763C51.053 30.0745 53.0083 32.3346 56.6312 32.3346C58.3713 32.3346 59.9641 31.6425 61.4142 30.2557C62.0667 29.5259 62.8994 29.161 63.9145 29.161H69.3477L69.35 29.1633ZM61.9592 20.1933C61.5241 16.2544 59.7138 14.2862 56.5236 14.2862C53.3334 14.2862 51.4506 16.2544 50.8729 20.1933H61.9592Z" fill="white"/>
<path d="M80.6539 12.7535C82.5366 9.69048 85.3269 8.1578 89.0223 8.1578C96.8482 8.44974 100.761 13.627 100.761 23.6942C100.761 33.7614 96.1957 38.536 87.0671 38.682C77.8659 38.7549 73.263 34.3429 73.263 25.4434V0.171844H76.9584C79.4213 0.171844 80.6539 1.41259 80.6539 3.89172V12.7535ZM86.9571 14.8324C82.9717 14.8324 80.8714 17.6764 80.6539 23.3669C80.5813 29.347 82.6466 32.337 86.8495 32.337C91.0525 32.337 93.1528 29.347 93.1528 23.3669C93.0078 17.6764 90.9426 14.8324 86.9571 14.8324Z" fill="white"/>
<path d="M130.65 23.5835C130.65 33.7943 126.194 38.9009 117.281 38.9009C108.367 38.9009 103.912 33.7943 103.912 23.5835C103.912 13.3727 108.367 8.15781 117.281 8.15781C126.194 8.15781 130.65 13.2997 130.65 23.5835ZM111.412 23.5835C111.485 29.3446 113.405 32.2263 117.173 32.2263C120.941 32.2263 122.861 29.2716 122.934 23.3646C122.934 17.6035 121.051 14.7217 117.283 14.7217C113.515 14.7217 111.415 17.6764 111.415 23.5835H111.412Z" fill="white"/>
<path d="M168.42 37.8603C165.63 37.606 164.271 35.8356 164.343 32.5536V0.171844H168.146C169.089 0.171844 169.922 0.536769 170.647 1.26662C171.372 1.99647 171.734 2.87228 171.734 3.89172V8.59571H176.19V10.2367C176.19 11.3315 175.827 12.2238 175.102 12.9183C174.377 13.6105 173.507 13.9566 172.494 13.9566H171.734V30.3664C171.734 31.6071 172.459 32.2263 173.907 32.2263H176.19V37.9144C173.8 38.1334 171.208 38.1146 168.418 37.8603H168.42Z" fill="white"/>
<path d="M193.624 4.21897C193.624 3.1242 194.005 2.17775 194.765 1.37492C195.525 0.572084 196.449 0.171844 197.537 0.171844H205.035L212.644 29.1633L220.034 0.171844H231.556V38.2441H224.275V7.50094L216.559 38.2441H208.625L200.909 7.50094V38.2441H193.629V4.21897H193.624Z" fill="white"/>
<path d="M246.772 38.7903C243.875 39.0092 241.412 38.609 239.382 37.5872C236.339 36.0545 234.816 33.3564 234.816 29.4906C234.889 26.5006 235.904 24.238 237.859 22.7077C239.817 21.175 243.04 20.1909 247.533 19.753C250.72 19.3881 252.316 18.4039 252.316 16.7983C252.171 15.1196 250.575 14.2815 247.533 14.2815C244.925 14.2815 243.44 14.9737 243.077 16.3604H235.686C236.556 10.8889 240.397 8.15546 247.207 8.15546C255.323 8.15546 259.454 10.8912 259.597 16.3604V26.4252C259.597 31.4588 257.786 34.9597 254.163 36.928C252.208 37.9498 249.743 38.569 246.772 38.7879V38.7903ZM246.555 25.1138C243.585 25.6977 242.099 27.0844 242.099 29.2716C242.244 31.6048 243.477 32.7725 245.795 32.7725C247.823 32.7725 249.453 32.1887 250.685 31.0209C251.845 29.8531 252.426 28.2122 252.426 26.098V23.3622C250.685 24.0921 248.73 24.6759 246.557 25.1115L246.555 25.1138Z" fill="white"/>
<path d="M263.184 22.9267C263.402 13.3727 268.437 8.59573 278.291 8.59573H279.379V16.3627H276.879C272.748 16.3627 270.683 18.5146 270.683 22.8184V38.2441H263.184V22.9267Z" fill="white"/>
<path d="M299.376 9.68813H308.287L298.071 20.6288L308.397 38.2441H299.486L294.268 28.5065C293.325 26.8278 292.385 25.9897 291.443 25.9897C290.645 26.1356 290.247 26.6088 290.247 27.4117V38.2441H282.857V0.171844H286.66C287.602 0.171844 288.435 0.517934 289.16 1.21247C289.885 1.90465 290.247 2.76163 290.247 3.78342V20.1932L299.378 9.69049L299.376 9.68813Z" fill="white"/>
<path d="M333.83 29.1633C332.96 32.5183 331.512 34.9621 329.482 36.4924C327.092 38.0981 324.264 38.8986 321.004 38.8986C312.093 38.6066 307.635 33.4294 307.635 23.3622C307.635 13.295 312.128 8.22844 321.111 8.15546C330.457 8.15546 334.843 13.9542 334.263 25.5518H315.243C315.533 30.0745 317.488 32.3346 321.111 32.3346C322.851 32.3346 324.444 31.6425 325.894 30.2557C326.547 29.5259 327.379 29.161 328.395 29.161H333.83V29.1633ZM326.439 20.1933C326.004 16.2544 324.194 14.2862 321.006 14.2862C317.818 14.2862 315.933 16.2544 315.355 20.1933H326.442H326.439Z" fill="white"/>
<path d="M341.82 37.8603C339.029 37.606 337.671 35.8356 337.743 32.5536V0.171844H341.546C342.489 0.171844 343.321 0.536769 344.046 1.26662C344.771 1.99647 345.134 2.87228 345.134 3.89172V8.59571H349.589V10.2367C349.589 11.3315 349.227 12.2238 348.502 12.9183C347.777 13.6105 346.907 13.9566 345.894 13.9566H345.134V30.3664C345.134 31.6071 345.859 32.2263 347.307 32.2263H349.589V37.9144C347.199 38.1334 344.608 38.1146 341.817 37.8603H341.82Z" fill="white"/>
<path d="M357.633 0.171844C360.096 0.171844 361.291 1.37492 361.218 3.78342V5.97061H353.828V0.171844H357.631H357.633ZM357.633 8.59571C360.023 8.59571 361.218 9.79879 361.218 12.2049V38.2441H353.828V8.59571H357.631H357.633Z" fill="white"/>
<path d="M386.761 38.2441C384.298 38.0981 383.066 36.8573 383.066 34.5242V19.3174C382.921 16.2544 381.218 14.7217 377.958 14.7217C374.697 14.7217 373.03 16.2544 372.957 19.3174V38.2441H365.459V20.8478C365.459 12.3862 369.662 8.15546 378.065 8.15546C386.469 8.15546 390.637 12.3862 390.564 20.8478V38.2441H386.761Z" fill="white"/>
<path d="M407.194 8.48508C398.063 8.63105 393.5 13.627 393.5 23.4729C393.5 33.3188 397.412 38.7903 405.238 38.7903C408.934 38.7903 411.724 37.3306 413.607 34.4135V37.4766C413.607 42.0722 411.652 44.3701 407.739 44.3701C407.587 44.3701 407.439 44.3654 407.294 44.3607V50.595C416.428 50.3407 421 46.5549 421 39.2282V21.7236C421 12.8242 416.399 8.4121 407.196 8.48508H407.194ZM413.607 23.6918C413.389 29.3799 411.289 32.2264 407.304 32.2264C403.318 32.2264 401.253 29.3823 401.108 23.6918C401.108 17.7118 403.208 14.7218 407.411 14.7218C411.614 14.7218 413.679 17.7118 413.607 23.6918Z" fill="white"/>
<path d="M147.368 8.22141C138.478 8.22141 134.036 13.3468 134.036 23.6C134.036 33.8532 138.478 38.8751 147.368 38.8751C156.258 38.8751 160.697 33.7826 160.697 23.6C160.697 13.4175 156.256 8.22141 147.368 8.22141ZM151.807 17.2715C151.819 17.248 151.833 17.2339 151.849 17.2127C152.127 16.9184 152.413 16.6335 152.703 16.3486C152.789 16.2615 152.881 16.1697 152.969 16.0849C153.019 16.0331 153.107 16.0214 153.22 15.9743C153.304 16.0496 153.442 16.1061 153.475 16.2027C153.51 16.3062 153.505 16.4899 153.437 16.5629C153.344 16.6641 153.252 16.7653 153.152 16.8619C152.89 17.1468 152.607 17.4199 152.322 17.693C152.244 17.7659 152.146 17.7918 152.057 17.7707H152.053C151.987 17.7542 151.926 17.7212 151.873 17.6647C151.753 17.5446 151.73 17.401 151.807 17.2786C151.802 17.2739 151.807 17.2739 151.807 17.2739V17.2715ZM146.977 14.1614C146.977 14.0979 146.982 14.0343 146.982 13.9754C146.982 13.7847 147.143 13.6435 147.321 13.66C147.506 13.6764 147.637 13.773 147.641 13.9754C147.641 14.0178 147.646 14.0602 147.641 14.1049C147.651 14.3239 147.646 14.5381 147.646 14.7547V14.7759C147.646 15.0231 147.653 15.2727 147.646 15.5199C147.637 15.7271 147.508 15.8542 147.323 15.8613C147.136 15.8707 146.982 15.7341 146.977 15.5199C146.973 15.2727 146.968 15.0278 146.968 14.7783C146.968 14.5734 146.973 14.3663 146.977 14.1614ZM140.653 22.7572C140.482 22.7619 140.314 22.7619 140.143 22.7619H139.94C139.692 22.7619 139.444 22.7619 139.203 22.7572C138.976 22.7501 138.826 22.6065 138.826 22.4158C138.831 22.2298 138.981 22.0791 139.203 22.0744C139.544 22.0697 139.888 22.065 140.234 22.065C140.377 22.0697 140.515 22.0697 140.66 22.0697C140.88 22.0744 141.027 22.2251 141.027 22.4205C141.027 22.6159 140.884 22.7525 140.655 22.7572H140.653ZM141.273 16.2662C141.399 16.1344 141.598 16.1179 141.741 16.2592C141.967 16.4758 142.192 16.7018 142.409 16.9278L142.781 17.3021C142.798 17.321 142.814 17.3398 142.83 17.3563C142.882 17.4057 142.901 17.4905 142.952 17.6035C142.877 17.6977 142.826 17.8366 142.725 17.8766C142.66 17.9049 142.559 17.9119 142.48 17.8931C142.437 17.886 142.4 17.8695 142.374 17.8483C142.248 17.7306 142.124 17.6106 142 17.4905C141.748 17.2456 141.504 16.9914 141.263 16.7394C141.128 16.6005 141.142 16.4028 141.275 16.2686L141.273 16.2662ZM143.003 27.3882C142.728 27.6801 142.442 27.965 142.157 28.2475C142.061 28.3393 141.97 28.4335 141.874 28.5277C141.827 28.5748 141.748 28.5865 141.642 28.6289C141.558 28.563 141.418 28.5088 141.387 28.4147C141.35 28.3017 141.352 28.1157 141.42 28.0356C141.591 27.8473 141.769 27.6636 141.946 27.4847C142.136 27.294 142.328 27.108 142.524 26.922C142.65 26.7949 142.854 26.8114 142.975 26.9338C143.099 27.0539 143.13 27.261 143.006 27.3882H143.003ZM150.015 26.0274C149.548 26.3193 149.216 26.7125 149.12 27.3081C149.506 27.4423 149.777 27.6895 149.896 28.078C150.006 28.4312 149.931 28.7537 149.739 29.0574C149.704 29.1116 149.693 29.2269 149.723 29.2764C150.228 30.0557 149.831 30.948 148.919 31.0727C148.886 31.0774 148.848 31.0892 148.795 31.1033C148.83 31.3694 148.858 31.6284 148.907 31.8826C148.907 31.8944 148.916 31.9062 148.928 31.9156C148.919 31.9415 148.916 31.9697 148.907 31.998C148.858 32.224 148.799 32.443 148.729 32.6619C148.666 32.6737 148.603 32.6996 148.561 32.7326C148.257 32.9892 147.967 33.267 147.665 33.5283C147.452 33.719 147.309 33.719 147.094 33.5283C146.788 33.2599 146.491 32.9845 146.182 32.7255C146.161 32.709 146.135 32.6996 146.112 32.6949C146.107 32.6855 146.107 32.6831 146.103 32.6737C146.053 32.5936 146.002 32.5065 145.957 32.4218C145.932 32.3794 145.915 32.337 145.894 32.2946C145.89 32.2852 145.887 32.2782 145.883 32.2735C145.878 32.2546 145.866 32.2358 145.862 32.2146C145.843 32.1604 145.829 32.1063 145.812 32.0521C145.803 32.0215 145.796 31.9839 145.787 31.9556V31.9415C145.838 31.8968 145.869 31.8332 145.869 31.7249C145.869 31.5177 145.922 31.3105 145.953 31.0939C145.827 31.068 145.717 31.0633 145.614 31.0304C144.872 30.8114 144.566 29.9615 145.003 29.3117C145.073 29.2104 145.078 29.1492 145.01 29.0433C144.624 28.4571 144.783 27.7719 145.387 27.4094C145.487 27.3505 145.511 27.3058 145.483 27.1881C145.361 26.7031 145.092 26.3358 144.676 26.0721C143.329 25.2292 142.477 24.0215 142.257 22.4393C141.96 20.2757 142.739 18.5382 144.538 17.3422C147.447 15.3998 151.349 16.9302 152.261 20.3251C152.845 22.51 151.931 24.8243 150.011 26.025L150.015 26.0274ZM153.582 28.3393C153.444 28.4806 153.234 28.4782 153.063 28.3087C152.871 28.118 152.679 27.9297 152.483 27.7366C152.34 27.5883 152.198 27.44 152.057 27.2846C151.978 27.1975 151.94 27.0162 151.968 26.8961C151.994 26.7996 152.139 26.729 152.24 26.6371C152.366 26.7078 152.462 26.7407 152.53 26.8043C152.577 26.8514 152.621 26.8938 152.668 26.9385C152.965 27.2304 153.255 27.5247 153.545 27.819C153.713 27.9909 153.723 28.1981 153.58 28.3417L153.582 28.3393ZM155.647 22.5335H155.451C155.271 22.5335 155.091 22.5335 154.911 22.5335C154.677 22.5335 154.436 22.5335 154.197 22.5335C153.97 22.5288 153.828 22.3946 153.825 22.1921C153.821 22.0155 153.975 21.8507 154.176 21.846C154.565 21.8366 154.953 21.8366 155.348 21.846C155.456 21.8413 155.568 21.846 155.676 21.846C155.881 21.8507 156.024 22.0085 156.019 22.1921C156.015 22.397 155.881 22.5288 155.647 22.5335ZM148.137 32.1557C148.084 32.2452 147.999 32.3252 147.899 32.4006C147.721 32.5371 147.564 32.6972 147.382 32.855C147.127 32.629 146.874 32.4124 146.631 32.1863C146.615 32.1699 146.598 32.1557 146.582 32.1393C146.545 32.1063 146.531 32.0239 146.54 31.965C146.566 31.7202 146.61 31.4753 146.631 31.2281C146.645 31.108 146.694 31.068 146.809 31.068C147.188 31.0727 147.562 31.0727 147.941 31.068C148.058 31.068 148.112 31.1104 148.119 31.2281C148.13 31.3764 148.13 31.5271 148.172 31.6613C148.243 31.8638 148.222 32.0192 148.137 32.1534V32.1557ZM149.251 29.9426C149.258 30.1993 149.085 30.3806 148.795 30.3806C147.84 30.39 146.886 30.3853 145.932 30.3806C145.66 30.3806 145.494 30.1946 145.499 29.9426C145.504 29.6954 145.677 29.5259 145.955 29.5236H148.774C149.068 29.5236 149.241 29.6813 149.251 29.9426ZM149.255 28.4147C149.246 28.6642 149.054 28.8314 148.769 28.8314H145.995C145.686 28.8314 145.501 28.6666 145.497 28.4029C145.497 28.1369 145.679 27.9673 145.983 27.965C146.914 27.9603 147.85 27.9603 148.781 27.965C149.078 27.965 149.26 28.151 149.258 28.4147H149.255ZM151.671 20.8078C151.031 17.6765 147.567 16.2003 144.9 17.9237C142.19 19.6753 142.215 23.7248 144.952 25.4294C145.593 25.8249 146.018 26.3734 146.175 27.1245C146.189 27.181 146.252 27.261 146.301 27.2657C146.521 27.2822 146.743 27.2728 146.991 27.2728C146.991 27.1174 146.987 26.9903 146.996 26.8608C147.008 26.6254 147.129 26.4982 147.342 26.5029C147.536 26.5029 147.665 26.6371 147.672 26.8608C147.681 26.9879 147.677 27.1174 147.677 27.2775C147.885 27.2775 148.062 27.261 148.233 27.2822C148.395 27.2964 148.441 27.2234 148.467 27.0798C148.568 26.5853 148.799 26.1616 149.171 25.8272C149.391 25.6342 149.639 25.467 149.882 25.2952C151.285 24.3228 152.018 22.4935 151.674 20.8101L151.671 20.8078ZM148.041 23.407C147.756 23.6895 147.649 24.0638 147.644 24.4641V25.7543C147.644 25.985 147.518 26.138 147.33 26.1498C147.129 26.1592 146.98 26.0156 146.963 25.7731C146.952 25.5235 146.963 25.2787 146.963 25.0315H146.942C146.963 24.6901 146.959 24.3416 147.01 24.0073C147.068 23.5694 147.272 23.188 147.585 22.8796C148.034 22.437 148.107 21.8908 148.03 21.3045C147.988 20.982 147.651 20.7489 147.309 20.7748C146.98 20.8031 146.708 21.0903 146.687 21.4529C146.68 21.6553 146.687 21.8625 146.687 22.0626C146.683 22.2486 146.577 22.3616 146.402 22.3922C146.219 22.4181 146.091 22.3334 146.03 22.1592C145.801 21.5211 146.105 20.6383 146.671 20.2851C147.536 19.7507 148.673 20.3557 148.731 21.3752C148.783 22.1568 148.612 22.8443 148.041 23.4093V23.407ZM151.094 21.9072C151.073 22.1686 150.928 22.3169 150.722 22.3004C150.509 22.2839 150.392 22.1097 150.413 21.8366C150.418 21.7613 150.42 21.6906 150.42 21.6695C150.429 20.1533 149.707 19.0891 148.35 18.5594C148.1 18.4605 148.004 18.298 148.077 18.0956C148.147 17.8978 148.343 17.8177 148.582 17.9096C150.242 18.5311 151.236 19.9979 151.091 21.9072H151.094Z" fill="white"/>
<path d="M358.903 51.0965H357.067V43.0046C357.067 42.7432 357.158 42.5196 357.338 42.3289C357.518 42.1382 357.738 42.0416 357.998 42.0416H361.048C361.995 42.0416 362.71 42.2841 363.192 42.7691C363.674 43.2541 363.943 44.0004 363.943 44.954C363.943 45.8557 363.702 46.5761 363.22 47.1129C362.739 47.6167 362.058 47.8686 361.179 47.8686H358.903V51.0941V51.0965ZM360.713 46.23C361.644 46.2465 362.109 45.8133 362.109 44.9281C362.109 44.0428 361.679 43.6002 360.816 43.6002H358.929V46.2277H360.713V46.23Z" fill="white"/>
<path d="M367.358 51.0965L364.902 44.0452H366.841L368.263 48.9893L369.477 44.6691C369.615 44.2524 369.9 44.0452 370.331 44.0452H371.701L369.22 51.0965H367.358Z" fill="white"/>
<path d="M373.603 51.007C372.938 50.9458 372.616 50.5267 372.634 49.7451V42.044H373.54C373.764 42.044 373.963 42.1311 374.134 42.3053C374.307 42.4796 374.393 42.6867 374.393 42.9292V44.0476H375.453V44.4384C375.453 44.6997 375.366 44.9116 375.193 45.0764C375.02 45.2412 374.814 45.3236 374.573 45.3236H374.393V49.2271C374.393 49.5214 374.566 49.6697 374.91 49.6697H375.453V51.0235C374.884 51.0753 374.267 51.0706 373.605 51.0094L373.603 51.007Z" fill="white"/>
<path d="M378.22 49.6909V51.0965H376.72V50.2112C376.72 49.8651 376.91 49.6909 377.289 49.6909H378.22Z" fill="white"/>
<path d="M403.947 49.6909V51.0965H402.448V50.2112C402.448 49.8651 402.637 49.6909 403.016 49.6909H403.947Z" fill="white"/>
<path d="M383.796 43.0046C383.796 42.7432 383.887 42.5196 384.067 42.3289C384.247 42.1382 384.467 42.0416 384.726 42.0416H385.632V49.4319H390.026V51.0965H383.796V43.0046Z" fill="white"/>
<path d="M392.028 51.007C391.364 50.9458 391.041 50.5267 391.06 49.7451V42.044H391.965C392.19 42.044 392.389 42.1311 392.559 42.3053C392.73 42.4796 392.819 42.6867 392.819 42.9292V44.0476H393.878V44.4384C393.878 44.6997 393.792 44.9116 393.619 45.0764C393.446 45.2412 393.24 45.3236 392.999 45.3236H392.819V49.2271C392.819 49.5214 392.992 49.6697 393.336 49.6697H393.878V51.0235C393.31 51.0753 392.693 51.0706 392.031 51.0094L392.028 51.007Z" fill="white"/>
<path d="M400.469 42.0416C400.71 42.0416 400.918 42.1287 401.089 42.303C401.26 42.4772 401.349 42.6844 401.349 42.9269V48.0523C401.349 50.1688 400.254 51.2189 398.065 51.2C395.894 51.1647 394.807 49.9781 394.807 47.6356C394.807 45.293 395.738 44.0099 397.6 43.9416C398.479 43.9416 399.141 44.3065 399.59 45.034V42.0416H400.469ZM398.116 45.5284C397.169 45.5284 396.669 46.2041 396.617 47.5579C396.601 48.9799 397.092 49.6909 398.091 49.6909C399.089 49.6909 399.59 48.9799 399.59 47.5579C399.555 46.2041 399.064 45.5284 398.116 45.5284Z" fill="white"/>
</svg>
