<svg width="1152" height="209" viewBox="0 0 1152 209" fill="none" xmlns="http://www.w3.org/2000/svg">
<path d="M1123.73 0.039978H1123.64C1124.38 14.46 1113.3 26.75 1098.89 27.49V27.58H1098.93C1113.33 26.85 1125.6 37.93 1126.34 52.33H1126.43C1125.69 37.91 1136.77 25.62 1151.18 24.88V24.79C1136.76 25.53 1124.47 14.45 1123.73 0.039978Z" fill="url(#paint0_linear_482_58)"/>
<path d="M1097.31 21.76V21.74C1093.94 21.74 1091.2 19.01 1091.2 15.63H1091.18C1091.18 19 1088.45 21.74 1085.07 21.74H1085.08V21.76C1088.45 21.76 1091.18 24.5 1091.18 27.87H1091.2C1091.2 24.5 1093.93 21.76 1097.31 21.76Z" fill="url(#paint1_linear_482_58)"/>
<path d="M116.26 62.32V95.57H147.88V62.32C147.88 27.96 119.93 0 85.56 0H0V31.63H85.57C102.49 31.63 116.26 45.39 116.26 62.32Z" fill="url(#paint2_linear_482_58)"/>
<path d="M31.7 95.53V95.43H31.86L43.88 87.8L53.4 95.43H100.96V63.81H20C9 63.81 0 72.81 0 83.81V171.14H31.62L31.68 117.56L15.88 105.58L31.7 95.53Z" fill="url(#paint3_linear_482_58)"/>
<path d="M221.94 170.53V171.13H230.16C229.46 171.13 228.77 171.1 228.08 171.08C226.01 170.99 223.96 170.81 221.94 170.53Z" fill="url(#paint4_linear_482_58)"/>
<path d="M382.37 34.88H345.86V0H314.24V126.37H345.86V66.5H382.37C402.49 66.5 418.87 82.89 418.87 103.01C418.87 123.13 402.49 139.51 382.37 139.51H231.04C210.91 139.51 194.53 123.14 194.53 103.01C194.53 82.88 210.91 66.51 231.04 66.51C231.48 66.51 231.92 66.52 232.35 66.54C232.54 66.54 232.73 66.55 232.91 66.56C233.3 66.58 233.68 66.6 234.06 66.64C234.99 66.72 235.92 66.83 236.83 66.99H236.85C250.61 69.26 262.09 79.47 265.97 93.01H221.04V124.63H295.64C295.7 124.47 295.75 124.31 295.8 124.15L296.52 121.59C297.66 117.59 298.43 113.55 298.84 109.53C298.9 108.95 298.95 108.37 298.99 107.8C299.05 106.92 299.1 106.04 299.12 105.15C299.13 104.9 299.14 104.64 299.14 104.39C299.16 103.93 299.16 103.47 299.16 103.01C299.16 65.45 268.61 34.88 231.04 34.88C193.47 34.88 162.91 65.45 162.91 103.01C162.91 137.49 188.65 166.07 221.94 170.53C223.96 170.81 226.01 170.99 228.08 171.08C228.77 171.11 229.46 171.13 230.16 171.13H382.37C419.93 171.13 450.5 140.57 450.5 103.01C450.5 65.45 419.93 34.88 382.37 34.88Z" fill="url(#paint5_linear_482_58)"/>
<path d="M230.16 171.13C229.46 171.13 228.77 171.1 228.08 171.08C228.77 171.11 229.46 171.13 230.16 171.13Z" fill="url(#paint6_linear_482_58)"/>
<path d="M230.16 171.13C229.46 171.13 228.77 171.1 228.08 171.08C228.77 171.11 229.46 171.13 230.16 171.13Z" fill="url(#paint7_linear_482_58)"/>
<path d="M533.65 34.88C496.08 34.88 465.52 65.44 465.52 103.01C465.52 140.58 496.08 171.14 533.65 171.14C571.22 171.14 601.78 140.57 601.78 103.01C601.78 65.45 571.22 34.88 533.65 34.88ZM533.66 139.51C513.54 139.51 497.16 123.13 497.16 103.01C497.16 82.89 513.54 66.51 533.66 66.51C553.78 66.51 570.16 82.88 570.16 103.01C570.16 123.14 553.78 139.51 533.66 139.51Z" fill="url(#paint8_linear_482_58)"/>
<path d="M684.93 34.88C647.36 34.88 616.8 65.44 616.8 103.01C616.8 140.58 647.36 171.14 684.93 171.14C722.5 171.14 753.06 140.57 753.06 103.01C753.06 65.45 722.5 34.88 684.93 34.88ZM684.93 139.51C664.81 139.51 648.43 123.13 648.43 103.01C648.43 82.89 664.8 66.51 684.93 66.51C705.06 66.51 721.44 82.88 721.44 103.01C721.44 123.14 705.05 139.51 684.93 139.51Z" fill="url(#paint9_linear_482_58)"/>
<path d="M799.71 0H768.09V171.13H799.71V66.5H834.59V34.88H799.71V0Z" fill="url(#paint10_linear_482_58)"/>
<path d="M1002.99 0H972.06L894.71 171.31H929.42L987.53 42.61L1045.65 171.31H1079.9L1002.99 0Z" fill="url(#paint11_linear_482_58)"/>
<path d="M1093.41 171.31H1125.04V73.48C1125.04 60.21 1124.23 29.9 1093.41 29.9V171.31Z" fill="url(#paint12_linear_482_58)"/>
<path d="M31.8601 95.43L31.7001 95.53L31.6801 117.56L102.35 171.14L148.11 171.31L53.4001 95.43H31.8601Z" fill="url(#paint13_linear_482_58)"/>
<path d="M31.86 95.43H53.4L43.88 87.8L31.86 95.43Z" fill="url(#paint14_linear_482_58)"/>
<path d="M31.86 95.43H53.4L43.88 87.8L31.86 95.43Z" fill="url(#paint15_linear_482_58)"/>
<path d="M15.88 105.58L31.68 117.56L31.7 95.53L15.88 105.58Z" fill="url(#paint16_linear_482_58)"/>
<path d="M15.88 105.58L31.68 117.56L31.7 95.53L15.88 105.58Z" fill="url(#paint17_linear_482_58)"/>
<path d="M1103.53 20.26C1109.12 20.26 1113.66 15.7246 1113.66 10.13C1113.66 4.53536 1109.12 0 1103.53 0C1097.94 0 1093.4 4.53536 1093.4 10.13C1093.4 15.7246 1097.94 20.26 1103.53 20.26Z" fill="url(#paint18_linear_482_58)"/>
<path d="M970.68 184.23H954.73V208.23H961.15V190.4H970.79C972.53 190.4 973.82 191.69 973.82 193.5C973.82 195.31 972.53 196.56 970.79 196.56H963V202.28L970.68 202.29C976.25 202.29 980.24 198.67 980.24 193.28C980.24 187.89 976.26 184.23 970.68 184.23Z" fill="white"/>
<path d="M995.01 201.21L989.47 189.8H983.19L991.83 206.86C992.32 207.75 993.02 208.23 993.94 208.23H996.08C996.96 208.23 997.67 207.75 998.11 206.86L1006.82 189.8H1000.51L995.01 201.21Z" fill="white"/>
<path d="M1016.38 184.56H1010.25V201.47C1010.25 205.76 1012.54 208.23 1016.97 208.23H1023.58V203.17H1018.56C1017.08 203.17 1016.38 202.43 1016.38 200.99V194.9H1023.76V189.8H1016.38V184.56Z" fill="white"/>
<path d="M1031.85 202.58H1031C1029.23 202.58 1027.97 203.66 1027.97 205.39C1027.97 207.12 1029.23 208.23 1031 208.23H1031.85C1033.59 208.23 1034.88 207.09 1034.88 205.39C1034.88 203.69 1033.59 202.58 1031.85 202.58Z" fill="white"/>
<path d="M1057.63 184.23H1051.13V208.23H1072.25V202.03H1057.63V184.23Z" fill="white"/>
<path d="M1081.7 184.56H1075.57V201.47C1075.57 205.76 1077.86 208.23 1082.29 208.23H1088.9V203.17H1083.88C1082.4 203.17 1081.7 202.43 1081.7 200.99V194.9H1089.08V189.8H1081.7V184.56Z" fill="white"/>
<path d="M1108.65 199.44C1108.65 201.51 1107.54 202.62 1105.44 202.62H1102.34C1100.16 202.62 1098.61 201.37 1098.61 198.82C1098.61 196.12 1100.23 195.2 1103.04 195.2C1104.18 195.2 1105.59 195.42 1106.84 195.72V190.14C1105.58 189.8 1103.96 189.62 1102.37 189.62C1095.8 189.62 1092.44 193.13 1092.44 198.63C1092.44 204.76 1096.62 208.23 1102.34 208.23H1105.59C1111.68 208.23 1114.82 205.05 1114.82 199.44V182.34H1108.65V199.44Z" fill="white"/>
<path d="M1122.31 202.58H1121.46C1119.69 202.58 1118.43 203.66 1118.43 205.39C1118.43 207.12 1119.69 208.23 1121.46 208.23H1122.31C1124.05 208.23 1125.34 207.09 1125.34 205.39C1125.34 203.69 1124.05 202.58 1122.31 202.58Z" fill="white"/>
<defs>
<linearGradient id="paint0_linear_482_58" x1="1113.74" y1="38.37" x2="1137.74" y2="12.48" gradientUnits="userSpaceOnUse">
<stop stop-color="#3FFF74"/>
<stop offset="1" stop-color="#0A5BFF"/>
</linearGradient>
<linearGradient id="paint1_linear_482_58" x1="1087.63" y1="26.54" x2="1093.73" y2="18.33" gradientUnits="userSpaceOnUse">
<stop stop-color="#3FFF74"/>
<stop offset="1" stop-color="#0A5BFF"/>
</linearGradient>
<linearGradient id="paint2_linear_482_58" x1="-29.26" y1="47.79" x2="1434.83" y2="47.79" gradientUnits="userSpaceOnUse">
<stop stop-color="#0A5BFF"/>
<stop offset="0.59" stop-color="#33D48D"/>
<stop offset="1" stop-color="#0A5BFF"/>
</linearGradient>
<linearGradient id="paint3_linear_482_58" x1="-29.26" y1="117.48" x2="1434.83" y2="117.48" gradientUnits="userSpaceOnUse">
<stop stop-color="#0A5BFF"/>
<stop offset="0.59" stop-color="#3FFF74"/>
<stop offset="1" stop-color="#0A5BFF"/>
</linearGradient>
<linearGradient id="paint4_linear_482_58" x1="-29.2601" y1="170.83" x2="1434.83" y2="170.83" gradientUnits="userSpaceOnUse">
<stop stop-color="#0A5BFF"/>
<stop offset="0.59" stop-color="#33D48D"/>
<stop offset="1" stop-color="#0A5BFF"/>
</linearGradient>
<linearGradient id="paint5_linear_482_58" x1="-29.26" y1="85.57" x2="1434.83" y2="85.57" gradientUnits="userSpaceOnUse">
<stop stop-color="#0A5BFF"/>
<stop offset="0.59" stop-color="#33D48D"/>
<stop offset="1" stop-color="#0A5BFF"/>
</linearGradient>
<linearGradient id="paint6_linear_482_58" x1="-0.000254924" y1="171.1" x2="0.999746" y2="171.1" gradientUnits="userSpaceOnUse">
<stop stop-color="#0A5BFF"/>
<stop offset="0.59" stop-color="#33D48D"/>
<stop offset="1" stop-color="#0A5BFF"/>
</linearGradient>
<linearGradient id="paint7_linear_482_58" x1="-0.000254924" y1="171.1" x2="0.999746" y2="171.1" gradientUnits="userSpaceOnUse">
<stop stop-color="#0A5BFF"/>
<stop offset="0.59" stop-color="#33D48D"/>
<stop offset="1" stop-color="#0A5BFF"/>
</linearGradient>
<linearGradient id="paint8_linear_482_58" x1="-29.2601" y1="103.01" x2="1434.83" y2="103.01" gradientUnits="userSpaceOnUse">
<stop stop-color="#0A5BFF"/>
<stop offset="0.59" stop-color="#33D48D"/>
<stop offset="1" stop-color="#0A5BFF"/>
</linearGradient>
<linearGradient id="paint9_linear_482_58" x1="-29.2601" y1="103.01" x2="1434.83" y2="103.01" gradientUnits="userSpaceOnUse">
<stop stop-color="#0A5BFF"/>
<stop offset="0.59" stop-color="#33D48D"/>
<stop offset="1" stop-color="#0A5BFF"/>
</linearGradient>
<linearGradient id="paint10_linear_482_58" x1="-29.2599" y1="85.57" x2="1434.83" y2="85.57" gradientUnits="userSpaceOnUse">
<stop stop-color="#0A5BFF"/>
<stop offset="0.59" stop-color="#33D48D"/>
<stop offset="1" stop-color="#0A5BFF"/>
</linearGradient>
<linearGradient id="paint11_linear_482_58" x1="-39.88" y1="85.66" x2="1441.64" y2="85.66" gradientUnits="userSpaceOnUse">
<stop stop-color="#0A5BFF"/>
<stop offset="0.59" stop-color="#3FFF74"/>
<stop offset="1" stop-color="#0A5BFF"/>
</linearGradient>
<linearGradient id="paint12_linear_482_58" x1="-39.8801" y1="100.61" x2="1441.68" y2="100.61" gradientUnits="userSpaceOnUse">
<stop stop-color="#0A5BFF"/>
<stop offset="0.59" stop-color="#3FFF74"/>
<stop offset="1" stop-color="#0A5BFF"/>
</linearGradient>
<linearGradient id="paint13_linear_482_58" x1="-29.2599" y1="133.37" x2="1434.83" y2="133.37" gradientUnits="userSpaceOnUse">
<stop stop-color="#0A5BFF"/>
<stop offset="0.59" stop-color="#3FFF74"/>
<stop offset="1" stop-color="#0A5BFF"/>
</linearGradient>
<linearGradient id="paint14_linear_482_58" x1="-1.58202e-05" y1="91.62" x2="1434.83" y2="91.62" gradientUnits="userSpaceOnUse">
<stop stop-color="#0A5BFF"/>
<stop offset="0.59" stop-color="#3FFF74"/>
<stop offset="1" stop-color="#0A5BFF"/>
</linearGradient>
<linearGradient id="paint15_linear_482_58" x1="-1.58202e-05" y1="91.62" x2="1434.83" y2="91.62" gradientUnits="userSpaceOnUse">
<stop stop-color="#0A5BFF"/>
<stop offset="0.59" stop-color="#3FFF74"/>
<stop offset="1" stop-color="#0A5BFF"/>
</linearGradient>
<linearGradient id="paint16_linear_482_58" x1="3.81108e-06" y1="106.55" x2="1" y2="106.55" gradientUnits="userSpaceOnUse">
<stop stop-color="#0A5BFF"/>
<stop offset="0.59" stop-color="#3FFF74"/>
<stop offset="1" stop-color="#0A5BFF"/>
</linearGradient>
<linearGradient id="paint17_linear_482_58" x1="3.81108e-06" y1="106.55" x2="1" y2="106.55" gradientUnits="userSpaceOnUse">
<stop stop-color="#0A5BFF"/>
<stop offset="0.59" stop-color="#3FFF74"/>
<stop offset="1" stop-color="#0A5BFF"/>
</linearGradient>
<linearGradient id="paint18_linear_482_58" x1="1096.3" y1="18.27" x2="1109.76" y2="3.11999" gradientUnits="userSpaceOnUse">
<stop stop-color="#3FFF74"/>
<stop offset="1" stop-color="#0A5BFF"/>
</linearGradient>
</defs>
</svg>
